STARTFONT 2.3
FONT -FontForge-Roboto-Book-R-Normal--32-320-72-72-P-179-ISO10646-1
SIZE 32 72 72  4
FONTBOUNDINGBOX 61 41 -24 -8
COMMENT "Generated by fontforge, http://fontforge.sourceforge.net"
COMMENT "Copyright 2011 Google Inc. All Rights Reserved."
STARTPROPERTIES 42
FOUNDRY "FontForge"
FAMILY_NAME "Roboto"
WEIGHT_NAME "Book"
SLANT "R"
SETWIDTH_NAME "Normal"
ADD_STYLE_NAME ""
PIXEL_SIZE 32
POINT_SIZE 320
RESOLUTION_X 72
RESOLUTION_Y 72
SPACING "P"
AVERAGE_WIDTH 179
CHARSET_REGISTRY "ISO10646"
CHARSET_ENCODING "1"
FONTNAME_REGISTRY ""
CHARSET_COLLECTIONS "ISO8859-2 ISO8859-5 ISO8859-7 ISO8859-9 ISO8859-4 ISO10646-1"
BITS_PER_PIXEL 4
FONT_NAME "Roboto-Regular"
FACE_NAME "Roboto"
COPYRIGHT "Copyright 2011 Google Inc. All Rights Reserved."
FONT_VERSION "2.137; 2017"
FONT_ASCENT 24
FONT_DESCENT 8
UNDERLINE_POSITION -3
UNDERLINE_THICKNESS 2
X_HEIGHT 16
CAP_HEIGHT 22
DEFAULT_CHAR 1
RAW_ASCENT 750
RAW_DESCENT 250
NORM_SPACE 8
RELATIVE_WEIGHT 40
RELATIVE_SETWIDTH 50
SUPERSCRIPT_X 0
SUPERSCRIPT_Y 15
SUPERSCRIPT_SIZE 20
SUBSCRIPT_X 0
SUBSCRIPT_Y 4
SUBSCRIPT_SIZE 20
FIGURE_WIDTH 18
AVG_LOWERCASE_WIDTH 174
AVG_UPPERCASE_WIDTH 211
ENDPROPERTIES
CHARS 1296
STARTCHAR glyph1.dup1
ENCODING 0
SWIDTH 0 0
DWIDTH 0 0
BBX 1 1 0 0
BITMAP
00
ENDCHAR
STARTCHAR uni0002
ENCODING 2
SWIDTH 0 0
DWIDTH 0 0
BBX 1 1 0 0
BITMAP
00
ENDCHAR
STARTCHAR uni000D
ENCODING 13
SWIDTH 247 0
DWIDTH 8 0
BBX 1 1 0 0
BITMAP
00
ENDCHAR
STARTCHAR space
ENCODING 32
SWIDTH 247 0
DWIDTH 8 0
BBX 1 1 0 0
BITMAP
00
ENDCHAR
STARTCHAR exclam
ENCODING 33
SWIDTH 257 0
DWIDTH 8 0
BBX 4 23 2 0
BITMAP
6FFA
6FF9
5FF9
5FF9
5FF9
5FF8
5FF8
4FF8
4FF8
4FF8
4FF7
4FF7
4FF7
3FF7
3FF7
3FF6
1662
0000
0000
0230
4FFA
7FFD
2DE6
ENDCHAR
STARTCHAR quotedbl
ENCODING 34
SWIDTH 319 0
DWIDTH 10 0
BBX 7 8 2 16
BITMAP
DF50AF80
DF50AF80
DF50AF80
DF30AF70
DF20AF50
DF10AF40
DF00AF30
DE00AF20
ENDCHAR
STARTCHAR numbersign
ENCODING 35
SWIDTH 615 0
DWIDTH 20 0
BBX 19 23 1 0
BITMAP
00000005FE0000EF4000
00000008FA0003FF1000
0000000BF70006FD0000
0000000EF40009FA0000
0000003FF1000CF60000
0000006FD0001FF30000
00EFFFFFFFFFFFFFFF40
00EFFFFFFFFFFFFFFF40
002333FF5333BFA33310
000003FF1000CF700000
000005FD0000FF400000
000008FA0003FF100000
00000BF80005FD000000
00000EF50008FB000000
2FFFFFFFFFFFFFFFF200
2FFFFFFFFFFFFFFFF200
02228FC2224FF4222000
0000AF90004FE0000000
0000DF60007FC0000000
0000FF3000AF90000000
0003FF1000DF60000000
0006FD0001FF30000000
0009FA0003FF10000000
ENDCHAR
STARTCHAR dollar
ENCODING 36
SWIDTH 561 0
DWIDTH 18 0
BBX 16 30 1 -3
BITMAP
0000000563000000
0000000CF8000000
0000000CF8000000
0000000CF8000000
000029DFFFB60000
0007FFFFFFFFC100
005FFFC98AFFFB00
00DFF700003EFF50
03FFC0000006FFB0
05FF90000001FFE0
06FF80000000DFF0
04FFC00000003440
00EFF80000000000
006FFFC500000000
0008FFFFE9300000
00004CFFFFFC3000
0000004AEFFFF600
0000000016DFFF40
00000000001AFFC0
000000000001EFF1
4FF900000000AFF3
2FFC00000000AFF3
0EFF20000001EFF1
08FFC200001BFFB0
01DFFEA78AEFFE30
002DFFFFFFFFE400
00006BEFFEC71000
0000001FF4000000
0000001FF4000000
0000001FF3000000
ENDCHAR
STARTCHAR percent
ENCODING 37
SWIDTH 732 0
DWIDTH 23 0
BBX 22 23 1 0
BITMAP
002AEFD700000000000000
03EFFEFFB0000000000000
0CFB104EF600000B500000
3FF20007FB00007FC00000
5FD00004FE0002EF300000
5FC00003FE000BF9000000
5FD00004FE005FE1000000
3FF10007FC01DF50000000
0CFB104EF609FB00000000
03EFFEFFB03FE200000000
002AEFD700CF7000000000
0000000006FD0000000000
000000002EF4029EFD8100
00000000AF902EFFEFFC00
00000004FE10BFC203EF80
0000001DF602FF20006FD0
0000008FB004FE00003FF0
000002FF3004FD00002FF1
00000BF80004FE00003FF0
00006FD10001FF20006FD0
00002A400000BFC103DF80
0000000000002EFFEFFC10
000000000000029EFD8100
ENDCHAR
STARTCHAR ampersand
ENCODING 38
SWIDTH 621 0
DWIDTH 20 0
BBX 19 23 1 0
BITMAP
000018CEFD8100000000
0002DFFFFFFE30000000
000CFFD77BFFD1000000
004FFD10009FF5000000
007FF700003FF7000000
008FF600004FF6000000
006FF90000AFF2000000
002FFE2009FFA0000000
0008FFB3DFFB10000000
0000CFFFFF8000000000
00004FFFE50000000000
0005EFFFF40000000000
007FFFAFFE30002AA400
05FFE407FFD1003FF600
0DFF5000AFFC106FF400
4FFB00000BFFA0AFF100
6FF8000001DFF9FFC000
5FF80000002EFFFF5000
2FFD00000004FFFC0000
0CFF90000019FFFE2000
03EFFD8669EFFFFFC000
003DFFFFFFFFC3BFF900
00006ADFED94002EFF60
ENDCHAR
STARTCHAR quotesingle
ENCODING 39
SWIDTH 174 0
DWIDTH 6 0
BBX 3 7 1 17
BITMAP
6FE0
6FE0
6FE0
6FD0
6FC0
6FB0
6FA0
ENDCHAR
STARTCHAR parenleft
ENCODING 40
SWIDTH 341 0
DWIDTH 11 0
BBX 9 33 2 -7
BITMAP
0000003B00
000004EF30
00003EFA00
0001DFB000
0009FE1000
003FF60000
00BFE00000
02FF700000
08FF200000
0EFD000000
2FF9000000
6FF6000000
9FF3000000
BFF2000000
CFF1000000
DFF0000000
EFF0000000
DFF0000000
CFF1000000
BFF2000000
9FF4000000
6FF6000000
3FF9000000
0EFD000000
08FF200000
02FF800000
00BFE00000
003FF60000
0009FE1000
0001DFA000
00003EF800
000004EF30
0000003B00
ENDCHAR
STARTCHAR parenright
ENCODING 41
SWIDTH 347 0
DWIDTH 11 0
BBX 9 33 0 -7
BITMAP
0B20000000
4FE3000000
0AFE200000
00CFD10000
003FF80000
0008FF2000
0002FFA000
00009FF200
00004FF700
00000EFD00
00000BFF10
000008FF50
000005FF80
000003FFA0
000002FFB0
000001FFC0
000001FFD0
000001FFC0
000002FFB0
000003FFA0
000005FF80
000007FF50
00000AFF10
00000EFD00
00003FF700
00008FF200
0001EFA000
0007FF2000
001EF80000
00BFD10000
09FE200000
4FE3000000
0B20000000
ENDCHAR
STARTCHAR asterisk
ENCODING 42
SWIDTH 430 0
DWIDTH 14 0
BBX 14 14 0 9
BITMAP
000004FF200000
000003FF100000
000003FF100000
020003FF000020
1FC712FF027DD0
6FFFFBFFBFFFF2
16BEFFFFFFE951
00015FFFC30000
00009FEFF40000
0005FF4BFE1000
002EF902EFB000
00BFE1006FF600
002B50000B9000
00000000010000
ENDCHAR
STARTCHAR plus
ENCODING 43
SWIDTH 566 0
DWIDTH 18 0
BBX 16 17 1 2
BITMAP
0000004AA4000000
0000007FF7000000
0000007FF7000000
0000007FF7000000
0000007FF7000000
0000007FF7000000
0000007FF7000000
CFFFFFFFFFFFFFFC
CFFFFFFFFFFFFFFC
9BBBBBDFFDBBBBB9
0000007FF7000000
0000007FF7000000
0000007FF7000000
0000007FF7000000
0000007FF7000000
0000007FF7000000
0000006EE6000000
ENDCHAR
STARTCHAR comma
ENCODING 44
SWIDTH 196 0
DWIDTH 6 0
BBX 5 9 0 -5
BITMAP
006650
00FFC0
00FFC0
01FFB0
02FF90
06FF50
0CFD00
5FF500
098000
ENDCHAR
STARTCHAR hyphen
ENCODING 45
SWIDTH 275 0
DWIDTH 9 0
BBX 9 3 0 8
BITMAP
6FFFFFFF30
6FFFFFFF30
2555555510
ENDCHAR
STARTCHAR period
ENCODING 46
SWIDTH 263 0
DWIDTH 8 0
BBX 4 4 2 0
BITMAP
0550
8FF9
BFFC
4EE5
ENDCHAR
STARTCHAR slash
ENCODING 47
SWIDTH 412 0
DWIDTH 13 0
BBX 13 25 0 -2
BITMAP
0000000006FF10
000000000CFA00
000000003FF400
000000008FE000
00000000EF8000
00000005FF2000
0000000AFC0000
0000001FF60000
0000007FE10000
000000CFA00000
000003FF400000
000009FD000000
00000EF8000000
00005FF2000000
0000BFB0000000
0002FF60000000
0007FE10000000
000DF900000000
004FF300000000
009FD000000000
01EF7000000000
06FF2000000000
0CFB0000000000
2FF50000000000
8FE00000000000
ENDCHAR
STARTCHAR zero
ENCODING 48
SWIDTH 561 0
DWIDTH 18 0
BBX 16 23 1 0
BITMAP
000049DEED930000
0009FFFFFFFF8000
007FFF966AFFF700
02FFE300004FFE10
07FF80000008FF60
0CFF20000003FFB0
0EFE00000000EFE0
1FFC00000000CFF1
2FFB00000000CFF1
3FFA00000000BFF2
3FFA00000000BFF2
3FFA00000000BFF2
3FFA00000000BFF2
3FFA00000000BFF2
2FFB00000000CFF1
1FFC00000000CFF0
0EFE00000000EFD0
0BFF20000003FFB0
07FF80000009FF60
01EFF400004FFE10
007FFFA66AFFF600
0008FFFFFFFF8000
000039DEED930000
ENDCHAR
STARTCHAR one
ENCODING 49
SWIDTH 561 0
DWIDTH 18 0
BBX 10 23 2 0
BITMAP
00000027D6
00016BFFF6
05AFFFFFF6
5FFFFDCFF6
5FE9408FF6
3500008FF6
0000008FF6
0000008FF6
0000008FF6
0000008FF6
0000008FF6
0000008FF6
0000008FF6
0000008FF6
0000008FF6
0000008FF6
0000008FF6
0000008FF6
0000008FF6
0000008FF6
0000008FF6
0000008FF6
0000008FF6
ENDCHAR
STARTCHAR two
ENCODING 50
SWIDTH 561 0
DWIDTH 18 0
BBX 16 23 1 0
BITMAP
00005ADFED940000
002CFFFFFFFF9000
02DFFD867AFFF900
0AFFA000005FFF30
2FFD00000009FF80
6FF800000004FFA0
8FF600000003FFB0
000000000005FF80
00000000000AFF40
00000000002FFC00
0000000000CFF300
000000000AFF8000
000000008FFC0000
00000006FFD10000
0000005FFE200000
000004FFE3000000
00003EFE40000000
0002DFF400000000
001DFF5000000000
01CFF60000000000
0BFFC55555555554
2FFFFFFFFFFFFFFC
2FFFFFFFFFFFFFFC
ENDCHAR
STARTCHAR three
ENCODING 51
SWIDTH 561 0
DWIDTH 18 0
BBX 15 23 1 0
BITMAP
00005BEFEC920000
002CFFFFFFFF7000
02DFFD867BFFF600
0AFFA000005FFE10
1FFE1000000AFF50
4FFA00000007FF70
144200000006FF70
000000000008FF50
00000000002EFD00
0000000137EFE300
00000EFFFFFC3000
00000EFFFFFA2000
000005567BFFF400
00000000004EFF20
000000000007FF90
000000000002FFC0
255200000000FFD0
7FF700000002FFC0
4FFC00000006FF90
0DFF8000003EFF30
04FFFC766AFFF800
004EFFFFFFFF8000
00017BEFEC820000
ENDCHAR
STARTCHAR four
ENCODING 52
SWIDTH 561 0
DWIDTH 18 0
BBX 18 23 0 0
BITMAP
00000000005FFF1000
0000000001EFFF1000
0000000009FFFF1000
000000004FFFFF1000
00000001DFDDFF1000
00000008FF4CFF1000
0000003FF90CFF1000
000000DFE10CFF1000
000008FF500CFF1000
00003FFA000CFF1000
0000CFE1000CFF1000
0007FF60000CFF1000
002FFB00000CFF1000
00BFE200000CFF1000
06FF6000000CFF1000
1EFFFFFFFFFFFFFFF4
3FFFFFFFFFFFFFFFF4
15555555555DFF6551
00000000000CFF1000
00000000000CFF1000
00000000000CFF1000
00000000000CFF1000
00000000000CFF1000
ENDCHAR
STARTCHAR five
ENCODING 53
SWIDTH 561 0
DWIDTH 18 0
BBX 15 23 2 0
BITMAP
00AFFFFFFFFFFF00
00CFFFFFFFFFFF00
00DFEAAAAAAAAA00
00FFB00000000000
01FF900000000000
03FF800000000000
04FF600000000000
06FF500000000000
07FF59CEEC820000
09FFFFFFFFFE5000
0AFFFDA9BFFFF300
06CE500002DFFC00
00000000002EFF40
000000000008FF70
000000000004FF90
000000000003FFA0
344100000004FF90
7FF500000007FF70
3FFB0000000CFF40
0CFF7000009FFC00
03EFFC867CFFF300
004EFFFFFFFE4000
00017BEFEC710000
ENDCHAR
STARTCHAR six
ENCODING 54
SWIDTH 561 0
DWIDTH 18 0
BBX 15 23 2 0
BITMAP
00000048CDF40000
00003CFFFFF40000
0005FFFFC9720000
005FFF9200000000
01EFF60000000000
08FF800000000000
0EFE100000000000
4FF8000000000000
7FF429DEEC710000
AFF7FFFFFFFD2000
CFFFFD879EFFD100
DFFF700001CFF900
EFF80000002FFE00
EFF10000000BFF40
EFF000000008FF60
DFF000000007FF60
AFF300000007FF50
7FF70000000BFF30
1FFE1000002FFE00
09FFB10001CFF700
01CFFD868EFFC000
001CFFFFFFFC1000
00006BEFEB500000
ENDCHAR
STARTCHAR seven
ENCODING 55
SWIDTH 561 0
DWIDTH 18 0
BBX 16 23 1 0
BITMAP
CFFFFFFFFFFFFFF9
CFFFFFFFFFFFFFF8
466666666666CFF3
000000000001EFB0
000000000007FF50
00000000000DFD00
00000000005FF600
0000000000CFE100
0000000004FF8000
000000000BFF2000
000000003FFA0000
00000000AFF30000
00000002FFC00000
00000008FF500000
0000001EFD000000
0000007FF7000000
000000DFE1000000
000006FF90000000
00000CFF20000000
00004FFA00000000
0000BFF400000000
0003FFC000000000
000AFF6000000000
ENDCHAR
STARTCHAR eight
ENCODING 56
SWIDTH 561 0
DWIDTH 18 0
BBX 16 23 1 0
BITMAP
000039DEED930000
0009FFFFFFFF8000
009FFFA66AFFF800
03FFE300005FFF20
08FF80000009FF70
0AFF40000004FF90
0AFF30000003FFA0
08FF60000006FF70
02FFC100001DFF20
008FFC4114CFF700
0007FFFFFFFE7000
0003DFFFFFFC2000
006FFE9669EFF500
04FFC100002DFF30
0CFF20000003FFC0
1FFC00000000CFF1
3FFA00000000AFF3
3FFB00000000CFF2
0EFE10000002FFE0
09FFB100001CFF90
01DFFE8668EFFD10
002CFFFFFFFFC200
00005ADFFDA50000
ENDCHAR
STARTCHAR nine
ENCODING 57
SWIDTH 561 0
DWIDTH 18 0
BBX 15 23 1 0
BITMAP
00005ADFEB600000
001BFFFFFFFC1000
00CFFE978DFFC100
07FFC10001BFF800
0DFF2000001EFE10
3FFA00000008FF50
5FF700000004FF90
6FF600000001FFB0
5FF700000000FFC0
3FFA00000001FFD0
0EFF20000008FFD0
08FFC100008FFFC0
01DFFE868DFEFFB0
002DFFFFFFD5FFA0
00017CEEC713FF70
000000000007FF40
00000000000CFE10
00000000004FFA00
0000000002EFF300
000000006EFF7000
000278AEFFF80000
0004FFFFFD500000
0004FDC950000000
ENDCHAR
STARTCHAR colon
ENCODING 58
SWIDTH 242 0
DWIDTH 8 0
BBX 4 17 2 0
BITMAP
6ED3
DFFA
AFF7
1650
0000
0000
0000
0000
0000
0000
0000
0000
0000
1650
AFF7
DFFA
6ED3
ENDCHAR
STARTCHAR semicolon
ENCODING 59
SWIDTH 211 0
DWIDTH 7 0
BBX 6 22 0 -5
BITMAP
00AEB0
03FFF4
01FFF2
002630
000000
000000
000000
000000
000000
000000
000000
000000
000000
005660
00CFF0
00CFF0
00DFE0
00EFC0
03FF80
09FF20
2FF800
07A000
ENDCHAR
STARTCHAR less
ENCODING 60
SWIDTH 508 0
DWIDTH 16 0
BBX 13 14 1 3
BITMAP
000000000005B0
0000000017DFE0
00000018EFFFE0
000029FFFFE930
003AFFFFC61000
4CFFFFA4000000
DFFD7100000000
DFFC6100000000
4BFFFE93000000
003AFFFFC61000
000029FFFFE930
00000018EFFFE0
0000000017DFE0
000000000005B0
ENDCHAR
STARTCHAR equal
ENCODING 61
SWIDTH 548 0
DWIDTH 18 0
BBX 14 10 2 6
BITMAP
9FFFFFFFFFFFF6
9FFFFFFFFFFFF6
58888888888883
00000000000000
00000000000000
00000000000000
00000000000000
9FFFFFFFFFFFF6
9FFFFFFFFFFFF6
58888888888883
ENDCHAR
STARTCHAR greater
ENCODING 62
SWIDTH 522 0
DWIDTH 17 0
BBX 14 14 2 3
BITMAP
B6000000000000
EFE81000000000
EFFFF930000000
28DFFFFB500000
0004AFFFFD6100
0000017DFFFE82
0000000039EFF7
000000004AFFF7
0000027DFFFE81
0005BFFFFD6100
28EFFFFB400000
EFFFF930000000
EFE81000000000
B6000000000000
ENDCHAR
STARTCHAR question
ENCODING 63
SWIDTH 472 0
DWIDTH 15 0
BBX 13 23 1 0
BITMAP
0006BEFEC71000
02CFFFFFFFD300
0CFFFA9AEFFD10
6FFD20002DFF60
AFF5000005FFB0
8AA1000002FFC0
0000000002FFC0
0000000005FF90
000000001DFF30
00000000BFFA00
0000000BFFD100
000000AFFD2000
000006FFD20000
00000EFF300000
00003FFB000000
00005FF8000000
00003773000000
00000000000000
00000000000000
00000230000000
00004FF9000000
00008FFC000000
00002DE6000000
ENDCHAR
STARTCHAR at
ENCODING 64
SWIDTH 897 0
DWIDTH 29 0
BBX 27 29 1 -7
BITMAP
00000000027BDEFEC95100000000
00000003AFFFFFFFFFFE70000000
0000007FFFA6321348CFFC200000
000009FFA20000000004DFD20000
00008FF60000000000001BFC0000
0004FF5000000000000001DF6000
000DF900000000000000004FE000
006FE10000029DFEA400000CF400
00DF7000003EFFFFFFA00006F900
03FF100003EFC302AFC00003FD00
08FC00000CFC00009FB00000FF00
0BF800005FF30000AF900000DF10
0EF50000BFB00000CF800000DF20
1FF30000FF700000DF600000DF20
2FF20003FF400000FF500000DF20
2FF20005FF200001FF300000FF00
2FF20006FF200003FF200003FC00
1FF30006FF300008FF100008F800
0FF50003FF80003FFF30002EF200
0CF80000DFF747EEEFA003DF8000
08FC00005FFFFFE37FFEDFFA0000
03FF200004CEEA2006CEEB500000
00CFA00000000000000000000000
005FF50000000000000000000000
000AFE3000000000000000000000
0001CFF700000000000000000000
00001BFFD83100137D7000000000
0000006DFFFFFFFFFF9000000000
0000000049CEFFEB830000000000
ENDCHAR
STARTCHAR A
ENCODING 65
SWIDTH 652 0
DWIDTH 21 0
BBX 21 23 0 0
BITMAP
000000001FFE0000000000
000000007FFF5000000000
00000000CFFFA000000000
00000003FFFFF100000000
00000009FF7FF700000000
0000000EFC0DFC00000000
0000005FF608FF30000000
000000BFE102FF90000000
000001FFA000CFE0000000
000007FF40006FF5000000
00000DFD00001EFB000000
00003FF800000AFF200000
00009FF2000004FF700000
0001EFC0000000DFD00000
0005FFFFFFFFFFFFF40000
000BFFFFFFFFFFFFF90000
002FFC777777777DFE1000
007FF50000000007FF6000
00DFE10000000002FFB000
04FFA00000000000CFF200
09FF5000000000007FF800
1EFF1000000000002FFD00
6FFA0000000000000CFF40
ENDCHAR
STARTCHAR B
ENCODING 66
SWIDTH 622 0
DWIDTH 20 0
BBX 17 23 2 0
BITMAP
5FFFFFFFFEB8200000
5FFFFFFFFFFFF70000
5FFC777779DFFF7000
5FFA00000008FFE100
5FFA00000000CFF500
5FFA000000008FF700
5FFA000000008FF700
5FFA00000000BFF500
5FFA00000004FFD000
5FFA0000028FFF4000
5FFFFFFFFFFFD40000
5FFFFFFFFFFFC40000
5FFC666667AFFF7000
5FFA00000002DFF500
5FFA000000004FFC00
5FFA000000000FFF10
5FFA000000000EFF20
5FFA000000001FFF10
5FFA000000006FFC00
5FFA00000004EFF700
5FFC777778BFFFC000
5FFFFFFFFFFFFB1000
5FFFFFFFFED9400000
ENDCHAR
STARTCHAR C
ENCODING 67
SWIDTH 650 0
DWIDTH 21 0
BBX 19 23 1 0
BITMAP
0000005ADFEDA6000000
00004DFFFFFFFFD30000
0005FFFEA88AEFFF4000
003FFF91000019FFE100
00CFF900000000BFF800
04FFD1000000003FFE00
09FF70000000000DFF30
0DFF3000000000079930
0FFF0000000000000000
2FFE0000000000000000
2FFD0000000000000000
2FFD0000000000000000
2FFD0000000000000000
1FFE0000000000000000
0FFF0000000000000000
0DFF3000000000068830
09FF70000000000DFF30
04FFD0000000003FFE00
00CFF800000000AFF800
003FFF80000008FFE100
0005FFFE977AEFFF4000
00004DFFFFFFFFD30000
0000016BDFEDA5000000
ENDCHAR
STARTCHAR D
ENCODING 68
SWIDTH 655 0
DWIDTH 21 0
BBX 18 23 2 0
BITMAP
5FFFFFFFDB71000000
5FFFFFFFFFFF800000
5FFC77789DFFFC1000
5FFA0000004DFFB000
5FFA00000001DFF700
5FFA000000003FFE10
5FFA000000000AFF60
5FFA0000000004FFA0
5FFA0000000001FFD0
5FFA0000000000EFF0
5FFA0000000000DFF1
5FFA0000000000DFF1
5FFA0000000000EFF1
5FFA0000000000FFF0
5FFA0000000001FFE0
5FFA0000000005FFB0
5FFA000000000AFF60
5FFA000000003FFE10
5FFA00000002DFF700
5FFA0000005EFFC000
5FFC77789DFFFC1000
5FFFFFFFFFFE800000
5FFFFFFFDB61000000
ENDCHAR
STARTCHAR E
ENCODING 69
SWIDTH 568 0
DWIDTH 18 0
BBX 16 23 2 0
BITMAP
5FFFFFFFFFFFFFE0
5FFFFFFFFFFFFFE0
5FFC777777777770
5FFA000000000000
5FFA000000000000
5FFA000000000000
5FFA000000000000
5FFA000000000000
5FFA000000000000
5FFA000000000000
5FFFFFFFFFFFF800
5FFFFFFFFFFFF800
5FFC777777777300
5FFA000000000000
5FFA000000000000
5FFA000000000000
5FFA000000000000
5FFA000000000000
5FFA000000000000
5FFA000000000000
5FFC777777777771
5FFFFFFFFFFFFFF1
5FFFFFFFFFFFFFF1
ENDCHAR
STARTCHAR F
ENCODING 70
SWIDTH 552 0
DWIDTH 18 0
BBX 15 23 2 0
BITMAP
5FFFFFFFFFFFFFB0
5FFFFFFFFFFFFFB0
5FFC777777777750
5FFA000000000000
5FFA000000000000
5FFA000000000000
5FFA000000000000
5FFA000000000000
5FFA000000000000
5FFA000000000000
5FFFFFFFFFFFF300
5FFFFFFFFFFFF300
5FFC777777777100
5FFA000000000000
5FFA000000000000
5FFA000000000000
5FFA000000000000
5FFA000000000000
5FFA000000000000
5FFA000000000000
5FFA000000000000
5FFA000000000000
5FFA000000000000
ENDCHAR
STARTCHAR G
ENCODING 71
SWIDTH 681 0
DWIDTH 22 0
BBX 19 23 1 0
BITMAP
0000016ADEFDB6100000
00005DFFFFFFFFE50000
0006FFFEA889EFFF6000
003FFF91000008FFF300
00CFF9000000008FFB00
04FFD1000000001EFF10
09FF80000000000AFF50
0CFF4000000000000000
0EFF1000000000000000
0FFF0000000000000000
1FFE0000000000000000
1FFE0000000000000000
1FFE000000CFFFFFFF70
1FFF000000CFFFFFFF70
0EFF20000057777BFF70
0CFF500000000008FF70
08FFA00000000008FF70
02FFF20000000008FF70
00AFFC1000000008FF70
001DFFC20000004DFF60
0003EFFFB8789DFFFB10
00002BFFFFFFFFFF8100
00000039CEFEDA620000
ENDCHAR
STARTCHAR H
ENCODING 72
SWIDTH 712 0
DWIDTH 23 0
BBX 19 23 2 0
BITMAP
5FFA00000000000DFF20
5FFA00000000000DFF20
5FFA00000000000DFF20
5FFA00000000000DFF20
5FFA00000000000DFF20
5FFA00000000000DFF20
5FFA00000000000DFF20
5FFA00000000000DFF20
5FFA00000000000DFF20
5FFA00000000000DFF20
5FFFFFFFFFFFFFFFFF20
5FFFFFFFFFFFFFFFFF20
5FFC77777777777EFF20
5FFA00000000000DFF20
5FFA00000000000DFF20
5FFA00000000000DFF20
5FFA00000000000DFF20
5FFA00000000000DFF20
5FFA00000000000DFF20
5FFA00000000000DFF20
5FFA00000000000DFF20
5FFA00000000000DFF20
5FFA00000000000DFF20
ENDCHAR
STARTCHAR I
ENCODING 73
SWIDTH 271 0
DWIDTH 9 0
BBX 4 23 2 0
BITMAP
2FFD
2FFD
2FFD
2FFD
2FFD
2FFD
2FFD
2FFD
2FFD
2FFD
2FFD
2FFD
2FFD
2FFD
2FFD
2FFD
2FFD
2FFD
2FFD
2FFD
2FFD
2FFD
2FFD
ENDCHAR
STARTCHAR J
ENCODING 74
SWIDTH 551 0
DWIDTH 18 0
BBX 16 23 0 0
BITMAP
000000000000CFF3
000000000000CFF3
000000000000CFF3
000000000000CFF3
000000000000CFF3
000000000000CFF3
000000000000CFF3
000000000000CFF3
000000000000CFF3
000000000000CFF3
000000000000CFF3
000000000000CFF3
000000000000CFF3
000000000000CFF3
000000000000CFF3
000000000000CFF3
199800000000DFF2
1FFE00000001FFF1
0DFF40000006FFC0
08FFD200004EFF60
01DFFFA77BFFFB00
002CFFFFFFFFB100
00005ADFFDA40000
ENDCHAR
STARTCHAR K
ENCODING 75
SWIDTH 626 0
DWIDTH 20 0
BBX 18 23 2 0
BITMAP
5FFA000000000AFFD1
5FFA000000009FFE20
5FFA00000007FFE300
5FFA0000005FFF5000
5FFA000004FFF60000
5FFA00003EFF800000
5FFA0002EFFA000000
5FFA001DFFB0000000
5FFA01CFFC10000000
5FFA0AFFD200000000
5FFA9FFFA000000000
5FFEFFFFF600000000
5FFFFF9FFF30000000
5FFFF50AFFD1000000
5FFF5001DFFA000000
5FFA00003FFF700000
5FFA000006FFF30000
5FFA000000AFFD1000
5FFA0000001DFFA000
5FFA00000003FFF700
5FFA000000006FFF30
5FFA000000000AFFD1
5FFA0000000001DFFA
ENDCHAR
STARTCHAR L
ENCODING 76
SWIDTH 538 0
DWIDTH 17 0
BBX 15 23 2 0
BITMAP
5FFA000000000000
5FFA000000000000
5FFA000000000000
5FFA000000000000
5FFA000000000000
5FFA000000000000
5FFA000000000000
5FFA000000000000
5FFA000000000000
5FFA000000000000
5FFA000000000000
5FFA000000000000
5FFA000000000000
5FFA000000000000
5FFA000000000000
5FFA000000000000
5FFA000000000000
5FFA000000000000
5FFA000000000000
5FFA000000000000
5FFC777777777730
5FFFFFFFFFFFFF70
5FFFFFFFFFFFFF70
ENDCHAR
STARTCHAR M
ENCODING 77
SWIDTH 873 0
DWIDTH 28 0
BBX 24 23 2 0
BITMAP
5FFFB00000000000000CFFF4
5FFFF20000000000003FFFF4
5FFFF80000000000009FFFF4
5FFFFD000000000001EFFFF4
5FFEFF400000000006FFEFF4
5FF9FFA0000000000CFF9FF4
5FF6CFF2000000003FFB8FF4
5FF76FF7000000009FF58FF4
5FF71EFD00000001EFD08FF4
5FF809FF40000006FF809FF4
5FF803FFA000000CFF209FF4
5FF800CFF100003FFB00AFF4
5FF9006FF700009FF500AFF4
5FF9001EFD0000EFD000BFF4
5FFA0009FF4005FF8000BFF4
5FFA0003FFA00BFF2000BFF4
5FFA0000CFF12FFA0000BFF4
5FFA00006FF78FF40000BFF4
5FFA00001EFDEFD00000BFF4
5FFA000009FFFF700000BFF4
5FFA000003FFFF200000BFF4
5FFA000000CFFA000000BFF4
5FFA0000006FF4000000BFF4
ENDCHAR
STARTCHAR N
ENCODING 78
SWIDTH 712 0
DWIDTH 23 0
BBX 19 23 2 0
BITMAP
5FFE10000000000DFF20
5FFF90000000000DFF20
5FFFF4000000000DFF20
5FFFFD100000000DFF20
5FFFFF800000000DFF20
5FFDFFF30000000DFF20
5FFA8FFC0000000DFF20
5FFA1DFF7000000DFF20
5FFA04FFF200000DFF20
5FFA009FFC00000DFF20
5FFA001EFF60000DFF20
5FFA0005FFE2000DFF20
5FFA0000AFFB000DFF20
5FFA00001EFF500DFF20
5FFA000006FFE10DFF20
5FFA000000BFFA0DFF20
5FFA0000002EFF5DFF20
5FFA00000007FFDEFF20
5FFA00000000CFFFFF20
5FFA000000003FFFFF20
5FFA0000000008FFFF20
5FFA0000000000DFFF20
5FFA00000000003FFF20
ENDCHAR
STARTCHAR O
ENCODING 79
SWIDTH 687 0
DWIDTH 22 0
BBX 20 23 1 0
BITMAP
0000005ADFFDA5000000
00003CFFFFFFFFD30000
0004EFFFC99CFFFF4000
002EFFB200002BFFE200
00AFFA00000000AFFB00
03FFE1000000001EFF30
08FF800000000008FF80
0CFF300000000003FFC0
0FFF000000000001FFE0
1FFE000000000000EFF1
2FFD000000000000DFF2
2FFC000000000000DFF2
2FFD000000000000DFF2
1FFE000000000000EFF1
0FFF000000000000FFF0
0CFF300000000003FFC0
08FF800000000008FF80
03FFE1000000001EFF30
00BFFA000000009FFB00
002EFFB200001AFFE200
0004EFFFB99BFFFF5000
00003CFFFFFFFFD40000
0000005ADFFDA5000000
ENDCHAR
STARTCHAR P
ENCODING 80
SWIDTH 630 0
DWIDTH 20 0
BBX 17 23 2 0
BITMAP
5FFFFFFFFFDB610000
5FFFFFFFFFFFFE4000
5FFC777778AEFFF500
5FFA00000001AFFE10
5FFA000000000CFF80
5FFA0000000004FFC0
5FFA0000000001FFE0
5FFA0000000000FFF0
5FFA0000000002FFD0
5FFA0000000006FFB0
5FFA000000002EFF60
5FFA00000027EFFC00
5FFFFFFFFFFFFFD200
5FFFFFFFFFFFE81000
5FFC77777653000000
5FFA00000000000000
5FFA00000000000000
5FFA00000000000000
5FFA00000000000000
5FFA00000000000000
5FFA00000000000000
5FFA00000000000000
5FFA00000000000000
ENDCHAR
STARTCHAR Q
ENCODING 81
SWIDTH 687 0
DWIDTH 22 0
BBX 19 27 1 -4
BITMAP
0000006BDFED94000000
00004DFFFFFFFFB20000
0006FFFFB9ACFFFE3000
003FFFA100003CFFD100
00CFF900000001CFF900
05FFD0000000002FFF10
0AFF60000000000AFF60
0EFF100000000005FFA0
2FFD000000000002FFD0
4FFC000000000001FFE0
4FFB000000000000FFF0
4FFB000000000000FFF0
4FFB000000000000FFF0
4FFC000000000001FFE0
2FFD000000000002FFD0
0EFF100000000005FFA0
0AFF60000000000AFF70
05FFD0000000002FFF10
00DFF900000000BFF900
003FFF9100002BFFE100
0006FFFFB99BFFFE3000
00004DFFFFFFFFF50000
0000006BDFFDDFFE6000
0000000000001BFFF900
000000000000008FFFB0
0000000000000005EE30
00000000000000002300
ENDCHAR
STARTCHAR R
ENCODING 82
SWIDTH 615 0
DWIDTH 20 0
BBX 18 23 2 0
BITMAP
6FFFFFFFFEC8300000
6FFFFFFFFFFFFA1000
6FFC777779DFFFB000
6FFA00000005FFF600
6FFA000000007FFC00
6FFA000000001FFF00
6FFA000000000EFF20
6FFA000000000EFF10
6FFA000000003FFE00
6FFA00000001CFF800
6FFA0000026DFFD100
6FFFFFFFFFFFFD2000
6FFFFFFFFFFE700000
6FFC77777EFF300000
6FFA000007FFA00000
6FFA000001EFF30000
6FFA0000007FFB0000
6FFA0000000DFF4000
6FFA00000006FFC000
6FFA00000000DFF600
6FFA000000006FFD00
6FFA000000000DFF70
6FFA0000000005FFE1
ENDCHAR
STARTCHAR S
ENCODING 83
SWIDTH 593 0
DWIDTH 19 0
BBX 17 23 1 0
BITMAP
000028CEFEC9300000
0008FFFFFFFFFA1000
00AFFFC988AFFFD100
05FFE5000002BFFB00
0CFF600000001DFF40
0FFF1000000007FF90
0FFF1000000004DD90
0CFF60000000000000
07FFF6000000000000
00BFFFD72000000000
0019FFFFFC83000000
00003BFFFFFFC40000
00000027CFFFFF8000
00000000017DFFF900
0000000000007FFF30
00000000000009FF90
AEE40000000004FFB0
9FF80000000004FFB0
4FFE1000000009FF80
0BFFD30000007FFF30
01CFFFC8779DFFF700
0018FFFFFFFFFE6000
000026BDEEDB710000
ENDCHAR
STARTCHAR T
ENCODING 84
SWIDTH 596 0
DWIDTH 19 0
BBX 19 23 0 0
BITMAP
4FFFFFFFFFFFFFFFFF50
4FFFFFFFFFFFFFFFFF50
27777777FFF777777730
00000000EFF100000000
00000000EFF100000000
00000000EFF100000000
00000000EFF100000000
00000000EFF100000000
00000000EFF100000000
00000000EFF100000000
00000000EFF100000000
00000000EFF100000000
00000000EFF100000000
00000000EFF100000000
00000000EFF100000000
00000000EFF100000000
00000000EFF100000000
00000000EFF100000000
00000000EFF100000000
00000000EFF100000000
00000000EFF100000000
00000000EFF100000000
00000000EFF100000000
ENDCHAR
STARTCHAR U
ENCODING 85
SWIDTH 648 0
DWIDTH 21 0
BBX 17 23 2 0
BITMAP
CFF20000000005FFA0
CFF20000000005FFA0
CFF20000000005FFA0
CFF20000000005FFA0
CFF20000000005FFA0
CFF20000000005FFA0
CFF20000000005FFA0
CFF20000000005FFA0
CFF20000000005FFA0
CFF20000000005FFA0
CFF20000000005FFA0
CFF20000000005FFA0
CFF20000000005FFA0
CFF20000000005FFA0
CFF20000000005FFA0
CFF30000000006FFA0
BFF40000000007FF80
8FF8000000000BFF60
4FFE100000003FFE10
0BFFC2000003DFF800
02DFFFB878CFFFB000
002BFFFFFFFFF90000
000049DEFEC8200000
ENDCHAR
STARTCHAR V
ENCODING 86
SWIDTH 636 0
DWIDTH 20 0
BBX 20 23 0 0
BITMAP
6FFD0000000000008FFC
1EFF300000000000DFF6
0AFF800000000003FFF1
04FFD00000000008FFA0
00EFF4000000000DFF50
008FF9000000003FFE00
003FFE000000008FF900
000CFF40000000DFF300
0007FF90000004FFC000
0001FFE0000009FF7000
0000BFF400000EFF2000
00005FF900004FFB0000
00001EFE00009FF60000
000009FF5000EFE10000
000004FFA004FFA00000
000000DFE10AFF400000
0000008FF51EFD000000
0000002FFA5FF8000000
0000000CFEBFF2000000
00000006FFFFC0000000
00000001FFFF60000000
00000000AFFF10000000
000000005FFA00000000
ENDCHAR
STARTCHAR W
ENCODING 87
SWIDTH 887 0
DWIDTH 28 0
BBX 27 23 1 0
BITMAP
EFF100000001FFC000000006FF90
AFF400000004FFF10000000AFF50
7FF800000009FFF50000000DFF20
3FFB0000000DFFF90000001FFD00
0EFE0000002FFEFD0000005FF900
0BFF3000006FF9FF2000008FF600
07FF700000BFE3FF700000CFF200
04FFA00000EFA0DFB00000FFE000
01FFD00004FF609FE00003FFA000
00CFF20008FF205FF40007FF6000
008FF5000CFC001FF8000AFF3000
004FF9002FF8000BFC000DFE0000
001FFC006FF30007FF102FFB0000
000CFF10AFE00003FF505FF70000
0009FF40EFA00000EF909FF30000
0005FF73FF500000AFD0CFE00000
0002FFA7FF1000006FF2EFB00000
0000DFCBFC0000001FF7FF800000
00009FEEF70000000CFDFF400000
00006FFFF300000008FFFF100000
00002FFFE000000004FFFC000000
00000EFF9000000000EFF8000000
00000AFF5000000000AFF5000000
ENDCHAR
STARTCHAR X
ENCODING 88
SWIDTH 626 0
DWIDTH 20 0
BBX 19 23 1 0
BITMAP
9FFD0000000000CFFB00
1EFF8000000006FFE200
05FFF20000001EFF7000
00BFFB000000AFFC0000
002EFF600004FFF30000
0007FFE1000DFF900000
0000CFF9008FFD100000
00003FFF42FFF5000000
000009FFDBFFA0000000
000001DFFFFE20000000
0000005FFFF600000000
0000000DFFF100000000
0000006FFFF800000000
000002EFFFFF30000000
00000BFFBAFFC0000000
00005FFF21EFF7000000
0001EFF8006FFE200000
0009FFD0000CFFB00000
004FFF400003FFF50000
00DFF90000008FFE1000
08FFE10000001DFF9000
3FFF6000000004FFF400
CFFB0000000000AFFD10
ENDCHAR
STARTCHAR Y
ENCODING 89
SWIDTH 600 0
DWIDTH 19 0
BBX 19 23 0 0
BITMAP
7FFD00000000000BFFA0
1EFF70000000004FFF20
06FFE100000000CFF800
00DFF700000004FFE100
005FFE1000000CFF7000
000CFF7000005FFD1000
0003FFE10000CFF60000
0000AFF80005FFC00000
00002FFE100DFF400000
000009FF806FFB000000
000001EFE2DFF3000000
0000008FFDFFA0000000
0000001EFFFF20000000
00000006FFF900000000
00000000EFF200000000
00000000EFF100000000
00000000EFF100000000
00000000EFF100000000
00000000EFF100000000
00000000EFF100000000
00000000EFF100000000
00000000EFF100000000
00000000EFF100000000
ENDCHAR
STARTCHAR Z
ENCODING 90
SWIDTH 598 0
DWIDTH 19 0
BBX 17 23 1 0
BITMAP
7FFFFFFFFFFFFFFF60
7FFFFFFFFFFFFFFF60
377777777777AFFF30
000000000001DFF800
000000000009FFC000
00000000004FFF3000
0000000001DFF70000
0000000009FFC00000
000000005FFE200000
00000001EFF6000000
0000000AFFB0000000
0000005FFE20000000
000001EFF600000000
00000BFFA000000000
00006FFE1000000000
0002EFF50000000000
000BFFA00000000000
007FFD100000000000
02FFF4000000000000
0CFF90000000000000
7FFF87777777777760
AFFFFFFFFFFFFFFFE0
AFFFFFFFFFFFFFFFE0
ENDCHAR
STARTCHAR bracketleft
ENCODING 91
SWIDTH 265 0
DWIDTH 8 0
BBX 7 31 2 -5
BITMAP
BFFFFF30
BFFFFF30
BFF76610
BFF30000
BFF30000
BFF30000
BFF30000
BFF30000
BFF30000
BFF30000
BFF30000
BFF30000
BFF30000
BFF30000
BFF30000
BFF30000
BFF30000
BFF30000
BFF30000
BFF30000
BFF30000
BFF30000
BFF30000
BFF30000
BFF30000
BFF30000
BFF30000
BFF30000
BFF76610
BFFFFF30
BFFFFF30
ENDCHAR
STARTCHAR backslash
ENCODING 92
SWIDTH 410 0
DWIDTH 13 0
BBX 13 25 0 -2
BITMAP
3FF80000000000
0CFE0000000000
06FF5000000000
01FFB000000000
00AFF100000000
004FF700000000
000DFD00000000
0008FF30000000
0002FF90000000
0000CFE1000000
00006FF5000000
00001EFB000000
000009FF200000
000004FF800000
000000DFD00000
0000007FF40000
0000002FFA0000
0000000BFE1000
00000005FF6000
00000000EFC000
000000009FF200
000000003FF800
000000000CFE00
0000000007FF50
0000000001FFA0
ENDCHAR
STARTCHAR bracketright
ENCODING 93
SWIDTH 265 0
DWIDTH 8 0
BBX 7 31 0 -5
BITMAP
DFFFFF10
DFFFFF10
566EFF10
000DFF10
000DFF10
000DFF10
000DFF10
000DFF10
000DFF10
000DFF10
000DFF10
000DFF10
000DFF10
000DFF10
000DFF10
000DFF10
000DFF10
000DFF10
000DFF10
000DFF10
000DFF10
000DFF10
000DFF10
000DFF10
000DFF10
000DFF10
000DFF10
000DFF10
566EFF10
DFFFFF10
DFFFFF10
ENDCHAR
STARTCHAR asciicircum
ENCODING 94
SWIDTH 417 0
DWIDTH 13 0
BBX 12 11 1 12
BITMAP
00008FD00000
0001EFF40000
0006FFFB0000
000CFFFF2000
004FF7FF8000
00AFE0AFE100
02FF804FF600
08FF200CFC00
0EFB0006FF40
5FF50001EFA0
CFD000009FF2
ENDCHAR
STARTCHAR underscore
ENCODING 95
SWIDTH 451 0
DWIDTH 14 0
BBX 15 3 0 -3
BITMAP
EFFFFFFFFFFFFF60
EFFFFFFFFFFFFF60
5555555555555520
ENDCHAR
STARTCHAR grave
ENCODING 96
SWIDTH 309 0
DWIDTH 10 0
BBX 7 5 1 19
BITMAP
BFFB0000
1DFF6000
02EFE200
004FFB00
0007DA20
ENDCHAR
STARTCHAR a
ENCODING 97
SWIDTH 543 0
DWIDTH 17 0
BBX 15 17 1 0
BITMAP
00005ADFEC820000
002CFFFFFFFF5000
01DFFD757CFFF300
09FF9000009FFB00
0DFF1000001FFE00
00000000000DFF10
00000000000CFF10
00017BDEFFFFFF10
006EFFFFFFFFFF10
06FFE842111DFF10
0EFE2000000CFF10
3FFA0000000CFF10
4FFB0000002EFF10
2FFF400004DFFF10
0AFFFB89CFFFFF20
01CFFFFFFF9BFF50
0006BEFDA308FF90
ENDCHAR
STARTCHAR b
ENCODING 98
SWIDTH 561 0
DWIDTH 18 0
BBX 15 24 2 0
BITMAP
CFF1000000000000
CFF1000000000000
CFF1000000000000
CFF1000000000000
CFF1000000000000
CFF1000000000000
CFF1000000000000
CFF129DEEC710000
CFF6EFFFFFFD2000
CFFFFC87AFFFD000
CFFE500002DFF700
CFF60000004FFD00
CFF10000000CFF30
CFF100000008FF50
CFF100000007FF70
CFF100000006FF70
CFF100000007FF70
CFF100000009FF50
CFF10000000CFF30
CFF60000004FFD00
CFFE500002DFF700
CFFFFC87AFFFC000
CFE5EFFFFFFD2000
CFD029DEEC700000
ENDCHAR
STARTCHAR c
ENCODING 99
SWIDTH 523 0
DWIDTH 17 0
BBX 15 17 1 0
BITMAP
00004ADFED820000
0009FFFFFFFF6000
00AFFE966AFFF600
06FFD200005FFE10
0DFF30000008FF60
3FFB00000003FF90
6FF7000000002210
7FF6000000000000
8FF5000000000000
8FF5000000000000
6FF7000000000000
3FFB00000001AA60
0DFF20000006FF70
06FFC100003EFE10
00BFFE967AFFF500
000AFFFFFFFE5000
000049DEEC710000
ENDCHAR
STARTCHAR d
ENCODING 100
SWIDTH 563 0
DWIDTH 18 0
BBX 15 24 1 0
BITMAP
000000000002FFB0
000000000002FFB0
000000000002FFB0
000000000002FFB0
000000000002FFB0
000000000002FFB0
000000000002FFB0
00006CEFD922FFB0
001CFFFFFFF8FFB0
00CFFFA78BFFFFB0
06FFE300004EFFB0
0DFF40000005FFB0
3FFD00000002FFB0
6FF900000002FFB0
7FF700000002FFB0
8FF600000002FFB0
7FF600000002FFB0
5FF800000002FFB0
2FFC00000002FFB0
0DFF40000006FFB0
06FFE300004EFFB0
00BFFFA78BFFFFB0
001CFFFFFFF6FFB0
00006CEFD920EFB0
ENDCHAR
STARTCHAR e
ENCODING 101
SWIDTH 529 0
DWIDTH 17 0
BBX 15 17 1 0
BITMAP
000029DFEC820000
0006FFFFFFFE5000
007FFF967BFFF300
03FFE200006FFC00
0BFF5000000BFF40
1FFC00000005FF80
5FF900000002FFA0
7FFFFFFFFFFFFFB0
8FFFFFFFFFFFFFC0
8FF9666666666640
6FF7000000000000
3FFB000000000000
0DFF400000003100
06FFE4000005ED30
00AFFFB767CFFD20
0008FFFFFFFFC200
000029CEFDA50000
ENDCHAR
STARTCHAR f
ENCODING 102
SWIDTH 347 0
DWIDTH 11 0
BBX 12 24 0 0
BITMAP
0000017CEFD1
00002DFFFFF1
0000BFFE9780
0002FFE20000
0005FFA00000
0006FF800000
0006FF800000
1FFFFFFFFF20
1FFFFFFFFF20
0448FF944400
0006FF800000
0006FF800000
0006FF800000
0006FF800000
0006FF800000
0006FF800000
0006FF800000
0006FF800000
0006FF800000
0006FF800000
0006FF800000
0006FF800000
0006FF800000
0006FF800000
ENDCHAR
STARTCHAR g
ENCODING 103
SWIDTH 561 0
DWIDTH 18 0
BBX 15 24 1 -7
BITMAP
00006CEFD920DFC0
001CFFFFFFF6EFC0
00CFFFA78BFFFFC0
07FFE300004EFFC0
0DFF50000005FFC0
3FFD00000002FFC0
5FF900000002FFC0
7FF700000002FFC0
7FF600000002FFC0
7FF700000002FFC0
5FF900000002FFC0
2FFD00000002FFC0
0CFF40000006FFC0
06FFE300004EFFC0
00BFFFA78BFFFFC0
001CFFFFFFF8FFC0
00006CEFD922FFC0
000000000003FFB0
000000000006FF90
00A60000000BFF50
06FF6000008FFE10
02EFFC767CFFF500
002CFFFFFFFE5000
00005ADFEC810000
ENDCHAR
STARTCHAR h
ENCODING 104
SWIDTH 550 0
DWIDTH 18 0
BBX 14 24 2 0
BITMAP
CFF10000000000
CFF10000000000
CFF10000000000
CFF10000000000
CFF10000000000
CFF10000000000
CFF10000000000
CFF117CEFD8100
CFF4DFFFFFFE20
CFFEFC88AFFFB0
CFFF600003FFF2
CFF7000000AFF5
CFF10000007FF7
CFF10000006FF7
CFF10000006FF7
CFF10000006FF7
CFF10000006FF7
CFF10000006FF7
CFF10000006FF7
CFF10000006FF7
CFF10000006FF7
CFF10000006FF7
CFF10000006FF7
CFF10000006FF7
ENDCHAR
STARTCHAR i
ENCODING 105
SWIDTH 242 0
DWIDTH 8 0
BBX 4 24 2 0
BITMAP
0430
8FF5
BFF9
5ED3
0000
0000
0000
8FF5
8FF5
8FF5
8FF5
8FF5
8FF5
8FF5
8FF5
8FF5
8FF5
8FF5
8FF5
8FF5
8FF5
8FF5
8FF5
8FF5
ENDCHAR
STARTCHAR j
ENCODING 106
SWIDTH 238 0
DWIDTH 8 0
BBX 7 31 -1 -7
BITMAP
00014200
000BFF20
000FFF50
0008EC10
00000000
00000000
00000000
000BFF30
000BFF30
000BFF30
000BFF30
000BFF30
000BFF30
000BFF30
000BFF30
000BFF30
000BFF30
000BFF30
000BFF30
000BFF30
000BFF30
000BFF30
000BFF30
000BFF30
000BFF30
000BFF30
000BFF20
001EFF10
88CFFC00
FFFFF400
DFEB4000
ENDCHAR
STARTCHAR k
ENCODING 107
SWIDTH 506 0
DWIDTH 16 0
BBX 14 24 2 0
BITMAP
CFF10000000000
CFF10000000000
CFF10000000000
CFF10000000000
CFF10000000000
CFF10000000000
CFF10000000000
CFF1000008FFD1
CFF100008FFE20
CFF10007FFE300
CFF1006FFE3000
CFF105FFF40000
CFF14FFF500000
CFF4EFF6000000
CFFEFFF3000000
CFFFFFFD100000
CFFF8CFF900000
CFF902EFF50000
CFF1005FFE2000
CFF10009FFC000
CFF10000CFF900
CFF100002EFF50
CFF1000005FFE2
CFF10000009FFC
ENDCHAR
STARTCHAR l
ENCODING 108
SWIDTH 242 0
DWIDTH 8 0
BBX 4 24 2 0
BITMAP
8FF5
8FF5
8FF5
8FF5
8FF5
8FF5
8FF5
8FF5
8FF5
8FF5
8FF5
8FF5
8FF5
8FF5
8FF5
8FF5
8FF5
8FF5
8FF5
8FF5
8FF5
8FF5
8FF5
8FF5
ENDCHAR
STARTCHAR m
ENCODING 109
SWIDTH 876 0
DWIDTH 28 0
BBX 24 17 2 0
BITMAP
CFE028DEEC810016CEFDA300
CFE5EFFFFFFD12DFFFFFFF60
CFFFFA88BFFFBDFD978DFFF2
CFFD200005FFFFA10000CFF8
CFF4000000BFFD1000004FFB
CFF10000008FF90000001FFD
CFF10000007FF70000000FFD
CFF10000007FF70000000FFD
CFF10000007FF70000000FFD
CFF10000007FF70000000FFD
CFF10000007FF70000000FFD
CFF10000007FF70000000FFD
CFF10000007FF70000000FFD
CFF10000007FF70000000FFD
CFF10000007FF70000000FFD
CFF10000007FF70000000FFD
CFF10000007FF70000000FFD
ENDCHAR
STARTCHAR n
ENCODING 110
SWIDTH 551 0
DWIDTH 18 0
BBX 14 17 2 0
BITMAP
CFE017CEFD8100
CFF3DFFFFFFE20
CFFEFC88AFFFB0
CFFF600003FFF2
CFF7000000AFF5
CFF10000007FF7
CFF10000006FF7
CFF10000006FF7
CFF10000006FF7
CFF10000006FF7
CFF10000006FF7
CFF10000006FF7
CFF10000006FF7
CFF10000006FF7
CFF10000006FF7
CFF10000006FF7
CFF10000006FF7
ENDCHAR
STARTCHAR o
ENCODING 111
SWIDTH 570 0
DWIDTH 18 0
BBX 16 17 1 0
BITMAP
000029DEED940000
0007FFFFFFFFA100
008FFFA769EFFB00
04FFE400002DFF80
0CFF50000002EFE1
2FFD000000009FF6
6FF8000000004FF9
7FF6000000002FFB
8FF5000000001FFC
8FF6000000002FFB
6FF8000000005FF9
3FFC000000009FF6
0CFF40000002EFF1
05FFE300001CFF80
009FFFA669EFFC00
0008FFFFFFFFA100
000029DEFDA40000
ENDCHAR
STARTCHAR p
ENCODING 112
SWIDTH 561 0
DWIDTH 18 0
BBX 15 24 2 -7
BITMAP
CFD029DEEC700000
CFE6FFFFFFFD2000
CFFFFB88BFFFC000
CFFE300004EFF700
CFF40000005FFD00
CFF10000000DFF20
CFF100000009FF50
CFF100000007FF60
CFF100000007FF70
CFF100000007FF60
CFF100000009FF50
CFF10000000DFF20
CFF30000005FFD00
CFFD200003EFF600
CFFFE9669FFFC000
CFF8FFFFFFFC1000
CFF139DFEC700000
CFF1000000000000
CFF1000000000000
CFF1000000000000
CFF1000000000000
CFF1000000000000
CFF1000000000000
CFF1000000000000
ENDCHAR
STARTCHAR q
ENCODING 113
SWIDTH 568 0
DWIDTH 18 0
BBX 15 24 1 -7
BITMAP
00006CEFD930EFB0
001CFFFFFFF7FFB0
00CFFF967AFFFFB0
07FFE300003DFFB0
0DFF40000004FFB0
3FFD00000002FFB0
6FF900000002FFB0
7FF700000002FFB0
8FF600000002FFB0
7FF600000002FFB0
5FF800000002FFB0
3FFC00000002FFB0
0DFF40000004FFB0
07FFD200003DFFB0
00CFFE966AFFFFB0
001CFFFFFFF9FFB0
00006CEFD932FFB0
000000000002FFB0
000000000002FFB0
000000000002FFB0
000000000002FFB0
000000000002FFB0
000000000002FFB0
000000000002FFB0
ENDCHAR
STARTCHAR r
ENCODING 114
SWIDTH 338 0
DWIDTH 11 0
BBX 9 17 2 0
BITMAP
CFF04BEE40
CFF6FFFF50
CFFFFFDD50
CFFF710000
CFF7000000
CFF1000000
CFF1000000
CFF1000000
CFF1000000
CFF1000000
CFF1000000
CFF1000000
CFF1000000
CFF1000000
CFF1000000
CFF1000000
CFF1000000
ENDCHAR
STARTCHAR s
ENCODING 115
SWIDTH 515 0
DWIDTH 17 0
BBX 14 17 1 0
BITMAP
00018CEFEB6000
005EFFFFFFFC20
03FFFB769EFFD0
0BFF700001DFF6
0EFF0000004FFA
0DFF3000001443
08FFE720000000
00BFFFFDA61000
0005CFFFFFE810
00000259DFFFD1
0000000003DFF8
48830000003FFD
5FFA0000001FFD
1EFF5000007FFA
06FFFB767CFFF3
006EFFFFFFFE50
00028CEFEC7100
ENDCHAR
STARTCHAR t
ENCODING 116
SWIDTH 326 0
DWIDTH 10 0
BBX 10 21 0 0
BITMAP
000CFF2000
000CFF2000
000CFF2000
000CFF2000
DFFFFFFFF4
DFFFFFFFF4
344DFF5441
000CFF2000
000CFF2000
000CFF2000
000CFF2000
000CFF2000
000CFF2000
000CFF2000
000CFF2000
000CFF2000
000CFF2000
000AFF4000
0007FFE883
0001EFFFF5
00003BEFD4
ENDCHAR
STARTCHAR u
ENCODING 117
SWIDTH 551 0
DWIDTH 18 0
BBX 14 17 2 0
BITMAP
DFF00000007FF7
DFF00000007FF7
DFF00000007FF7
DFF00000007FF7
DFF00000007FF7
DFF00000007FF7
DFF00000007FF7
DFF00000007FF7
DFF00000007FF7
DFF00000007FF7
DFF00000007FF7
DFF20000007FF7
BFF4000000BFF7
7FFC100008FFF7
2FFFD879EFFFF7
06FFFFFFFE9FF7
003AEFEC715FF7
ENDCHAR
STARTCHAR v
ENCODING 118
SWIDTH 484 0
DWIDTH 16 0
BBX 15 17 0 0
BITMAP
5FFA00000003FFB0
0EFE00000008FF60
09FF4000000DFE10
03FF9000003FFA00
00DFE000007FF400
008FF40000CFE000
002FF90002FF9000
000CFE0007FF3000
0006FF400CFD0000
0001FF901FF80000
0000BFE06FF20000
00005FF4BFC00000
00001EFAFF700000
000009FFFF100000
000004FFFB000000
000000DFF6000000
0000008FF1000000
ENDCHAR
STARTCHAR w
ENCODING 119
SWIDTH 751 0
DWIDTH 24 0
BBX 24 17 0 0
BITMAP
3FFA0000005FF4000000BFF2
0DFE000000AFF9000000EFD0
09FF300000EFFE000003FF90
05FF700004FFFF300007FF40
01FFB00009FCEF80000BFE00
00BFE0000DF7AFD0000EFB00
007FF4003FF35FF2003FF600
002FF8008FD01EF7007FF200
000DFC00CF800AFB00BFD000
0009FF12FF4005FF10EF8000
0005FF47FE0001FF63FF4000
0001FF8BF90000BFA7FE0000
0000BFDFF500006FEBFA0000
00007FFFE100001FFFF60000
00002FFFA000000CFFF20000
00000DFF60000007FFC00000
000009FF10000002FF800000
ENDCHAR
STARTCHAR x
ENCODING 120
SWIDTH 495 0
DWIDTH 16 0
BBX 15 17 0 0
BITMAP
0DFF7000000AFFA0
03FFE100004FFE10
008FFA0001DFF500
001DFF4008FFA000
0004FFC02FFE1000
00009FF7BFF50000
00001DFFFFB00000
000004FFFE200000
000000CFF9000000
000006FFFF300000
00002EFEFFC00000
0000BFF69FF80000
0006FFB01DFF3000
002EFF3005FFC000
00BFF80000BFF700
06FFD100002FFF30
1EFF50000007FFC0
ENDCHAR
STARTCHAR y
ENCODING 121
SWIDTH 473 0
DWIDTH 15 0
BBX 15 24 0 -7
BITMAP
7FFA00000007FF90
2FFE1000000CFF30
0BFF5000002FFD00
06FFA000006FF800
01FFE00000BFF300
00AFF50001FFD000
005FFA0005FF8000
000EFE000AFF2000
0009FF400EFC0000
0004FF904FF70000
0000DFE09FF20000
00008FF4DFC00000
00003FFCFF700000
00000CFFFF200000
000007FFFB000000
000002FFF6000000
000000BFF1000000
000000DFB0000000
000003FF60000000
000009FF10000000
00005FF900000000
069BFFE200000000
0AFFFF5000000000
08EEB30000000000
ENDCHAR
STARTCHAR z
ENCODING 122
SWIDTH 495 0
DWIDTH 16 0
BBX 14 17 1 0
BITMAP
7FFFFFFFFFFFF5
7FFFFFFFFFFFF5
366666666BFFE1
000000002EFF40
00000001DFF700
00000009FFB000
0000006FFE1000
000002EFF40000
00001CFF700000
00009FFB000000
0005FFE1000000
002EFF40000000
00CFF800000000
09FFB000000000
5FFF7555555554
9FFFFFFFFFFFFC
9FFFFFFFFFFFFC
ENDCHAR
STARTCHAR braceleft
ENCODING 123
SWIDTH 338 0
DWIDTH 11 0
BBX 10 31 1 -6
BITMAP
00000018D1
000004EFF5
00004FFE40
0000DFF300
0004FFA000
0008FF6000
000AFF4000
000AFF3000
000AFF3000
000AFF3000
000BFF3000
000DFF1000
003FFC0000
15DFF50000
FFFF700000
FFFD300000
59FFE20000
006FFA0000
000EFE0000
000CFF2000
000AFF3000
000AFF3000
000AFF3000
000AFF3000
0009FF4000
0007FF6000
0003FFB000
0000CFF400
00003EFE50
000003DFF5
00000017D1
ENDCHAR
STARTCHAR bar
ENCODING 124
SWIDTH 243 0
DWIDTH 8 0
BBX 4 27 2 -4
BITMAP
4FF1
4FF1
4FF1
4FF1
4FF1
4FF1
4FF1
4FF1
4FF1
4FF1
4FF1
4FF1
4FF1
4FF1
4FF1
4FF1
4FF1
4FF1
4FF1
4FF1
4FF1
4FF1
4FF1
4FF1
4FF1
4FF1
4FF1
ENDCHAR
STARTCHAR braceright
ENCODING 125
SWIDTH 338 0
DWIDTH 11 0
BBX 10 31 0 -6
BITMAP
4C60000000
8FFC200000
06FFE20000
006FFA0000
000DFF1000
0009FF5000
0007FF6000
0006FF7000
0006FF7000
0006FF7000
0006FF7000
0004FF9000
0001EFE100
00008FFC31
000008FFFC
000004EFFC
00004FFE84
0000DFF300
0003FFB000
0005FF8000
0006FF7000
0006FF7000
0006FF7000
0006FF7000
0008FF6000
000AFF4000
001EFE1000
008FF90000
18FFD10000
8FFC100000
4C50000000
ENDCHAR
STARTCHAR asciitilde
ENCODING 126
SWIDTH 680 0
DWIDTH 22 0
BBX 18 7 2 6
BITMAP
003BEEB50000000696
05FFFFFFB100000CFA
2EFFA9EFFC10002FF6
8FF4001BFFD503DFE1
CFC00000AFFFFFFF70
EF90000007EFFFF700
000000000016872000
ENDCHAR
STARTCHAR uni00A0
ENCODING 160
SWIDTH 247 0
DWIDTH 8 0
BBX 1 1 0 0
BITMAP
00
ENDCHAR
STARTCHAR exclamdown
ENCODING 161
SWIDTH 243 0
DWIDTH 8 0
BBX 4 23 2 -6
BITMAP
5ED3
CFF8
8FF5
0430
0000
0000
2772
5FF4
6FF5
6FF5
6FF5
6FF5
6FF5
6FF5
7FF6
7FF6
7FF6
7FF6
7FF6
8FF7
8FF7
8FF7
8FF7
ENDCHAR
STARTCHAR cent
ENCODING 162
SWIDTH 546 0
DWIDTH 18 0
BBX 15 25 1 -4
BITMAP
0000003773000000
0000007FF7000000
0000007FF7000000
0000007FF7000000
00003AEFFEB50000
0008FFFFFFFFA100
008FFE9548EFFA00
03FFE200002DFF40
0BFF50000004FFA0
1FFE00000000EFC0
3FFA000000000000
5FF9000000000000
5FF8000000000000
5FF9000000000000
3FFA000000000000
1FFD000000007860
0BFF40000002FFB0
04FFD200001BFF50
009FFE8447EFFA00
0009FFFFFFFFA100
00004BEFFFB50000
0000007FF7000000
0000007FF7000000
0000007FF7000000
0000004AA4000000
ENDCHAR
STARTCHAR sterling
ENCODING 163
SWIDTH 581 0
DWIDTH 19 0
BBX 17 23 1 0
BITMAP
0000005ADFEC810000
00001BFFFFFFFE4000
0000CFFE98AEFFE200
0007FFD20001CFFA00
000DFF5000002FFE00
001FFE0000000EFF20
003FFC000000011100
003FFC000000000000
002FFD000000000000
002FFD000000000000
001FFE000000000000
9FFFFFFFFFE0000000
9FFFFFFFFFE0000000
477FFF777760000000
000EFF100000000000
000EFF100000000000
000DFF200000000000
000EFF100000000000
001FFE000000000000
006FFA000000000000
37EFF9777777777740
8FFFFFFFFFFFFFFF90
8FFFFFFFFFFFFFFF90
ENDCHAR
STARTCHAR currency
ENCODING 164
SWIDTH 712 0
DWIDTH 23 0
BBX 21 21 1 0
BITMAP
0030000000000000003000
04F90017BEFEB71009F500
2EFF97EFFFFFFFE68FFF30
09FFFFFFFCBDFFFFFFF900
009FFFF8100028FFFFA000
004FFE400000004EFF4000
00CFF50000000006FFC000
03FFA00000000000BFF300
08FF4000000000006FF700
0BFF1000000000001FFA00
0CFE0000000000000FFB00
0CFE0000000000000FFB00
0BFF1000000000002FFA00
08FF5000000000006FF700
03FFB00000000000CFF300
00CFF50000000006FFC000
005FFE400000004EFF5000
02DFFFF8100018FFFFD200
1DFFFFFFFCBCFFFFFFFD20
1CFE47EFFFFFFFE63EFC10
01C40017BEFEB71004C100
ENDCHAR
STARTCHAR yen
ENCODING 165
SWIDTH 524 0
DWIDTH 17 0
BBX 17 23 0 0
BITMAP
8FFD000000001EFF50
1EFF400000007FFC00
07FFB0000000DFF400
01EFF3000006FFB000
006FFA00000CFF3000
000DFF20004FFA0000
0006FF9000BFF30000
0000DFF103FFA00000
00005FF80AFF200000
00000CFE3FF9000000
000004FFDFF2000000
02FFFFFFFFFFFFE000
02EEEEEFFFEEEED000
0000003FFD00000000
0000003FFD00000000
0000003FFD00000000
02FFFFFFFFFFFFE000
02EEEEEFFFEEEED000
0000003FFD00000000
0000003FFD00000000
0000003FFD00000000
0000003FFD00000000
0000003FFD00000000
ENDCHAR
STARTCHAR brokenbar
ENCODING 166
SWIDTH 239 0
DWIDTH 8 0
BBX 4 27 2 -4
BITMAP
BFF3
BFF3
BFF3
BFF3
BFF3
BFF3
BFF3
BFF3
BFF3
BFF3
BFF3
BFF3
0000
0000
0000
BFF3
BFF3
BFF3
BFF3
BFF3
BFF3
BFF3
BFF3
BFF3
BFF3
BFF3
BFF3
ENDCHAR
STARTCHAR section
ENCODING 167
SWIDTH 613 0
DWIDTH 20 0
BBX 17 31 1 -8
BITMAP
000028BEFEDA600000
0008FFFFFFFFFD3000
00AFFFB8669EFFE300
04FFE3000001BFFC00
0AFF600000001EFF30
0CFF2000000008FF60
0BFF3000000004BB50
08FFA0000000000000
03FFFB300000000000
006FFFFD8300000000
004EFFFFFFE9300000
05FFFABFFFFFFC3000
1EFE30016BFFFFF500
5FF900000017EFFF20
7FF7000000001CFF90
6FF80000000003FFC0
3FFE2000000001FFD0
0BFFE810000003FFB0
01DFFFFB72001CFF60
0019FFFFFFD9EFFA00
000028DFFFFFFF7000
000000027CFFFFB000
00000000003AFFF800
0000000000006FFE00
6BB4000000000DFF20
7FF7000000000BFF20
4FFD100000001EFF10
0CFFB1000001BFFA00
03EFFEA767AFFFE200
003CFFFFFFFFFC3000
000049CEFEDA500000
ENDCHAR
STARTCHAR dieresis
ENCODING 168
SWIDTH 417 0
DWIDTH 13 0
BBX 11 4 1 20
BITMAP
024000003300
3FFB0006FF60
6FFE000AFFA0
1CE70004EE40
ENDCHAR
STARTCHAR copyright
ENCODING 169
SWIDTH 785 0
DWIDTH 25 0
BBX 23 23 1 0
BITMAP
000000038CEFEC9300000000
000003BFFFEDEFFFC3000000
00007FFC6200026CFF700000
0007FF60000000006FF80000
005FE3000000000003EF5000
01EF50004BEFEA40004FE100
07F90008FFFFFFF60009F700
0DE1004FF9313BFF1001ED00
3FA000BFB00001EF6000AF30
6F6000FF5000007940006F60
8F4001FF3000000000004F80
8F3001FF2000000000003F90
8F4001FF3000000000004F80
6F6000FF5000008940006F60
3FA000BFB00001EF5000AF30
0DF1005FF9213BFF1001ED00
07F90008FFFFFFF60009F700
01DF50005BEFEA40004FE100
005FE3000000000003EF5000
0007FF60000000006FF70000
00006FFC6100016CFF600000
000003BFFFEDEFFFB3000000
000000039CEFEC9300000000
ENDCHAR
STARTCHAR ordfeminine
ENCODING 170
SWIDTH 446 0
DWIDTH 14 0
BBX 11 12 2 11
BITMAP
005BDFD91000
0AFFFFFFD100
4FFB438FF800
4AB1000DFB00
0000000BFC00
018CEFFFFC00
1DFFDCBEFC00
8FF5000BFC00
AFD0000BFC00
9FF734AFFD00
2EFFFFFEFE00
03AEFC65CC20
ENDCHAR
STARTCHAR guillemotleft
ENCODING 171
SWIDTH 469 0
DWIDTH 15 0
BBX 13 13 1 2
BITMAP
00003FE201EF40
0001DF700BFA00
0009FD007FE100
005FF403FF6000
02EF901DFC0000
0CFE109FF30000
5FF802FFA00000
0CFE10AFF20000
02EF901DFB0000
005FF303FF6000
0009FC007FE100
0001DF700BF900
00003FE201EF40
ENDCHAR
STARTCHAR logicalnot
ENCODING 172
SWIDTH 553 0
DWIDTH 18 0
BBX 13 7 2 6
BITMAP
FFFFFFFFFFFFF0
FFFFFFFFFFFFF0
8888888888FFF0
0000000000EFF0
0000000000EFF0
0000000000EFF0
0000000000EFF0
ENDCHAR
STARTCHAR uni00AD
ENCODING 173
SWIDTH 275 0
DWIDTH 9 0
BBX 9 3 0 8
BITMAP
6FFFFFFF30
6FFFFFFF30
2555555510
ENDCHAR
STARTCHAR registered
ENCODING 174
SWIDTH 786 0
DWIDTH 25 0
BBX 23 23 1 0
BITMAP
000000039CEFEC9300000000
000003CFFFEDEFFFB3000000
00007FFC6200026CFF700000
0008FF60000000006FF70000
005FE3000000000003EF5000
01EF400FFFFFEA40005FE100
08F8000FFFFFFFF70009F700
0EE1000FF30028FF1001FD00
3FA0000FF30000EF4000AF30
6F60000FF30000EF40006F60
8F40000FF3002AFD00004F80
9F30000FFFFFFFD300004F80
8F40000FFFFFFFE400004F80
6F60000FF30019FE00007F60
3FA0000FF30001FF3000AF30
0DE1000FF30000EF4001FD00
07F9000FF30000EF4009F700
01EF400FF30000DF705FD100
005FE3000000000003EF5000
0007FF60000000006FF70000
00006FFC6100016CFF600000
000003BFFFEDEFFFB3000000
000000039CEFEC9300000000
ENDCHAR
STARTCHAR macron
ENCODING 175
SWIDTH 458 0
DWIDTH 15 0
BBX 11 3 2 20
BITMAP
CFFFFFFFFFB0
CFFFFFFFFFB0
344444444430
ENDCHAR
STARTCHAR degree
ENCODING 176
SWIDTH 373 0
DWIDTH 12 0
BBX 8 8 2 15
BITMAP
02AEEA20
2EFFFFE2
AFB11AF9
EF1001FD
EF1001FD
AFA21AFA
2EFFFFE2
02AEEA20
ENDCHAR
STARTCHAR plusminus
ENCODING 177
SWIDTH 534 0
DWIDTH 17 0
BBX 15 20 1 0
BITMAP
0000003771000000
0000007FF2000000
0000007FF2000000
0000007FF2000000
0000007FF2000000
0000007FF2000000
0000007FF2000000
7FFFFFFFFFFFFFC0
7FFFFFFFFFFFFFC0
355555AFF7555540
0000007FF2000000
0000007FF2000000
0000007FF2000000
0000007FF2000000
0000007FF2000000
0000004881000000
0000000000000000
0566666666666610
0DFFFFFFFFFFFF20
0DFFFFFFFFFFFF20
ENDCHAR
STARTCHAR uni00B2
ENCODING 178
SWIDTH 366 0
DWIDTH 12 0
BBX 10 13 1 10
BITMAP
018DFEB400
2DFFFFFF50
9FE513CFE0
EF90005FF2
1110007FF1
000001DFB0
00001BFF30
0001BFF500
001BFF5000
01CFE40000
1CFD200000
AFFFFFFFFA
AFFFFFFFFA
ENDCHAR
STARTCHAR uni00B3
ENCODING 179
SWIDTH 366 0
DWIDTH 12 0
BBX 10 13 1 10
BITMAP
019DEDB500
2EFFFFFF80
AFE412BFF1
7850005FF2
000002BFC0
000DFFFA10
000ACEFE50
0000009FF1
0000002FF5
BB60002FF5
CFE412BFF2
4FFFFFFF70
029DFEB400
ENDCHAR
STARTCHAR acute
ENCODING 180
SWIDTH 313 0
DWIDTH 10 0
BBX 7 5 2 19
BITMAP
006FFE20
02EFF300
0BFF5000
6FF80000
9DA00000
ENDCHAR
STARTCHAR mu
ENCODING 181
SWIDTH 566 0
DWIDTH 18 0
BBX 14 24 2 -7
BITMAP
9FF40000003FFB
9FF40000003FFB
9FF40000003FFB
9FF40000003FFB
9FF40000003FFB
9FF40000003FFB
9FF40000003FFB
9FF40000003FFB
9FF40000003FFB
9FF40000003FFB
9FF50000003FFB
9FF70000003FFB
9FFA0000005FFB
9FFF300002DFFB
9FFFE8669EFFFB
9FFFFFFFFF7FFB
9FF69DFEB40AB8
9FF40000000000
9FF40000000000
9FF40000000000
9FF40000000000
9FF40000000000
9FF40000000000
9FF40000000000
ENDCHAR
STARTCHAR paragraph
ENCODING 182
SWIDTH 488 0
DWIDTH 16 0
BBX 12 23 1 0
BITMAP
00017BEFFFFF
004EFFFFFFFF
04FFFFFFFFFF
1EFFFFFFFFFF
7FFFFFFFFFFF
BFFFFFFFFFFF
DFFFFFFFFFFF
EFFFFFFFFFFF
DFFFFFFFFFFF
AFFFFFFFFFFF
6FFFFFFFFFFF
0DFFFFFFFFFF
03EFFFFFFFFF
002CFFFFFFFF
000038ABCFFF
000000000EFF
000000000EFF
000000000EFF
000000000EFF
000000000EFF
000000000EFF
000000000EFF
000000000EFF
ENDCHAR
STARTCHAR periodcentered
ENCODING 183
SWIDTH 260 0
DWIDTH 8 0
BBX 4 4 2 9
BITMAP
3DE5
AFFD
8FFA
0561
ENDCHAR
STARTCHAR cedilla
ENCODING 184
SWIDTH 247 0
DWIDTH 8 0
BBX 6 7 1 -7
BITMAP
0BF600
0EFFA0
037FF6
000AF9
001DF8
2BEFD1
2EC810
ENDCHAR
STARTCHAR uni00B9
ENCODING 185
SWIDTH 366 0
DWIDTH 12 0
BBX 7 13 1 10
BITMAP
00004AA0
039EFFB0
1FFFFFB0
1D84BFB0
0000BFB0
0000BFB0
0000BFB0
0000BFB0
0000BFB0
0000BFB0
0000BFB0
0000BFB0
0000BFB0
ENDCHAR
STARTCHAR ordmasculine
ENCODING 186
SWIDTH 454 0
DWIDTH 15 0
BBX 12 12 1 11
BITMAP
0005BEFD9200
009FFFFFFE30
05FFC548FFD0
0CFE10007FF5
0FF900001FF8
1FF700000EF9
1FF700000EF9
0FF900001FF8
0CFE10007FF5
05FFC537FFD0
009FFFFFFE30
0005BEFD9200
ENDCHAR
STARTCHAR guillemotright
ENCODING 187
SWIDTH 468 0
DWIDTH 15 0
BBX 13 13 1 2
BITMAP
2EF300AF900000
07FD101EF50000
00DF9006FE2000
004FF500CFC000
0009FE203FF800
0001EFC008FF40
00008FF501FFC0
0001EFC008FF40
0009FE203FF800
004FF500CFC000
00CF9006FE2000
07FD101EF50000
2EF300AF900000
ENDCHAR
STARTCHAR onequarter
ENCODING 188
SWIDTH 732 0
DWIDTH 23 0
BBX 22 23 1 0
BITMAP
00028D2000000000000000
16CFFF2000000000000000
AFFFFF200000001B400000
9A67FF200000008FB00000
0004FF20000002FF200000
0004FF2000000BF8000000
0004FF2000006FD0000000
0004FF200001EF40000000
0004FF200009FA00000000
0004FF20004FE100000000
0004FF2000DF60004FF900
0004FF2007FC0001DFF900
0004FF202EF3000AFFF900
00000000BF80006FEEF900
00000005FD1002EF5DF900
0000001DF5000BF80DF900
0000009FB0007FC00DF900
000003FE2003FE200DF900
00000CF7000BFFFFFFFFF4
00006FC0000BFFFFFFFFF4
00002B40000000000DF900
00000000000000000DF900
00000000000000000DF900
ENDCHAR
STARTCHAR onehalf
ENCODING 189
SWIDTH 775 0
DWIDTH 25 0
BBX 23 23 1 0
BITMAP
00038D100000000000000000
17CFFF100000000000000000
BFFFFF100000008700000000
AA67FF10000003FE20000000
0006FF1000000CF700000000
0006FF1000007FC000000000
0006FF100002EF3000000000
0006FF10000AF90000000000
0006FF10005FE10000000000
0006FF1001DF500000000000
0006FF1008FB005BEFD81000
0006FF103FF208FFFFFFC000
0006FF10CF702FFA217FF600
00000006FD007FF1000DF900
0000001EF4001110001EF800
000000AFA0000000008FF400
000004FE1000000005FFA000
00000DF6000000005FFB1000
00007FC000000006FFB10000
0002FF300000006FF9000000
00008800000006FF70000000
0000000000003FFFFFFFFF20
0000000000003FFFFFFFFF20
ENDCHAR
STARTCHAR threequarters
ENCODING 190
SWIDTH 777 0
DWIDTH 25 0
BBX 23 23 1 0
BITMAP
003ADFDA3000000000000000
06FFFFFFF500000000000000
0EFC313DFD0000001B400000
05520008FE0000008FB00000
0000004DF9000003FF200000
0001FFFF8000000CF7000000
0001CDFFC200006FD0000000
0000001CFC0001EF40000000
00000005FF100AFA00000000
3EE40006FF204FE100000000
1EFC313DFD00DF6000CFF000
06FFFFFFF407FC0008FFF000
004BEFEA302FF3004FFFF000
0000000000BF8001DFDFF000
0000000005FD1009FB6FF000
000000001EF5005FE16FF000
000000009FA001EF406FF000
00000003FE200BF7006FF000
0000000CF7004FFFFFFFFFB0
0000007FC0005FFFFFFFFFB0
0000002B30000000007FF100
0000000000000000006FF000
0000000000000000006FF000
ENDCHAR
STARTCHAR questiondown
ENCODING 191
SWIDTH 473 0
DWIDTH 15 0
BBX 13 23 1 -6
BITMAP
000009EB000000
00001FFF400000
00000CFE100000
00000141000000
00000000000000
00000000000000
00000577100000
00000CFF200000
00000EFE000000
00006FFA000000
0004FFF3000000
004EFF60000000
02EFF700000000
0CFF8000000000
5FFB0000000000
AFF40000000000
DFF00000000000
EFF0000001BB90
CFF4000004FFB0
8FFC10002DFF60
1EFFEA8AFFFC00
04EFFFFFFFC200
0017CEFEB60000
ENDCHAR
STARTCHAR Agrave
ENCODING 192
SWIDTH 652 0
DWIDTH 21 0
BBX 21 30 0 0
BITMAP
000001DFF7000000000000
0000003EFF200000000000
00000005FFC00000000000
000000008FF70000000000
000000000BD90000000000
0000000000000000000000
0000000000000000000000
000000001FFE0000000000
000000007FFF5000000000
00000000CFFFA000000000
00000003FFFFF100000000
00000009FF7FF700000000
0000000EFC0DFC00000000
0000005FF608FF30000000
000000BFE102FF90000000
000001FFA000CFE0000000
000007FF40006FF5000000
00000DFD00001EFB000000
00003FF800000AFF200000
00009FF2000004FF700000
0001EFC0000000DFD00000
0005FFFFFFFFFFFFF40000
000BFFFFFFFFFFFFF90000
002FFC777777777DFE1000
007FF50000000007FF6000
00DFE10000000002FFB000
04FFA00000000000CFF200
09FF5000000000007FF800
1EFF1000000000002FFD00
6FFA0000000000000CFF40
ENDCHAR
STARTCHAR Aacute
ENCODING 193
SWIDTH 652 0
DWIDTH 21 0
BBX 21 30 0 0
BITMAP
000000000006FFD2000000
00000000002EFE30000000
0000000000BFF500000000
0000000006FF7000000000
0000000009DA0000000000
0000000000000000000000
0000000000000000000000
000000001FFE0000000000
000000007FFF5000000000
00000000CFFFA000000000
00000003FFFFF100000000
00000009FF7FF700000000
0000000EFC0DFC00000000
0000005FF608FF30000000
000000BFE102FF90000000
000001FFA000CFE0000000
000007FF40006FF5000000
00000DFD00001EFB000000
00003FF800000AFF200000
00009FF2000004FF700000
0001EFC0000000DFD00000
0005FFFFFFFFFFFFF40000
000BFFFFFFFFFFFFF90000
002FFC777777777DFE1000
007FF50000000007FF6000
00DFE10000000002FFB000
04FFA00000000000CFF200
09FF5000000000007FF800
1EFF1000000000002FFD00
6FFA0000000000000CFF40
ENDCHAR
STARTCHAR Acircumflex
ENCODING 194
SWIDTH 652 0
DWIDTH 21 0
BBX 21 29 0 0
BITMAP
000000002CFC2000000000
00000003EFDFD300000000
0000004EF909FE40000000
000001ADA000ADA1000000
0000000000000000000000
0000000000000000000000
000000001FFE0000000000
000000007FFF5000000000
00000000CFFFA000000000
00000003FFFFF100000000
00000009FF7FF700000000
0000000EFC0DFC00000000
0000005FF608FF30000000
000000BFE102FF90000000
000001FFA000CFE0000000
000007FF40006FF5000000
00000DFD00001EFB000000
00003FF800000AFF200000
00009FF2000004FF700000
0001EFC0000000DFD00000
0005FFFFFFFFFFFFF40000
000BFFFFFFFFFFFFF90000
002FFC777777777DFE1000
007FF50000000007FF6000
00DFE10000000002FFB000
04FFA00000000000CFF200
09FF5000000000007FF800
1EFF1000000000002FFD00
6FFA0000000000000CFF40
ENDCHAR
STARTCHAR Atilde
ENCODING 195
SWIDTH 652 0
DWIDTH 21 0
BBX 21 29 0 0
BITMAP
0000000131000065000000
000001AFFFA538FD000000
000009FFFFFFFFF7000000
00000DF4028DFD70000000
0000000000000000000000
0000000000000000000000
000000001FFE0000000000
000000007FFF5000000000
00000000CFFFA000000000
00000003FFFFF100000000
00000009FF7FF700000000
0000000EFC0DFC00000000
0000005FF608FF30000000
000000BFE102FF90000000
000001FFA000CFE0000000
000007FF40006FF5000000
00000DFD00001EFB000000
00003FF800000AFF200000
00009FF2000004FF700000
0001EFC0000000DFD00000
0005FFFFFFFFFFFFF40000
000BFFFFFFFFFFFFF90000
002FFC777777777DFE1000
007FF50000000007FF6000
00DFE10000000002FFB000
04FFA00000000000CFF200
09FF5000000000007FF800
1EFF1000000000002FFD00
6FFA0000000000000CFF40
ENDCHAR
STARTCHAR Adieresis
ENCODING 196
SWIDTH 652 0
DWIDTH 21 0
BBX 21 29 0 0
BITMAP
0000002400000320000000
000004FF90008FF5000000
000007FFD000CFF8000000
000002DE60005ED3000000
0000000000000000000000
0000000000000000000000
000000001FFE0000000000
000000007FFF5000000000
00000000CFFFA000000000
00000003FFFFF100000000
00000009FF7FF700000000
0000000EFC0DFC00000000
0000005FF608FF30000000
000000BFE102FF90000000
000001FFA000CFE0000000
000007FF40006FF5000000
00000DFD00001EFB000000
00003FF800000AFF200000
00009FF2000004FF700000
0001EFC0000000DFD00000
0005FFFFFFFFFFFFF40000
000BFFFFFFFFFFFFF90000
002FFC777777777DFE1000
007FF50000000007FF6000
00DFE10000000002FFB000
04FFA00000000000CFF200
09FF5000000000007FF800
1EFF1000000000002FFD00
6FFA0000000000000CFF40
ENDCHAR
STARTCHAR Aring
ENCODING 197
SWIDTH 652 0
DWIDTH 21 0
BBX 21 31 0 0
BITMAP
000000005CEC5000000000
00000005FB7BF500000000
0000000BD000DB00000000
0000000BC000CB00000000
00000006FB6AF600000000
000000006CED6000000000
0000000000000000000000
0000000000000000000000
000000001FFE0000000000
000000007FFF5000000000
00000000CFFFA000000000
00000003FFFFF100000000
00000009FF7FF700000000
0000000EFC0DFC00000000
0000005FF608FF30000000
000000BFE102FF90000000
000001FFA000CFE0000000
000007FF40006FF5000000
00000DFD00001EFB000000
00003FF800000AFF200000
00009FF2000004FF700000
0001EFC0000000DFD00000
0005FFFFFFFFFFFFF40000
000BFFFFFFFFFFFFF90000
002FFC777777777DFE1000
007FF50000000007FF6000
00DFE10000000002FFB000
04FFA00000000000CFF200
09FF5000000000007FF800
1EFF1000000000002FFD00
6FFA0000000000000CFF40
ENDCHAR
STARTCHAR AE
ENCODING 198
SWIDTH 934 0
DWIDTH 30 0
BBX 31 23 -1 0
BITMAP
00000000000000BFFFFFFFFFFFFFF600
00000000000006FFFFFFFFFFFFFFF600
0000000000001EFFFFB6666666666200
0000000000008FFBFFA0000000000000
000000000003FFE4FFA0000000000000
00000000000BFF63FFB0000000000000
00000000005FFC02FFB0000000000000
0000000001EFF401FFC0000000000000
0000000008FFB001FFD0000000000000
000000003FFF3000FFD0000000000000
00000000BFF90000FFFFFFFFFFFF2000
00000005FFE10000EFFFFFFFFFFF2000
0000001DFF700000DFF5555555551000
0000008FFD100000DFF1000000000000
000002FFF6000000CFF1000000000000
00000BFFFFFFFFFFFFF2000000000000
00005FFFFFFFFFFFFFF3000000000000
0001DFFDBBBBBBBBEFF3000000000000
0008FFE100000000AFF4000000000000
002FFF70000000009FF4000000000000
00BFFC00000000008FF9555555555520
05FFF300000000008FFFFFFFFFFFFF50
1DFF9000000000007FFFFFFFFFFFFF50
ENDCHAR
STARTCHAR Ccedilla
ENCODING 199
SWIDTH 650 0
DWIDTH 21 0
BBX 19 30 1 -7
BITMAP
0000005ADFEDA6000000
00004DFFFFFFFFD30000
0005FFFEA88AEFFF4000
003FFF91000019FFE100
00CFF900000000BFF800
04FFD1000000003FFE00
09FF70000000000DFF30
0DFF3000000000079930
0FFF0000000000000000
2FFE0000000000000000
2FFD0000000000000000
2FFD0000000000000000
2FFD0000000000000000
1FFE0000000000000000
0FFF0000000000000000
0DFF3000000000068830
09FF70000000000DFF30
04FFD0000000003FFE00
00CFF800000000AFF800
003FFF80000008FFE100
0005FFFE977AEFFF4000
00004DFFFFFFFFD30000
0000016BDFEDA5000000
000000007FA000000000
00000000BFFC20000000
0000000025DFB0000000
00000000006FE0000000
0000000000AFC0000000
00000000ADFF40000000
00000000CD9300000000
ENDCHAR
STARTCHAR Egrave
ENCODING 200
SWIDTH 568 0
DWIDTH 18 0
BBX 16 30 2 0
BITMAP
000BFFA000000000
0001DFF500000000
00003FFE10000000
000006FFA0000000
0000008DA1000000
0000000000000000
0000000000000000
5FFFFFFFFFFFFFE0
5FFFFFFFFFFFFFE0
5FFC777777777770
5FFA000000000000
5FFA000000000000
5FFA000000000000
5FFA000000000000
5FFA000000000000
5FFA000000000000
5FFA000000000000
5FFFFFFFFFFFF800
5FFFFFFFFFFFF800
5FFC777777777300
5FFA000000000000
5FFA000000000000
5FFA000000000000
5FFA000000000000
5FFA000000000000
5FFA000000000000
5FFA000000000000
5FFC777777777771
5FFFFFFFFFFFFFF1
5FFFFFFFFFFFFFF1
ENDCHAR
STARTCHAR Eacute
ENCODING 201
SWIDTH 568 0
DWIDTH 18 0
BBX 16 30 2 0
BITMAP
000000004FFE3000
00000001DFF50000
00000009FF700000
0000004FFA000000
0000007CC1000000
0000000000000000
0000000000000000
5FFFFFFFFFFFFFE0
5FFFFFFFFFFFFFE0
5FFC777777777770
5FFA000000000000
5FFA000000000000
5FFA000000000000
5FFA000000000000
5FFA000000000000
5FFA000000000000
5FFA000000000000
5FFFFFFFFFFFF800
5FFFFFFFFFFFF800
5FFC777777777300
5FFA000000000000
5FFA000000000000
5FFA000000000000
5FFA000000000000
5FFA000000000000
5FFA000000000000
5FFA000000000000
5FFC777777777771
5FFFFFFFFFFFFFF1
5FFFFFFFFFFFFFF1
ENDCHAR
STARTCHAR Ecircumflex
ENCODING 202
SWIDTH 568 0
DWIDTH 18 0
BBX 16 29 2 0
BITMAP
000001BFE3000000
00002CFDFE500000
0003DFB17FF60000
0008CC1007EA2000
0000000000000000
0000000000000000
5FFFFFFFFFFFFFE0
5FFFFFFFFFFFFFE0
5FFC777777777770
5FFA000000000000
5FFA000000000000
5FFA000000000000
5FFA000000000000
5FFA000000000000
5FFA000000000000
5FFA000000000000
5FFFFFFFFFFFF800
5FFFFFFFFFFFF800
5FFC777777777300
5FFA000000000000
5FFA000000000000
5FFA000000000000
5FFA000000000000
5FFA000000000000
5FFA000000000000
5FFA000000000000
5FFC777777777771
5FFFFFFFFFFFFFF1
5FFFFFFFFFFFFFF1
ENDCHAR
STARTCHAR Edieresis
ENCODING 203
SWIDTH 568 0
DWIDTH 18 0
BBX 16 29 2 0
BITMAP
0002410000230000
002EFC0005FF7000
005FFF0009FFB000
001CE80003DE5000
0000000000000000
0000000000000000
5FFFFFFFFFFFFFE0
5FFFFFFFFFFFFFE0
5FFC777777777770
5FFA000000000000
5FFA000000000000
5FFA000000000000
5FFA000000000000
5FFA000000000000
5FFA000000000000
5FFA000000000000
5FFFFFFFFFFFF800
5FFFFFFFFFFFF800
5FFC777777777300
5FFA000000000000
5FFA000000000000
5FFA000000000000
5FFA000000000000
5FFA000000000000
5FFA000000000000
5FFA000000000000
5FFC777777777771
5FFFFFFFFFFFFFF1
5FFFFFFFFFFFFFF1
ENDCHAR
STARTCHAR Igrave
ENCODING 204
SWIDTH 271 0
DWIDTH 9 0
BBX 7 30 -1 0
BITMAP
2EFF5000
05FFE100
007FFA00
000AFF50
0001CC80
00000000
00000000
0002FFD0
0002FFD0
0002FFD0
0002FFD0
0002FFD0
0002FFD0
0002FFD0
0002FFD0
0002FFD0
0002FFD0
0002FFD0
0002FFD0
0002FFD0
0002FFD0
0002FFD0
0002FFD0
0002FFD0
0002FFD0
0002FFD0
0002FFD0
0002FFD0
0002FFD0
0002FFD0
ENDCHAR
STARTCHAR Iacute
ENCODING 205
SWIDTH 271 0
DWIDTH 9 0
BBX 8 30 2 0
BITMAP
0009FFC1
004FFE20
01DFE300
09FF5000
1AD70000
00000000
00000000
2FFD0000
2FFD0000
2FFD0000
2FFD0000
2FFD0000
2FFD0000
2FFD0000
2FFD0000
2FFD0000
2FFD0000
2FFD0000
2FFD0000
2FFD0000
2FFD0000
2FFD0000
2FFD0000
2FFD0000
2FFD0000
2FFD0000
2FFD0000
2FFD0000
2FFD0000
2FFD0000
ENDCHAR
STARTCHAR Icircumflex
ENCODING 206
SWIDTH 271 0
DWIDTH 9 0
BBX 10 29 -1 0
BITMAP
0003DFB100
004EFDFC20
06FF70BFE3
2AD8001BD9
0000000000
0000000000
0002FFD000
0002FFD000
0002FFD000
0002FFD000
0002FFD000
0002FFD000
0002FFD000
0002FFD000
0002FFD000
0002FFD000
0002FFD000
0002FFD000
0002FFD000
0002FFD000
0002FFD000
0002FFD000
0002FFD000
0002FFD000
0002FFD000
0002FFD000
0002FFD000
0002FFD000
0002FFD000
ENDCHAR
STARTCHAR Idieresis
ENCODING 207
SWIDTH 271 0
DWIDTH 9 0
BBX 11 29 -1 0
BITMAP
033000003200
6FF7000AFF30
9FFB000EFF60
4DE40007EC20
000000000000
000000000000
0002FFD00000
0002FFD00000
0002FFD00000
0002FFD00000
0002FFD00000
0002FFD00000
0002FFD00000
0002FFD00000
0002FFD00000
0002FFD00000
0002FFD00000
0002FFD00000
0002FFD00000
0002FFD00000
0002FFD00000
0002FFD00000
0002FFD00000
0002FFD00000
0002FFD00000
0002FFD00000
0002FFD00000
0002FFD00000
0002FFD00000
ENDCHAR
STARTCHAR Eth
ENCODING 208
SWIDTH 670 0
DWIDTH 21 0
BBX 20 23 0 0
BITMAP
000DFFFFFFEC94000000
000DFFFFFFFFFFC30000
000DFF87778BFFFF5000
000DFF20000019FFF400
000DFF200000007FFD10
000DFF200000000AFF70
000DFF2000000003FFD0
000DFF2000000000CFF2
000DFF20000000009FF5
000DFF20000000007FF7
DFFFFFFFFF1000006FF8
DFFFFFFFFF1000006FF8
555EFF65550000006FF8
000DFF20000000007FF7
000DFF20000000009FF6
000DFF2000000000DFF3
000DFF2000000003FFD0
000DFF200000000BFF70
000DFF200000008FFE10
000DFF2000002AFFF400
000DFF87778BFFFF5000
000DFFFFFFFFFFC30000
000DFFFFFFEC94000000
ENDCHAR
STARTCHAR Ntilde
ENCODING 209
SWIDTH 712 0
DWIDTH 23 0
BBX 19 29 2 0
BITMAP
00000023100017500000
00002CFFEA54AFB00000
0000CFFFFFFFFF500000
0001EE3039DFC5000000
00000000000000000000
00000000000000000000
5FFE10000000000DFF20
5FFF90000000000DFF20
5FFFF4000000000DFF20
5FFFFD100000000DFF20
5FFFFF800000000DFF20
5FFDFFF30000000DFF20
5FFA8FFC0000000DFF20
5FFA1DFF7000000DFF20
5FFA04FFF200000DFF20
5FFA009FFC00000DFF20
5FFA001EFF60000DFF20
5FFA0005FFE2000DFF20
5FFA0000AFFB000DFF20
5FFA00001EFF500DFF20
5FFA000006FFE10DFF20
5FFA000000BFFA0DFF20
5FFA0000002EFF5DFF20
5FFA00000007FFDEFF20
5FFA00000000CFFFFF20
5FFA000000003FFFFF20
5FFA0000000008FFFF20
5FFA0000000000DFFF20
5FFA00000000003FFF20
ENDCHAR
STARTCHAR Ograve
ENCODING 210
SWIDTH 687 0
DWIDTH 22 0
BBX 20 30 1 0
BITMAP
000006FFE10000000000
0000009FFA0000000000
0000000CFF5000000000
00000002EFE100000000
000000003EB500000000
00000000000000000000
00000000000000000000
0000005ADFFDA5000000
00003CFFFFFFFFD30000
0004EFFFC99CFFFF4000
002EFFB200002BFFE200
00AFFA00000000AFFB00
03FFE1000000001EFF30
08FF800000000008FF80
0CFF300000000003FFC0
0FFF000000000001FFE0
1FFE000000000000EFF1
2FFD000000000000DFF2
2FFC000000000000DFF2
2FFD000000000000DFF2
1FFE000000000000EFF1
0FFF000000000000FFF0
0CFF300000000003FFC0
08FF800000000008FF80
03FFE1000000001EFF30
00BFFA000000009FFB00
002EFFB200001AFFE200
0004EFFFB99BFFFF5000
00003CFFFFFFFFD40000
0000005ADFFDA5000000
ENDCHAR
STARTCHAR Oacute
ENCODING 211
SWIDTH 687 0
DWIDTH 22 0
BBX 20 30 1 0
BITMAP
00000000001DFF800000
00000000008FFA000000
0000000003FFC1000000
000000001DFE20000000
000000003BE300000000
00000000000000000000
00000000000000000000
0000005ADFFDA5000000
00003CFFFFFFFFD30000
0004EFFFC99CFFFF4000
002EFFB200002BFFE200
00AFFA00000000AFFB00
03FFE1000000001EFF30
08FF800000000008FF80
0CFF300000000003FFC0
0FFF000000000001FFE0
1FFE000000000000EFF1
2FFD000000000000DFF2
2FFC000000000000DFF2
2FFD000000000000DFF2
1FFE000000000000EFF1
0FFF000000000000FFF0
0CFF300000000003FFC0
08FF800000000008FF80
03FFE1000000001EFF30
00BFFA000000009FFB00
002EFFB200001AFFE200
0004EFFFB99BFFFF5000
00003CFFFFFFFFD40000
0000005ADFFDA5000000
ENDCHAR
STARTCHAR Ocircumflex
ENCODING 212
SWIDTH 687 0
DWIDTH 22 0
BBX 20 29 1 0
BITMAP
000000006FF700000000
00000008FEEF90000000
000000AFE33EFB100000
000005BE4003DC500000
00000000000000000000
00000000000000000000
0000005ADFFDA5000000
00003CFFFFFFFFD30000
0004EFFFC99CFFFF4000
002EFFB200002BFFE200
00AFFA00000000AFFB00
03FFE1000000001EFF30
08FF800000000008FF80
0CFF300000000003FFC0
0FFF000000000001FFE0
1FFE000000000000EFF1
2FFD000000000000DFF2
2FFC000000000000DFF2
2FFD000000000000DFF2
1FFE000000000000EFF1
0FFF000000000000FFF0
0CFF300000000003FFC0
08FF800000000008FF80
03FFE1000000001EFF30
00BFFA000000009FFB00
002EFFB200001AFFE200
0004EFFFB99BFFFF5000
00003CFFFFFFFFD40000
0000005ADFFDA5000000
ENDCHAR
STARTCHAR Otilde
ENCODING 213
SWIDTH 687 0
DWIDTH 22 0
BBX 20 29 1 0
BITMAP
00000002200003630000
000004EFFD844DF60000
00002EFFFFFFFFE10000
00005EB115BEEB300000
00000000000000000000
00000000000000000000
0000005ADFFDA5000000
00003CFFFFFFFFD30000
0004EFFFC99CFFFF4000
002EFFB200002BFFE200
00AFFA00000000AFFB00
03FFE1000000001EFF30
08FF800000000008FF80
0CFF300000000003FFC0
0FFF000000000001FFE0
1FFE000000000000EFF1
2FFD000000000000DFF2
2FFC000000000000DFF2
2FFD000000000000DFF2
1FFE000000000000EFF1
0FFF000000000000FFF0
0CFF300000000003FFC0
08FF800000000008FF80
03FFE1000000001EFF30
00BFFA000000009FFB00
002EFFB200001AFFE200
0004EFFFB99BFFFF5000
00003CFFFFFFFFD40000
0000005ADFFDA5000000
ENDCHAR
STARTCHAR Odieresis
ENCODING 214
SWIDTH 687 0
DWIDTH 22 0
BBX 20 29 1 0
BITMAP
00000042000014100000
00000BFF3001EFD00000
00000EFF6004FFF10000
000008EC1000BE900000
00000000000000000000
00000000000000000000
0000005ADFFDA5000000
00003CFFFFFFFFD30000
0004EFFFC99CFFFF4000
002EFFB200002BFFE200
00AFFA00000000AFFB00
03FFE1000000001EFF30
08FF800000000008FF80
0CFF300000000003FFC0
0FFF000000000001FFE0
1FFE000000000000EFF1
2FFD000000000000DFF2
2FFC000000000000DFF2
2FFD000000000000DFF2
1FFE000000000000EFF1
0FFF000000000000FFF0
0CFF300000000003FFC0
08FF800000000008FF80
03FFE1000000001EFF30
00BFFA000000009FFB00
002EFFB200001AFFE200
0004EFFFB99BFFFF5000
00003CFFFFFFFFD40000
0000005ADFFDA5000000
ENDCHAR
STARTCHAR multiply
ENCODING 215
SWIDTH 533 0
DWIDTH 17 0
BBX 15 15 1 3
BITMAP
03A000000001B200
3EFA0000001CFD10
3EFF900000BFFD20
04EFF8000BFFE200
004FFF70AFFE3000
0005FFFCFFE30000
00006FFFFF400000
00000AFFF8000000
00006FFFFF400000
0005FFFBFFE30000
004FFF709FFE3000
04FFF8000AFFE200
3EFF900000BFFD20
3EFA0000001CFD20
04A000000001B200
ENDCHAR
STARTCHAR Oslash
ENCODING 216
SWIDTH 687 0
DWIDTH 22 0
BBX 20 26 1 -2
BITMAP
00000000000000000992
0000005ADFEDA5007FB0
00003CFFFFFFFFC5EF20
0004EFFFC99CFFFFF700
002EFFB200002AFFF200
00AFFA00000001EFFA00
03FFE10000000AFFFF20
08FF800000004FD9FF80
0CFF30000001DF54FFC0
0FFF00000008FA01FFE0
1FFE0000003FE200EFF1
2FFD000000CF6000DFF2
2FFC000007FC0000DFF2
2FFD00002EF30000DFF2
1FFD0000BF800000EFF1
0FFF0005FD000000FFF0
0CFF301EF4000003FFC0
08FF809F90000008FF80
03FFE5FE1000001EFF30
00AFFFF50000009FFB00
002EFFE200001AFFE200
0006FFFFB99BFFFF5000
000BFEFFFFFFFFD40000
006FC05ADFFDA5000000
01EF3000000000000000
01220000000000000000
ENDCHAR
STARTCHAR Ugrave
ENCODING 217
SWIDTH 648 0
DWIDTH 21 0
BBX 17 30 2 0
BITMAP
0002EFF60000000000
00004FFE2000000000
000006FFB000000000
0000009FF600000000
0000000CC900000000
000000000000000000
000000000000000000
CFF20000000005FFA0
CFF20000000005FFA0
CFF20000000005FFA0
CFF20000000005FFA0
CFF20000000005FFA0
CFF20000000005FFA0
CFF20000000005FFA0
CFF20000000005FFA0
CFF20000000005FFA0
CFF20000000005FFA0
CFF20000000005FFA0
CFF20000000005FFA0
CFF20000000005FFA0
CFF20000000005FFA0
CFF20000000005FFA0
CFF30000000006FFA0
BFF40000000007FF80
8FF8000000000BFF60
4FFE100000003FFE10
0BFFC2000003DFF800
02DFFFB878CFFFB000
002BFFFFFFFFF90000
000049DEFEC8200000
ENDCHAR
STARTCHAR Uacute
ENCODING 218
SWIDTH 648 0
DWIDTH 21 0
BBX 17 30 2 0
BITMAP
0000000007FFD10000
000000003FFE200000
00000000CFF4000000
00000008FF60000000
00000009D900000000
000000000000000000
000000000000000000
CFF20000000005FFA0
CFF20000000005FFA0
CFF20000000005FFA0
CFF20000000005FFA0
CFF20000000005FFA0
CFF20000000005FFA0
CFF20000000005FFA0
CFF20000000005FFA0
CFF20000000005FFA0
CFF20000000005FFA0
CFF20000000005FFA0
CFF20000000005FFA0
CFF20000000005FFA0
CFF20000000005FFA0
CFF20000000005FFA0
CFF30000000006FFA0
BFF40000000007FF80
8FF8000000000BFF60
4FFE100000003FFE10
0BFFC2000003DFF800
02DFFFB878CFFFB000
002BFFFFFFFFF90000
000049DEFEC8200000
ENDCHAR
STARTCHAR Ucircumflex
ENCODING 219
SWIDTH 648 0
DWIDTH 21 0
BBX 17 29 2 0
BITMAP
0000002DFC10000000
000004EFDFD2000000
00005FF80AFE300000
0001AD9000AD900000
000000000000000000
000000000000000000
CFF20000000005FFA0
CFF20000000005FFA0
CFF20000000005FFA0
CFF20000000005FFA0
CFF20000000005FFA0
CFF20000000005FFA0
CFF20000000005FFA0
CFF20000000005FFA0
CFF20000000005FFA0
CFF20000000005FFA0
CFF20000000005FFA0
CFF20000000005FFA0
CFF20000000005FFA0
CFF20000000005FFA0
CFF20000000005FFA0
CFF30000000006FFA0
BFF40000000007FF80
8FF8000000000BFF60
4FFE100000003FFE10
0BFFC2000003DFF800
02DFFFB878CFFFB000
002BFFFFFFFFF90000
000049DEFEC8200000
ENDCHAR
STARTCHAR Udieresis
ENCODING 220
SWIDTH 648 0
DWIDTH 21 0
BBX 17 29 2 0
BITMAP
000033000003200000
0005FF80009FF40000
0008FFC000DFF70000
0003DE50006ED20000
000000000000000000
000000000000000000
CFF20000000005FFA0
CFF20000000005FFA0
CFF20000000005FFA0
CFF20000000005FFA0
CFF20000000005FFA0
CFF20000000005FFA0
CFF20000000005FFA0
CFF20000000005FFA0
CFF20000000005FFA0
CFF20000000005FFA0
CFF20000000005FFA0
CFF20000000005FFA0
CFF20000000005FFA0
CFF20000000005FFA0
CFF20000000005FFA0
CFF30000000006FFA0
BFF40000000007FF80
8FF8000000000BFF60
4FFE100000003FFE10
0BFFC2000003DFF800
02DFFFB878CFFFB000
002BFFFFFFFFF90000
000049DEFEC8200000
ENDCHAR
STARTCHAR Yacute
ENCODING 221
SWIDTH 600 0
DWIDTH 19 0
BBX 19 30 0 0
BITMAP
00000000004FFE300000
0000000001DFF5000000
0000000009FF70000000
000000004FF900000000
000000007CB000000000
00000000000000000000
00000000000000000000
7FFD00000000000BFFA0
1EFF70000000004FFF20
06FFE100000000CFF800
00DFF700000004FFE100
005FFE1000000CFF7000
000CFF7000005FFD1000
0003FFE10000CFF60000
0000AFF80005FFC00000
00002FFE100DFF400000
000009FF806FFB000000
000001EFE2DFF3000000
0000008FFDFFA0000000
0000001EFFFF20000000
00000006FFF900000000
00000000EFF200000000
00000000EFF100000000
00000000EFF100000000
00000000EFF100000000
00000000EFF100000000
00000000EFF100000000
00000000EFF100000000
00000000EFF100000000
00000000EFF100000000
ENDCHAR
STARTCHAR Thorn
ENCODING 222
SWIDTH 590 0
DWIDTH 19 0
BBX 16 23 2 0
BITMAP
6FF8000000000000
6FF8000000000000
6FF8000000000000
6FF8000000000000
6FF8000000000000
6FFFFFFFED940000
6FFFFFFFFFFFB200
6FFA666669EFFD10
6FF80000001CFFA0
6FF800000001EFF1
6FF8000000009FF5
6FF8000000007FF6
6FF8000000008FF6
6FF800000000CFF3
6FF800000007FFD0
6FF8000013AFFF50
6FFFFFFFFFFFF600
6FFFFFFFFFFA3000
6FFA666654100000
6FF8000000000000
6FF8000000000000
6FF8000000000000
6FF8000000000000
ENDCHAR
STARTCHAR germandbls
ENCODING 223
SWIDTH 594 0
DWIDTH 19 0
BBX 16 24 2 0
BITMAP
0006BEFEB5000000
01CFFFFFFFB00000
0BFFD869EFF80000
3FFD10003FFE0000
8FF600000AFF2000
BFF3000008FF2000
CFF100000BFF0000
CFF100003FFB0000
CFF10000CFF40000
CFF10005FFB00000
CFF10009FF500000
CFF1000AFF400000
CFF10007FFA00000
CFF10001EFF90000
CFF100003EFFB100
CFF1000002DFFD20
CFF10000001BFFC0
CFF100000001CFF5
CFF1000000005FF9
CFF1000000005FF9
CFF103200000BFF6
CFF10AFB768DFFE1
CFF10EFFFFFFFE30
CFF1028BEFEC8100
ENDCHAR
STARTCHAR agrave
ENCODING 224
SWIDTH 543 0
DWIDTH 17 0
BBX 15 24 1 0
BITMAP
0006FFE200000000
00009FFB00000000
00000BFF60000000
000001DFE2000000
0000003EB5000000
0000000000000000
0000000000000000
00005ADFEC820000
002CFFFFFFFF5000
01DFFD757CFFF300
09FF9000009FFB00
0DFF1000001FFE00
00000000000DFF10
00000000000CFF10
00017BDEFFFFFF10
006EFFFFFFFFFF10
06FFE842111DFF10
0EFE2000000CFF10
3FFA0000000CFF10
4FFB0000002EFF10
2FFF400004DFFF10
0AFFFB89CFFFFF20
01CFFFFFFF9BFF50
0006BEFDA308FF90
ENDCHAR
STARTCHAR aacute
ENCODING 225
SWIDTH 543 0
DWIDTH 17 0
BBX 15 24 1 0
BITMAP
000000000CFF9000
000000008FFB0000
00000003FFD10000
0000000CFE200000
0000003BE4000000
0000000000000000
0000000000000000
00005ADFEC820000
002CFFFFFFFF5000
01DFFD757CFFF300
09FF9000009FFB00
0DFF1000001FFE00
00000000000DFF10
00000000000CFF10
00017BDEFFFFFF10
006EFFFFFFFFFF10
06FFE842111DFF10
0EFE2000000CFF10
3FFA0000000CFF10
4FFB0000002EFF10
2FFF400004DFFF10
0AFFFB89CFFFFF20
01CFFFFFFF9BFF50
0006BEFDA308FF90
ENDCHAR
STARTCHAR acircumflex
ENCODING 226
SWIDTH 543 0
DWIDTH 17 0
BBX 15 23 1 0
BITMAP
0000006FF8000000
000008FEDFA00000
0000AFE42EFB1000
0004BE4002DC6000
0000000000000000
0000000000000000
00005ADFEC820000
002CFFFFFFFF5000
01DFFD757CFFF300
09FF9000009FFB00
0DFF1000001FFE00
00000000000DFF10
00000000000CFF10
00017BDEFFFFFF10
006EFFFFFFFFFF10
06FFE842111DFF10
0EFE2000000CFF10
3FFA0000000CFF10
4FFB0000002EFF10
2FFF400004DFFF10
0AFFFB89CFFFFF20
01CFFFFFFF9BFF50
0006BEFDA308FF90
ENDCHAR
STARTCHAR atilde
ENCODING 227
SWIDTH 543 0
DWIDTH 17 0
BBX 15 23 1 0
BITMAP
0000022000036300
0004DFFE844CF700
001EFFFFFFFFE200
005EB115AEEB3000
0000000000000000
0000000000000000
00005ADFEC820000
002CFFFFFFFF5000
01DFFD757CFFF300
09FF9000009FFB00
0DFF1000001FFE00
00000000000DFF10
00000000000CFF10
00017BDEFFFFFF10
006EFFFFFFFFFF10
06FFE842111DFF10
0EFE2000000CFF10
3FFA0000000CFF10
4FFB0000002EFF10
2FFF400004DFFF10
0AFFFB89CFFFFF20
01CFFFFFFF9BFF50
0006BEFDA308FF90
ENDCHAR
STARTCHAR adieresis
ENCODING 228
SWIDTH 543 0
DWIDTH 17 0
BBX 15 23 1 0
BITMAP
0000420000141000
000AFF3001EFD000
000EFF6003FFF200
0007EC2000BEA000
0000000000000000
0000000000000000
00005ADFEC820000
002CFFFFFFFF5000
01DFFD757CFFF300
09FF9000009FFB00
0DFF1000001FFE00
00000000000DFF10
00000000000CFF10
00017BDEFFFFFF10
006EFFFFFFFFFF10
06FFE842111DFF10
0EFE2000000CFF10
3FFA0000000CFF10
4FFB0000002EFF10
2FFF400004DFFF10
0AFFFB89CFFFFF20
01CFFFFFFF9BFF50
0006BEFDA308FF90
ENDCHAR
STARTCHAR aring
ENCODING 229
SWIDTH 543 0
DWIDTH 17 0
BBX 15 25 1 0
BITMAP
0000019EEA200000
00000BE87ED10000
00003F6004F50000
00003F6004F50000
00000CE87DD10000
0000019EEA200000
0000000000000000
0000000000000000
00005ADFEC820000
002CFFFFFFFF5000
01DFFD757CFFF300
09FF9000009FFB00
0DFF1000001FFE00
00000000000DFF10
00000000000CFF10
00017BDEFFFFFF10
006EFFFFFFFFFF10
06FFE842111DFF10
0EFE2000000CFF10
3FFA0000000CFF10
4FFB0000002EFF10
2FFF400004DFFF10
0AFFFB89CFFFFF20
01CFFFFFFF9BFF50
0006BEFDA308FF90
ENDCHAR
STARTCHAR ae
ENCODING 230
SWIDTH 844 0
DWIDTH 27 0
BBX 25 17 1 0
BITMAP
00039CEFDA500018CEED930000
009FFFFFFFFB14EFFFFFFF8000
09FFFB768EFFCFFFA669EFF800
2FFF500002EFFFF400002DFF20
4EFA0000008FFF80000005FF80
00110000005FFF10000001FFB0
00000000004FFC00000000EFD0
0016BDEFFFFFFFFFFFFFFFFFE0
04EFFFFFFFFFFFFFFFFFFFFFE0
2EFFD743336FFA444444444430
8FFB0000004FFB000000000000
BFF30000004FFE100000000000
BFF30000005FFF700000000000
9FF9000005EFFFF50000003A00
3FFFB768DFFF8FFFC7568CFF50
07FFFFFFFFD404DFFFFFFFFD40
004ADFEDA5000016BDFEDA5000
ENDCHAR
STARTCHAR ccedilla
ENCODING 231
SWIDTH 523 0
DWIDTH 17 0
BBX 15 24 1 -7
BITMAP
00004ADFED820000
0009FFFFFFFF6000
00AFFE966AFFF600
06FFD200005FFE10
0DFF30000008FF60
3FFB00000003FF90
6FF7000000002210
7FF6000000000000
8FF5000000000000
8FF5000000000000
6FF7000000000000
3FFB00000001AA60
0DFF20000006FF70
06FFC100003EFE10
00BFFE967AFFF500
000AFFFFFFFE5000
000049DEEC710000
000000BF50000000
000000FFFA000000
00000037FF600000
00000000AF900000
00000001DF700000
000002BEFD100000
000002EC81000000
ENDCHAR
STARTCHAR egrave
ENCODING 232
SWIDTH 529 0
DWIDTH 17 0
BBX 15 24 1 0
BITMAP
0009FFC000000000
0000CFF700000000
00002EFF20000000
000004FFC0000000
0000006EB3000000
0000000000000000
0000000000000000
000029DFEC820000
0006FFFFFFFE5000
007FFF967BFFF300
03FFE200006FFC00
0BFF5000000BFF40
1FFC00000005FF80
5FF900000002FFA0
7FFFFFFFFFFFFFB0
8FFFFFFFFFFFFFC0
8FF9666666666640
6FF7000000000000
3FFB000000000000
0DFF400000003100
06FFE4000005ED30
00AFFFB767CFFD20
0008FFFFFFFFC200
000029CEFDA50000
ENDCHAR
STARTCHAR eacute
ENCODING 233
SWIDTH 529 0
DWIDTH 17 0
BBX 15 24 1 0
BITMAP
000000002EFF5000
00000000BFF70000
00000006FFA00000
0000002EFC000000
0000005CD1000000
0000000000000000
0000000000000000
000029DFEC820000
0006FFFFFFFE5000
007FFF967BFFF300
03FFE200006FFC00
0BFF5000000BFF40
1FFC00000005FF80
5FF900000002FFA0
7FFFFFFFFFFFFFB0
8FFFFFFFFFFFFFC0
8FF9666666666640
6FF7000000000000
3FFB000000000000
0DFF400000003100
06FFE4000005ED30
00AFFFB767CFFD20
0008FFFFFFFFC200
000029CEFDA50000
ENDCHAR
STARTCHAR ecircumflex
ENCODING 234
SWIDTH 529 0
DWIDTH 17 0
BBX 15 23 1 0
BITMAP
0000009FE5000000
00001BFDFF600000
0001CFD25FF80000
0007CD2005EB4000
0000000000000000
0000000000000000
000029DFEC820000
0006FFFFFFFE5000
007FFF967BFFF300
03FFE200006FFC00
0BFF5000000BFF40
1FFC00000005FF80
5FF900000002FFA0
7FFFFFFFFFFFFFB0
8FFFFFFFFFFFFFC0
8FF9666666666640
6FF7000000000000
3FFB000000000000
0DFF400000003100
06FFE4000005ED30
00AFFFB767CFFD20
0008FFFFFFFFC200
000029CEFDA50000
ENDCHAR
STARTCHAR edieresis
ENCODING 235
SWIDTH 529 0
DWIDTH 17 0
BBX 15 23 1 0
BITMAP
0001410000230000
001DFD1003FFA000
002FFF3007FFD000
000AEA0002DE7000
0000000000000000
0000000000000000
000029DFEC820000
0006FFFFFFFE5000
007FFF967BFFF300
03FFE200006FFC00
0BFF5000000BFF40
1FFC00000005FF80
5FF900000002FFA0
7FFFFFFFFFFFFFB0
8FFFFFFFFFFFFFC0
8FF9666666666640
6FF7000000000000
3FFB000000000000
0DFF400000003100
06FFE4000005ED30
00AFFFB767CFFD20
0008FFFFFFFFC200
000029CEFDA50000
ENDCHAR
STARTCHAR igrave
ENCODING 236
SWIDTH 247 0
DWIDTH 8 0
BBX 7 24 -1 0
BITMAP
8FFD1000
0AFF9000
01DFF400
002EFD10
0004EB40
00000000
00000000
0009FF50
0009FF50
0009FF50
0009FF50
0009FF50
0009FF50
0009FF50
0009FF50
0009FF50
0009FF50
0009FF50
0009FF50
0009FF50
0009FF50
0009FF50
0009FF50
0009FF50
ENDCHAR
STARTCHAR iacute
ENCODING 237
SWIDTH 247 0
DWIDTH 8 0
BBX 7 24 2 0
BITMAP
001EFF70
00AFF900
05FFB000
1EFD1000
4BD20000
00000000
00000000
9FF50000
9FF50000
9FF50000
9FF50000
9FF50000
9FF50000
9FF50000
9FF50000
9FF50000
9FF50000
9FF50000
9FF50000
9FF50000
9FF50000
9FF50000
9FF50000
9FF50000
ENDCHAR
STARTCHAR icircumflex
ENCODING 238
SWIDTH 247 0
DWIDTH 8 0
BBX 10 23 -1 0
BITMAP
0007FF6000
009FEEF800
1BFE33EFA0
6CD3004EB5
0000000000
0000000000
0009FF5000
0009FF5000
0009FF5000
0009FF5000
0009FF5000
0009FF5000
0009FF5000
0009FF5000
0009FF5000
0009FF5000
0009FF5000
0009FF5000
0009FF5000
0009FF5000
0009FF5000
0009FF5000
0009FF5000
ENDCHAR
STARTCHAR idieresis
ENCODING 239
SWIDTH 247 0
DWIDTH 8 0
BBX 11 23 -2 0
BITMAP
014100001400
0CFE2002EFC0
1FFF4005FFF0
09EB1001CE80
000000000000
000000000000
00009FF50000
00009FF50000
00009FF50000
00009FF50000
00009FF50000
00009FF50000
00009FF50000
00009FF50000
00009FF50000
00009FF50000
00009FF50000
00009FF50000
00009FF50000
00009FF50000
00009FF50000
00009FF50000
00009FF50000
ENDCHAR
STARTCHAR eth
ENCODING 240
SWIDTH 585 0
DWIDTH 19 0
BBX 15 24 2 0
BITMAP
005C830000000000
00AFFFC40008A000
008DFFFFA4DFE300
00004BFFFFFB2000
0000008FFFF20000
000019FFEFFC1000
0000CFE51CFF9000
00004A1002EFF200
00000000007FF900
00028CEEC72EFE00
005EFFFFFFDDFF30
05FFFC867AFFFF70
1EFF7000002DFF80
7FFA00000004FFA0
BFF300000003FFB0
EFE000000003FFA0
FFD000000004FF90
EFE000000006FF80
CFF30000000AFF40
7FFA0000002FFE00
1EFF800001CFF600
04FFFC768EFFB000
004DFFFFFFFA0000
00016BDFEA400000
ENDCHAR
STARTCHAR ntilde
ENCODING 241
SWIDTH 551 0
DWIDTH 18 0
BBX 14 23 2 0
BITMAP
00002200004620
005EFFD745DF50
03FFFFFFFFFD10
07EA115BEEA200
00000000000000
00000000000000
CFE017CEFD8100
CFF3DFFFFFFE20
CFFEFC88AFFFB0
CFFF600003FFF2
CFF7000000AFF5
CFF10000007FF7
CFF10000006FF7
CFF10000006FF7
CFF10000006FF7
CFF10000006FF7
CFF10000006FF7
CFF10000006FF7
CFF10000006FF7
CFF10000006FF7
CFF10000006FF7
CFF10000006FF7
CFF10000006FF7
ENDCHAR
STARTCHAR ograve
ENCODING 242
SWIDTH 570 0
DWIDTH 18 0
BBX 16 24 1 0
BITMAP
0007FFD100000000
0000AFF900000000
00001CFF40000000
000002EFD1000000
0000004EB4000000
0000000000000000
0000000000000000
000029DEED940000
0007FFFFFFFFA100
008FFFA769EFFB00
04FFE400002DFF80
0CFF50000002EFE1
2FFD000000009FF6
6FF8000000004FF9
7FF6000000002FFB
8FF5000000001FFC
8FF6000000002FFB
6FF8000000005FF9
3FFC000000009FF6
0CFF40000002EFF1
05FFE300001CFF80
009FFFA669EFFC00
0008FFFFFFFFA100
000029DEFDA40000
ENDCHAR
STARTCHAR oacute
ENCODING 243
SWIDTH 570 0
DWIDTH 18 0
BBX 16 24 1 0
BITMAP
000000001DFF7000
000000009FFA0000
00000004FFC00000
0000001DFD100000
0000004BD3000000
0000000000000000
0000000000000000
000029DEED940000
0007FFFFFFFFA100
008FFFA769EFFB00
04FFE400002DFF80
0CFF50000002EFE1
2FFD000000009FF6
6FF8000000004FF9
7FF6000000002FFB
8FF5000000001FFC
8FF6000000002FFB
6FF8000000005FF9
3FFC000000009FF6
0CFF40000002EFF1
05FFE300001CFF80
009FFFA669EFFC00
0008FFFFFFFFA100
000029DEFDA40000
ENDCHAR
STARTCHAR ocircumflex
ENCODING 244
SWIDTH 570 0
DWIDTH 18 0
BBX 16 23 1 0
BITMAP
0000007FF7000000
000009FEEF800000
0001BFE33EFA1000
0005BD3003EB5000
0000000000000000
0000000000000000
000029DEED940000
0007FFFFFFFFA100
008FFFA769EFFB00
04FFE400002DFF80
0CFF50000002EFE1
2FFD000000009FF6
6FF8000000004FF9
7FF6000000002FFB
8FF5000000001FFC
8FF6000000002FFB
6FF8000000005FF9
3FFC000000009FF6
0CFF40000002EFF1
05FFE300001CFF80
009FFFA669EFFC00
0008FFFFFFFFA100
000029DEFDA40000
ENDCHAR
STARTCHAR otilde
ENCODING 245
SWIDTH 570 0
DWIDTH 18 0
BBX 16 23 1 0
BITMAP
0000022000036300
0005EFFD844DF600
002FFFFFFFFFD100
006EA115BEEB2000
0000000000000000
0000000000000000
000029DEED940000
0007FFFFFFFFA100
008FFFA769EFFB00
04FFE400002DFF80
0CFF50000002EFE1
2FFD000000009FF6
6FF8000000004FF9
7FF6000000002FFB
8FF5000000001FFC
8FF6000000002FFB
6FF8000000005FF9
3FFC000000009FF6
0CFF40000002EFF1
05FFE300001CFF80
009FFFA669EFFC00
0008FFFFFFFFA100
000029DEFDA40000
ENDCHAR
STARTCHAR odieresis
ENCODING 246
SWIDTH 570 0
DWIDTH 18 0
BBX 16 23 1 0
BITMAP
0001420000141000
000CFE2002EFC000
000FFF5004FFF100
0008EC1001CE9000
0000000000000000
0000000000000000
000029DEED940000
0007FFFFFFFFA100
008FFFA769EFFB00
04FFE400002DFF80
0CFF50000002EFE1
2FFD000000009FF6
6FF8000000004FF9
7FF6000000002FFB
8FF5000000001FFC
8FF6000000002FFB
6FF8000000005FF9
3FFC000000009FF6
0CFF40000002EFF1
05FFE300001CFF80
009FFFA669EFFC00
0008FFFFFFFFA100
000029DEFDA40000
ENDCHAR
STARTCHAR divide
ENCODING 247
SWIDTH 570 0
DWIDTH 18 0
BBX 16 17 1 2
BITMAP
0000002981000000
000000AFFA000000
000000BFFB000000
0000003BB3000000
0000000000000000
0000000000000000
0000000000000000
DFFFFFFFFFFFFFFB
DFFFFFFFFFFFFFFB
CDDDDDDDDDDDDDD9
0000000000000000
0000000000000000
0000000000000000
0000003CC3000000
000000BFFB000000
000000AFF9000000
0000001771000000
ENDCHAR
STARTCHAR oslash
ENCODING 248
SWIDTH 566 0
DWIDTH 18 0
BBX 16 21 1 -2
BITMAP
0000000000007A20
000000000002FC00
000029DEED9BF400
0007FFFFFFFFE100
008FFFA769FFFB00
04FFE30002FFFF70
0CFF50000AF7FFE1
2FFC00003FC09FF5
6FF80000BF405FF9
7FF60003FB002FFB
8FF5000BF3002FFC
7FF6004FB0002FFB
6FF800CF30004FF9
2FFC04FA00009FF6
0CFF5CF20002EFF1
04FFFF90001CFF80
009FFFB669EFFC00
000AFFFFFFFFA100
000CF9CEFDA40000
004FA00000000000
009C200000000000
ENDCHAR
STARTCHAR ugrave
ENCODING 249
SWIDTH 551 0
DWIDTH 18 0
BBX 14 24 2 0
BITMAP
009FFC00000000
000CFF70000000
0001DFF3000000
00003FFC000000
000006EB300000
00000000000000
00000000000000
DFF00000007FF7
DFF00000007FF7
DFF00000007FF7
DFF00000007FF7
DFF00000007FF7
DFF00000007FF7
DFF00000007FF7
DFF00000007FF7
DFF00000007FF7
DFF00000007FF7
DFF00000007FF7
DFF20000007FF7
BFF4000000BFF7
7FFC100008FFF7
2FFFD879EFFFF7
06FFFFFFFE9FF7
003AEFEC715FF7
ENDCHAR
STARTCHAR uacute
ENCODING 250
SWIDTH 551 0
DWIDTH 18 0
BBX 14 24 2 0
BITMAP
00000002EFF500
0000000BFF8000
0000006FFA0000
000002EFC10000
000005CD200000
00000000000000
00000000000000
DFF00000007FF7
DFF00000007FF7
DFF00000007FF7
DFF00000007FF7
DFF00000007FF7
DFF00000007FF7
DFF00000007FF7
DFF00000007FF7
DFF00000007FF7
DFF00000007FF7
DFF00000007FF7
DFF20000007FF7
BFF4000000BFF7
7FFC100008FFF7
2FFFD879EFFFF7
06FFFFFFFE9FF7
003AEFEC715FF7
ENDCHAR
STARTCHAR ucircumflex
ENCODING 251
SWIDTH 551 0
DWIDTH 18 0
BBX 14 23 2 0
BITMAP
000009FF500000
0001AFDFF70000
001CFD24FF9000
007CD2005EB400
00000000000000
00000000000000
DFF00000007FF7
DFF00000007FF7
DFF00000007FF7
DFF00000007FF7
DFF00000007FF7
DFF00000007FF7
DFF00000007FF7
DFF00000007FF7
DFF00000007FF7
DFF00000007FF7
DFF00000007FF7
DFF20000007FF7
BFF4000000BFF7
7FFC100008FFF7
2FFFD879EFFFF7
06FFFFFFFE9FF7
003AEFEC715FF7
ENDCHAR
STARTCHAR udieresis
ENCODING 252
SWIDTH 551 0
DWIDTH 18 0
BBX 14 23 2 0
BITMAP
00141000023000
00DFE1003FFA00
02FFF3006FFE00
00AEB0002CE700
00000000000000
00000000000000
DFF00000007FF7
DFF00000007FF7
DFF00000007FF7
DFF00000007FF7
DFF00000007FF7
DFF00000007FF7
DFF00000007FF7
DFF00000007FF7
DFF00000007FF7
DFF00000007FF7
DFF00000007FF7
DFF20000007FF7
BFF4000000BFF7
7FFC100008FFF7
2FFFD879EFFFF7
06FFFFFFFE9FF7
003AEFEC715FF7
ENDCHAR
STARTCHAR yacute
ENCODING 253
SWIDTH 473 0
DWIDTH 15 0
BBX 15 31 0 -7
BITMAP
000000001EFF7000
00000000AFF90000
00000005FFB00000
0000001EFD100000
0000004BD2000000
0000000000000000
0000000000000000
7FFA00000007FF90
2FFE1000000CFF30
0BFF5000002FFD00
06FFA000006FF800
01FFE00000BFF300
00AFF50001FFD000
005FFA0005FF8000
000EFE000AFF2000
0009FF400EFC0000
0004FF904FF70000
0000DFE09FF20000
00008FF4DFC00000
00003FFCFF700000
00000CFFFF200000
000007FFFB000000
000002FFF6000000
000000BFF1000000
000000DFB0000000
000003FF60000000
000009FF10000000
00005FF900000000
069BFFE200000000
0AFFFF5000000000
08EEB30000000000
ENDCHAR
STARTCHAR thorn
ENCODING 254
SWIDTH 576 0
DWIDTH 18 0
BBX 15 31 2 -7
BITMAP
AFF3000000000000
AFF3000000000000
AFF3000000000000
AFF3000000000000
AFF3000000000000
AFF3000000000000
AFF3000000000000
AFF318DEEC810000
AFF7EFFFFFFE3000
AFFFFB87AFFFE100
AFFE400003DFF900
AFF60000003FFE10
AFF30000000BFF40
AFF300000007FF70
AFF300000005FF80
AFF300000004FF90
AFF300000005FF80
AFF300000007FF70
AFF30000000BFF40
AFF50000003FFE10
AFFE300002DFF900
AFFFFA769EFFD100
AFF9FFFFFFFD3000
AFF329DEEC810000
AFF3000000000000
AFF3000000000000
AFF3000000000000
AFF3000000000000
AFF3000000000000
AFF3000000000000
AFF3000000000000
ENDCHAR
STARTCHAR ydieresis
ENCODING 255
SWIDTH 473 0
DWIDTH 15 0
BBX 15 30 0 -7
BITMAP
0001410000130000
000CFE2002EFB000
001FFF4005FFF000
0009EB1001CE8000
0000000000000000
0000000000000000
7FFA00000007FF90
2FFE1000000CFF30
0BFF5000002FFD00
06FFA000006FF800
01FFE00000BFF300
00AFF50001FFD000
005FFA0005FF8000
000EFE000AFF2000
0009FF400EFC0000
0004FF904FF70000
0000DFE09FF20000
00008FF4DFC00000
00003FFCFF700000
00000CFFFF200000
000007FFFB000000
000002FFF6000000
000000BFF1000000
000000DFB0000000
000003FF60000000
000009FF10000000
00005FF900000000
069BFFE200000000
0AFFFF5000000000
08EEB30000000000
ENDCHAR
STARTCHAR Amacron
ENCODING 256
SWIDTH 652 0
DWIDTH 21 0
BBX 21 29 0 0
BITMAP
0000024444444443000000
00000AFFFFFFFFFC000000
00000AFFFFFFFFFC000000
0000000000000000000000
0000000000000000000000
0000000000000000000000
000000001FFE0000000000
000000007FFF5000000000
00000000CFFFA000000000
00000003FFFFF100000000
00000009FF7FF700000000
0000000EFC0DFC00000000
0000005FF608FF30000000
000000BFE102FF90000000
000001FFA000CFE0000000
000007FF40006FF5000000
00000DFD00001EFB000000
00003FF800000AFF200000
00009FF2000004FF700000
0001EFC0000000DFD00000
0005FFFFFFFFFFFFF40000
000BFFFFFFFFFFFFF90000
002FFC777777777DFE1000
007FF50000000007FF6000
00DFE10000000002FFB000
04FFA00000000000CFF200
09FF5000000000007FF800
1EFF1000000000002FFD00
6FFA0000000000000CFF40
ENDCHAR
STARTCHAR amacron
ENCODING 257
SWIDTH 543 0
DWIDTH 17 0
BBX 15 24 1 0
BITMAP
0004444444444100
001FFFFFFFFFF600
001FFFFFFFFFF600
0000000000000000
0000000000000000
0000000000000000
0000000000000000
00005ADFEC820000
002CFFFFFFFF5000
01DFFD757CFFF300
09FF9000009FFB00
0DFF1000001FFE00
00000000000DFF10
00000000000CFF10
00017BDEFFFFFF10
006EFFFFFFFFFF10
06FFE842111DFF10
0EFE2000000CFF10
3FFA0000000CFF10
4FFB0000002EFF10
2FFF400004DFFF10
0AFFFB89CFFFFF20
01CFFFFFFF9BFF50
0006BEFDA308FF90
ENDCHAR
STARTCHAR Abreve
ENCODING 258
SWIDTH 652 0
DWIDTH 21 0
BBX 21 28 0 0
BITMAP
000002FF40004FF2000000
000000DFB101BFD0000000
0000004FFFDFFF40000000
00000003AEFEA300000000
0000000000000000000000
000000001FFE0000000000
000000007FFF5000000000
00000000CFFFA000000000
00000003FFFFF100000000
00000009FF7FF700000000
0000000EFC0DFC00000000
0000005FF608FF30000000
000000BFE102FF90000000
000001FFA000CFE0000000
000007FF40006FF5000000
00000DFD00001EFB000000
00003FF800000AFF200000
00009FF2000004FF700000
0001EFC0000000DFD00000
0005FFFFFFFFFFFFF40000
000BFFFFFFFFFFFFF90000
002FFC777777777DFE1000
007FF50000000007FF6000
00DFE10000000002FFB000
04FFA00000000000CFF200
09FF5000000000007FF800
1EFF1000000000002FFD00
6FFA0000000000000CFF40
ENDCHAR
STARTCHAR abreve
ENCODING 259
SWIDTH 543 0
DWIDTH 17 0
BBX 15 23 1 0
BITMAP
0008FD0000AFB000
0004FF6004FF7000
0000AFFEEFFC1000
000006CEFD810000
0000000000000000
0000000000000000
00005ADFEC820000
002CFFFFFFFF5000
01DFFD757CFFF300
09FF9000009FFB00
0DFF1000001FFE00
00000000000DFF10
00000000000CFF10
00017BDEFFFFFF10
006EFFFFFFFFFF10
06FFE842111DFF10
0EFE2000000CFF10
3FFA0000000CFF10
4FFB0000002EFF10
2FFF400004DFFF10
0AFFFB89CFFFFF20
01CFFFFFFF9BFF50
0006BEFDA308FF90
ENDCHAR
STARTCHAR Aogonek
ENCODING 260
SWIDTH 652 0
DWIDTH 21 0
BBX 21 30 0 -7
BITMAP
000000001FFE0000000000
000000007FFF5000000000
00000000CFFFA000000000
00000003FFFFF100000000
00000009FF7FF700000000
0000000EFC0DFC00000000
0000005FF608FF30000000
000000BFE102FF90000000
000001FFA000CFE0000000
000007FF40006FF5000000
00000DFD00001EFB000000
00003FF800000AFF200000
00009FF2000004FF700000
0001EFC0000000DFD00000
0005FFFFFFFFFFFFF40000
000BFFFFFFFFFFFFF90000
002FFC777777777DFE1000
007FF50000000007FF6000
00DFE10000000002FFB000
04FFA00000000000CFF200
09FF5000000000007FF800
1EFF1000000000003FFD00
6FFA0000000000000DFF40
00000000000000006EE400
0000000000000005FF3000
000000000000001EF80000
000000000000004FF30000
000000000000004FF93600
000000000000001EFFFF10
0000000000000003CED910
ENDCHAR
STARTCHAR aogonek
ENCODING 261
SWIDTH 543 0
DWIDTH 17 0
BBX 15 24 1 -7
BITMAP
00005ADFEC820000
002CFFFFFFFF5000
01DFFD757CFFF300
09FF9000009FFB00
0DFF1000001FFE00
00000000000DFF10
00000000000CFF10
00017BDEFFFFFF10
006EFFFFFFFFFF10
06FFE842111DFF10
0EFE2000000CFF10
3FFA0000000CFF10
4FFB0000002EFF10
2FFF400004DFFF10
0AFFFB89CFFFFF20
01CFFFFFFF9BFF50
0006BEFDA308FF90
00000000003DF800
0000000002EF7000
000000000BFC0000
000000000FF80000
000000000EFC3520
000000000AFFFF50
0000000001AEEB30
ENDCHAR
STARTCHAR Cacute
ENCODING 262
SWIDTH 650 0
DWIDTH 21 0
BBX 19 30 1 0
BITMAP
00000000005FFE300000
0000000001EFF4000000
000000000AFF70000000
000000005FF900000000
000000008CB000000000
00000000000000000000
00000000000000000000
0000005ADFEDA6000000
00004DFFFFFFFFD30000
0005FFFEA88AEFFF4000
003FFF91000019FFE100
00CFF900000000BFF800
04FFD1000000003FFE00
09FF70000000000DFF30
0DFF3000000000079930
0FFF0000000000000000
2FFE0000000000000000
2FFD0000000000000000
2FFD0000000000000000
2FFD0000000000000000
1FFE0000000000000000
0FFF0000000000000000
0DFF3000000000068830
09FF70000000000DFF30
04FFD0000000003FFE00
00CFF800000000AFF800
003FFF80000008FFE100
0005FFFE977AEFFF4000
00004DFFFFFFFFD30000
0000016BDFEDA5000000
ENDCHAR
STARTCHAR cacute
ENCODING 263
SWIDTH 523 0
DWIDTH 17 0
BBX 15 24 1 0
BITMAP
000000009FFC0000
00000004FFD10000
0000001DFE300000
0000009FF5000000
000001AD70000000
0000000000000000
0000000000000000
00004ADFED820000
0009FFFFFFFF6000
00AFFE966AFFF600
06FFD200005FFE10
0DFF30000008FF60
3FFB00000003FF90
6FF7000000002210
7FF6000000000000
8FF5000000000000
8FF5000000000000
6FF7000000000000
3FFB00000001AA60
0DFF20000006FF70
06FFC100003EFE10
00BFFE967AFFF500
000AFFFFFFFE5000
000049DEEC710000
ENDCHAR
STARTCHAR Ccircumflex
ENCODING 264
SWIDTH 650 0
DWIDTH 21 0
BBX 19 29 1 0
BITMAP
00000001BFD300000000
0000002DFDFE40000000
000003EFB08FF5000000
000009DB0008DA200000
00000000000000000000
00000000000000000000
0000005ADFEDA6000000
00004DFFFFFFFFD30000
0005FFFEA88AEFFF4000
003FFF91000019FFE100
00CFF900000000BFF800
04FFD1000000003FFE00
09FF70000000000DFF30
0DFF3000000000079930
0FFF0000000000000000
2FFE0000000000000000
2FFD0000000000000000
2FFD0000000000000000
2FFD0000000000000000
1FFE0000000000000000
0FFF0000000000000000
0DFF3000000000068830
09FF70000000000DFF30
04FFD0000000003FFE00
00CFF800000000AFF800
003FFF80000008FFE100
0005FFFE977AEFFF4000
00004DFFFFFFFFD30000
0000016BDFEDA5000000
ENDCHAR
STARTCHAR ccircumflex
ENCODING 265
SWIDTH 523 0
DWIDTH 17 0
BBX 15 23 1 0
BITMAP
000003EFB1000000
00005EFDFC100000
0006FF71CFD20000
002AE7001CC80000
0000000000000000
0000000000000000
00004ADFED820000
0009FFFFFFFF6000
00AFFE966AFFF600
06FFD200005FFE10
0DFF30000008FF60
3FFB00000003FF90
6FF7000000002210
7FF6000000000000
8FF5000000000000
8FF5000000000000
6FF7000000000000
3FFB00000001AA60
0DFF20000006FF70
06FFC100003EFE10
00BFFE967AFFF500
000AFFFFFFFE5000
000049DEEC710000
ENDCHAR
STARTCHAR Cdotaccent
ENCODING 266
SWIDTH 650 0
DWIDTH 21 0
BBX 19 29 1 0
BITMAP
00000000142000000000
00000000CFE200000000
00000001FFF400000000
000000009EB100000000
00000000000000000000
00000000000000000000
0000005ADFEDA6000000
00004DFFFFFFFFD30000
0005FFFEA88AEFFF4000
003FFF91000019FFE100
00CFF900000000BFF800
04FFD1000000003FFE00
09FF70000000000DFF30
0DFF3000000000079930
0FFF0000000000000000
2FFE0000000000000000
2FFD0000000000000000
2FFD0000000000000000
2FFD0000000000000000
1FFE0000000000000000
0FFF0000000000000000
0DFF3000000000068830
09FF70000000000DFF30
04FFD0000000003FFE00
00CFF800000000AFF800
003FFF80000008FFE100
0005FFFE977AEFFF4000
00004DFFFFFFFFD30000
0000016BDFEDA5000000
ENDCHAR
STARTCHAR cdotaccent
ENCODING 267
SWIDTH 523 0
DWIDTH 17 0
BBX 15 23 1 0
BITMAP
0000002410000000
000002FFB0000000
000005FFF0000000
000001CE80000000
0000000000000000
0000000000000000
00004ADFED820000
0009FFFFFFFF6000
00AFFE966AFFF600
06FFD200005FFE10
0DFF30000008FF60
3FFB00000003FF90
6FF7000000002210
7FF6000000000000
8FF5000000000000
8FF5000000000000
6FF7000000000000
3FFB00000001AA60
0DFF20000006FF70
06FFC100003EFE10
00BFFE967AFFF500
000AFFFFFFFE5000
000049DEEC710000
ENDCHAR
STARTCHAR Ccaron
ENCODING 268
SWIDTH 650 0
DWIDTH 21 0
BBX 19 29 1 0
BITMAP
00001CFB0008FE200000
000001CFA08FD2000000
0000001CFDFD20000000
00000001BFD200000000
00000000000000000000
00000000000000000000
0000005ADFEDA6000000
00004DFFFFFFFFD30000
0005FFFEA88AEFFF4000
003FFF91000019FFE100
00CFF900000000BFF800
04FFD1000000003FFE00
09FF70000000000DFF30
0DFF3000000000079930
0FFF0000000000000000
2FFE0000000000000000
2FFD0000000000000000
2FFD0000000000000000
2FFD0000000000000000
1FFE0000000000000000
0FFF0000000000000000
0DFF3000000000068830
09FF70000000000DFF30
04FFD0000000003FFE00
00CFF800000000AFF800
003FFF80000008FFE100
0005FFFE977AEFFF4000
00004DFFFFFFFFD30000
0000016BDFEDA5000000
ENDCHAR
STARTCHAR ccaron
ENCODING 269
SWIDTH 523 0
DWIDTH 17 0
BBX 15 23 1 0
BITMAP
003EF6001CFB0000
0003EF61CFB00000
00003EFDFA000000
000003EFA0000000
0000000000000000
0000000000000000
00004ADFED820000
0009FFFFFFFF6000
00AFFE966AFFF600
06FFD200005FFE10
0DFF30000008FF60
3FFB00000003FF90
6FF7000000002210
7FF6000000000000
8FF5000000000000
8FF5000000000000
6FF7000000000000
3FFB00000001AA60
0DFF20000006FF70
06FFC100003EFE10
00BFFE967AFFF500
000AFFFFFFFE5000
000049DEEC710000
ENDCHAR
STARTCHAR Dcaron
ENCODING 270
SWIDTH 655 0
DWIDTH 21 0
BBX 18 29 2 0
BITMAP
001DF9000AFD100000
0002DF909FD1000000
00001DFDFC10000000
000001CFC100000000
000000000000000000
000000000000000000
5FFFFFFFDB71000000
5FFFFFFFFFFF800000
5FFC77789DFFFC1000
5FFA0000004DFFB000
5FFA00000001DFF700
5FFA000000003FFE10
5FFA000000000AFF60
5FFA0000000004FFA0
5FFA0000000001FFD0
5FFA0000000000EFF0
5FFA0000000000DFF1
5FFA0000000000DFF1
5FFA0000000000EFF1
5FFA0000000000FFF0
5FFA0000000001FFE0
5FFA0000000005FFB0
5FFA000000000AFF60
5FFA000000003FFE10
5FFA00000002DFF700
5FFA0000005EFFC000
5FFC77789DFFFC1000
5FFFFFFFFFFE800000
5FFFFFFFDB61000000
ENDCHAR
STARTCHAR dcaron
ENCODING 271
SWIDTH 637 0
DWIDTH 20 0
BBX 20 24 1 0
BITMAP
000000000002FFB01FFA
000000000002FFB02FF9
000000000002FFB03FF7
000000000002FFB08FF2
000000000002FFB1EFA0
000000000002FFB06B10
000000000002FFB00000
00006CEFD922FFB00000
001CFFFFFFF8FFB00000
00CFFFA78BFFFFB00000
06FFE300004EFFB00000
0DFF40000005FFB00000
3FFD00000002FFB00000
6FF900000002FFB00000
7FF700000002FFB00000
8FF600000002FFB00000
7FF600000002FFB00000
5FF800000002FFB00000
2FFC00000002FFB00000
0DFF40000006FFB00000
06FFE300004EFFB00000
00BFFFA78BFFFFB00000
001CFFFFFFF6FFB00000
00006CEFD920EFB00000
ENDCHAR
STARTCHAR Dcroat
ENCODING 272
SWIDTH 670 0
DWIDTH 21 0
BBX 20 23 0 0
BITMAP
000DFFFFFFEC94000000
000DFFFFFFFFFFC30000
000DFF87778BFFFF5000
000DFF20000019FFF400
000DFF200000007FFD10
000DFF200000000AFF70
000DFF2000000003FFD0
000DFF2000000000CFF2
000DFF20000000009FF5
000DFF20000000007FF7
DFFFFFFFFF1000006FF8
DFFFFFFFFF1000006FF8
555EFF65550000006FF8
000DFF20000000007FF7
000DFF20000000009FF6
000DFF2000000000DFF3
000DFF2000000003FFD0
000DFF200000000BFF70
000DFF200000008FFE10
000DFF2000002AFFF400
000DFF87778BFFFF5000
000DFFFFFFFFFFC30000
000DFFFFFFEC94000000
ENDCHAR
STARTCHAR dcroat
ENCODING 273
SWIDTH 597 0
DWIDTH 19 0
BBX 18 24 1 0
BITMAP
000000000002FFB000
000000000002FFB000
00000004FFFFFFFFFA
00000004FFFFFFFFFA
000000015557FFD554
000000000002FFB000
000000000002FFB000
00006CEFD922FFB000
001CFFFFFFF8FFB000
00CFFFA78BFFFFB000
06FFE300004EFFB000
0DFF40000005FFB000
3FFD00000002FFB000
6FF900000002FFB000
7FF700000002FFB000
8FF600000002FFB000
7FF600000002FFB000
5FF800000002FFB000
2FFC00000002FFB000
0DFF40000006FFB000
06FFE300004EFFB000
00BFFFA78BFFFFB000
001CFFFFFFF6FFB000
00006CEFD920EFB000
ENDCHAR
STARTCHAR Emacron
ENCODING 274
SWIDTH 568 0
DWIDTH 18 0
BBX 16 29 2 0
BITMAP
0024444444444000
008FFFFFFFFFF000
008FFFFFFFFFF000
0000000000000000
0000000000000000
0000000000000000
5FFFFFFFFFFFFFE0
5FFFFFFFFFFFFFE0
5FFC777777777770
5FFA000000000000
5FFA000000000000
5FFA000000000000
5FFA000000000000
5FFA000000000000
5FFA000000000000
5FFA000000000000
5FFFFFFFFFFFF800
5FFFFFFFFFFFF800
5FFC777777777300
5FFA000000000000
5FFA000000000000
5FFA000000000000
5FFA000000000000
5FFA000000000000
5FFA000000000000
5FFA000000000000
5FFC777777777771
5FFFFFFFFFFFFFF1
5FFFFFFFFFFFFFF1
ENDCHAR
STARTCHAR emacron
ENCODING 275
SWIDTH 529 0
DWIDTH 17 0
BBX 15 24 1 0
BITMAP
0014444444444100
005FFFFFFFFFF200
005FFFFFFFFFF200
0000000000000000
0000000000000000
0000000000000000
0000000000000000
000029DFEC820000
0006FFFFFFFE5000
007FFF967BFFF300
03FFE200006FFC00
0BFF5000000BFF40
1FFC00000005FF80
5FF900000002FFA0
7FFFFFFFFFFFFFB0
8FFFFFFFFFFFFFC0
8FF9666666666640
6FF7000000000000
3FFB000000000000
0DFF400000003100
06FFE4000005ED30
00AFFFB767CFFD20
0008FFFFFFFFC200
000029CEFDA50000
ENDCHAR
STARTCHAR Ebreve
ENCODING 276
SWIDTH 568 0
DWIDTH 18 0
BBX 16 28 2 0
BITMAP
000EF70001FF5000
000AFD2009FF1000
0002EFFDFFF70000
000029DFEB400000
0000000000000000
5FFFFFFFFFFFFFE0
5FFFFFFFFFFFFFE0
5FFC777777777770
5FFA000000000000
5FFA000000000000
5FFA000000000000
5FFA000000000000
5FFA000000000000
5FFA000000000000
5FFA000000000000
5FFFFFFFFFFFF800
5FFFFFFFFFFFF800
5FFC777777777300
5FFA000000000000
5FFA000000000000
5FFA000000000000
5FFA000000000000
5FFA000000000000
5FFA000000000000
5FFA000000000000
5FFC777777777771
5FFFFFFFFFFFFFF1
5FFFFFFFFFFFFFF1
ENDCHAR
STARTCHAR ebreve
ENCODING 277
SWIDTH 529 0
DWIDTH 17 0
BBX 15 23 1 0
BITMAP
000CF90000EF7000
0008FE3007FF3000
0001DFFEEFF90000
000018DFEC600000
0000000000000000
0000000000000000
000029DFEC820000
0006FFFFFFFE5000
007FFF967BFFF300
03FFE200006FFC00
0BFF5000000BFF40
1FFC00000005FF80
5FF900000002FFA0
7FFFFFFFFFFFFFB0
8FFFFFFFFFFFFFC0
8FF9666666666640
6FF7000000000000
3FFB000000000000
0DFF400000003100
06FFE4000005ED30
00AFFFB767CFFD20
0008FFFFFFFFC200
000029CEFDA50000
ENDCHAR
STARTCHAR Edotaccent
ENCODING 278
SWIDTH 568 0
DWIDTH 18 0
BBX 16 29 2 0
BITMAP
0000001420000000
000000CFF2000000
000000FFF5000000
0000008EC1000000
0000000000000000
0000000000000000
5FFFFFFFFFFFFFE0
5FFFFFFFFFFFFFE0
5FFC777777777770
5FFA000000000000
5FFA000000000000
5FFA000000000000
5FFA000000000000
5FFA000000000000
5FFA000000000000
5FFA000000000000
5FFFFFFFFFFFF800
5FFFFFFFFFFFF800
5FFC777777777300
5FFA000000000000
5FFA000000000000
5FFA000000000000
5FFA000000000000
5FFA000000000000
5FFA000000000000
5FFA000000000000
5FFC777777777771
5FFFFFFFFFFFFFF1
5FFFFFFFFFFFFFF1
ENDCHAR
STARTCHAR edotaccent
ENCODING 279
SWIDTH 529 0
DWIDTH 17 0
BBX 15 23 1 0
BITMAP
0000000420000000
0000009FF4000000
000000DFF8000000
0000006ED2000000
0000000000000000
0000000000000000
000029DFEC820000
0006FFFFFFFE5000
007FFF967BFFF300
03FFE200006FFC00
0BFF5000000BFF40
1FFC00000005FF80
5FF900000002FFA0
7FFFFFFFFFFFFFB0
8FFFFFFFFFFFFFC0
8FF9666666666640
6FF7000000000000
3FFB000000000000
0DFF400000003100
06FFE4000005ED30
00AFFFB767CFFD20
0008FFFFFFFFC200
000029CEFDA50000
ENDCHAR
STARTCHAR Eogonek
ENCODING 280
SWIDTH 568 0
DWIDTH 18 0
BBX 16 30 2 -7
BITMAP
5FFFFFFFFFFFFFE0
5FFFFFFFFFFFFFE0
5FFC777777777770
5FFA000000000000
5FFA000000000000
5FFA000000000000
5FFA000000000000
5FFA000000000000
5FFA000000000000
5FFA000000000000
5FFFFFFFFFFFF800
5FFFFFFFFFFFF800
5FFC777777777300
5FFA000000000000
5FFA000000000000
5FFA000000000000
5FFA000000000000
5FFA000000000000
5FFA000000000000
5FFA000000000000
5FFC777777777771
5FFFFFFFFFFFFFF1
5FFFFFFFFFFFFFF1
00000000006FF600
0000000005FF4000
000000000EF90000
000000003FF50000
000000002FFA3610
000000000CFFFF30
0000000002BEEA10
ENDCHAR
STARTCHAR eogonek
ENCODING 281
SWIDTH 529 0
DWIDTH 17 0
BBX 15 24 1 -7
BITMAP
000029DFEC820000
0006FFFFFFFE5000
007FFF967BFFF300
03FFE200006FFC00
0BFF5000000BFF40
1FFC00000005FF80
5FF900000002FFA0
7FFFFFFFFFFFFFB0
8FFFFFFFFFFFFFC0
8FF9666666666640
6FF7000000000000
3FFB000000000000
0DFF400000003100
06FFE4000005ED30
00AFFFB767CFFD20
0008FFFFFFFFC200
000039CEFFF70000
00000006FF500000
0000001EF9000000
0000005FF3000000
0000007FF1000000
0000006FF7350000
0000001EFFFE0000
00000003CED80000
ENDCHAR
STARTCHAR Ecaron
ENCODING 282
SWIDTH 568 0
DWIDTH 18 0
BBX 16 29 2 0
BITMAP
000BFB1007FE3000
0001BFB17FE30000
00001BFDFE300000
000000BFD2000000
0000000000000000
0000000000000000
5FFFFFFFFFFFFFE0
5FFFFFFFFFFFFFE0
5FFC777777777770
5FFA000000000000
5FFA000000000000
5FFA000000000000
5FFA000000000000
5FFA000000000000
5FFA000000000000
5FFA000000000000
5FFFFFFFFFFFF800
5FFFFFFFFFFFF800
5FFC777777777300
5FFA000000000000
5FFA000000000000
5FFA000000000000
5FFA000000000000
5FFA000000000000
5FFA000000000000
5FFA000000000000
5FFC777777777771
5FFFFFFFFFFFFFF1
5FFFFFFFFFFFFFF1
ENDCHAR
STARTCHAR ecaron
ENCODING 283
SWIDTH 529 0
DWIDTH 17 0
BBX 15 23 1 0
BITMAP
0009FD1005FF5000
00009FD15FF40000
000009FDFE400000
0000009FE4000000
0000000000000000
0000000000000000
000029DFEC820000
0006FFFFFFFE5000
007FFF967BFFF300
03FFE200006FFC00
0BFF5000000BFF40
1FFC00000005FF80
5FF900000002FFA0
7FFFFFFFFFFFFFB0
8FFFFFFFFFFFFFC0
8FF9666666666640
6FF7000000000000
3FFB000000000000
0DFF400000003100
06FFE4000005ED30
00AFFFB767CFFD20
0008FFFFFFFFC200
000029CEFDA50000
ENDCHAR
STARTCHAR Gcircumflex
ENCODING 284
SWIDTH 681 0
DWIDTH 22 0
BBX 19 29 1 0
BITMAP
00000002DFC200000000
0000003EFDFD30000000
000004EF90AFE4000000
00001AD9000AD9100000
00000000000000000000
00000000000000000000
0000016ADEFDB6100000
00005DFFFFFFFFE50000
0006FFFEA889EFFF6000
003FFF91000008FFF300
00CFF9000000008FFB00
04FFD1000000001EFF10
09FF80000000000AFF50
0CFF4000000000000000
0EFF1000000000000000
0FFF0000000000000000
1FFE0000000000000000
1FFE0000000000000000
1FFE000000CFFFFFFF70
1FFF000000CFFFFFFF70
0EFF20000057777BFF70
0CFF500000000008FF70
08FFA00000000008FF70
02FFF20000000008FF70
00AFFC1000000008FF70
001DFFC20000004DFF60
0003EFFFB8789DFFFB10
00002BFFFFFFFFFF8100
00000039CEFEDA620000
ENDCHAR
STARTCHAR gcircumflex
ENCODING 285
SWIDTH 561 0
DWIDTH 18 0
BBX 15 30 1 -7
BITMAP
000001BFE3000000
00001CFDFE500000
0002DFC17FF60000
0008CC1007EA2000
0000000000000000
0000000000000000
00006CEFD920DFC0
001CFFFFFFF6EFC0
00CFFFA78BFFFFC0
07FFE300004EFFC0
0DFF50000005FFC0
3FFD00000002FFC0
5FF900000002FFC0
7FF700000002FFC0
7FF600000002FFC0
7FF700000002FFC0
5FF900000002FFC0
2FFD00000002FFC0
0CFF40000006FFC0
06FFE300004EFFC0
00BFFFA78BFFFFC0
001CFFFFFFF8FFC0
00006CEFD922FFC0
000000000003FFB0
000000000006FF90
00A60000000BFF50
06FF6000008FFE10
02EFFC767CFFF500
002CFFFFFFFE5000
00005ADFEC810000
ENDCHAR
STARTCHAR Gbreve
ENCODING 286
SWIDTH 681 0
DWIDTH 22 0
BBX 19 28 1 0
BITMAP
00002FF40004FF200000
00000DFB101BFD000000
000004FFFDFFF4000000
0000003AEFEA30000000
00000000000000000000
0000016ADEFDB6100000
00005DFFFFFFFFE50000
0006FFFEA889EFFF6000
003FFF91000008FFF300
00CFF9000000008FFB00
04FFD1000000001EFF10
09FF80000000000AFF50
0CFF4000000000000000
0EFF1000000000000000
0FFF0000000000000000
1FFE0000000000000000
1FFE0000000000000000
1FFE000000CFFFFFFF70
1FFF000000CFFFFFFF70
0EFF20000057777BFF70
0CFF500000000008FF70
08FFA00000000008FF70
02FFF20000000008FF70
00AFFC1000000008FF70
001DFFC20000004DFF60
0003EFFFB8789DFFFB10
00002BFFFFFFFFFF8100
00000039CEFEDA620000
ENDCHAR
STARTCHAR gbreve
ENCODING 287
SWIDTH 561 0
DWIDTH 18 0
BBX 15 30 1 -7
BITMAP
000EF70001FF5000
000AFD2009FF1000
0002EFFEFFF70000
000029DFEB400000
0000000000000000
0000000000000000
00006CEFD920DFC0
001CFFFFFFF6EFC0
00CFFFA78BFFFFC0
07FFE300004EFFC0
0DFF50000005FFC0
3FFD00000002FFC0
5FF900000002FFC0
7FF700000002FFC0
7FF600000002FFC0
7FF700000002FFC0
5FF900000002FFC0
2FFD00000002FFC0
0CFF40000006FFC0
06FFE300004EFFC0
00BFFFA78BFFFFC0
001CFFFFFFF8FFC0
00006CEFD922FFC0
000000000003FFB0
000000000006FF90
00A60000000BFF50
06FF6000008FFE10
02EFFC767CFFF500
002CFFFFFFFE5000
00005ADFEC810000
ENDCHAR
STARTCHAR Gdotaccent
ENCODING 288
SWIDTH 681 0
DWIDTH 22 0
BBX 19 29 1 0
BITMAP
00000000141000000000
00000001EFD100000000
00000003FFF200000000
00000000AEA000000000
00000000000000000000
00000000000000000000
0000016ADEFDB6100000
00005DFFFFFFFFE50000
0006FFFEA889EFFF6000
003FFF91000008FFF300
00CFF9000000008FFB00
04FFD1000000001EFF10
09FF80000000000AFF50
0CFF4000000000000000
0EFF1000000000000000
0FFF0000000000000000
1FFE0000000000000000
1FFE0000000000000000
1FFE000000CFFFFFFF70
1FFF000000CFFFFFFF70
0EFF20000057777BFF70
0CFF500000000008FF70
08FFA00000000008FF70
02FFF20000000008FF70
00AFFC1000000008FF70
001DFFC20000004DFF60
0003EFFFB8789DFFFB10
00002BFFFFFFFFFF8100
00000039CEFEDA620000
ENDCHAR
STARTCHAR gdotaccent
ENCODING 289
SWIDTH 561 0
DWIDTH 18 0
BBX 15 30 1 -7
BITMAP
0000001420000000
000000BFF2000000
000000FFF5000000
0000008EC1000000
0000000000000000
0000000000000000
00006CEFD920DFC0
001CFFFFFFF6EFC0
00CFFFA78BFFFFC0
07FFE300004EFFC0
0DFF50000005FFC0
3FFD00000002FFC0
5FF900000002FFC0
7FF700000002FFC0
7FF600000002FFC0
7FF700000002FFC0
5FF900000002FFC0
2FFD00000002FFC0
0CFF40000006FFC0
06FFE300004EFFC0
00BFFFA78BFFFFC0
001CFFFFFFF8FFC0
00006CEFD922FFC0
000000000003FFB0
000000000006FF90
00A60000000BFF50
06FF6000008FFE10
02EFFC767CFFF500
002CFFFFFFFE5000
00005ADFEC810000
ENDCHAR
STARTCHAR uni0122
ENCODING 290
SWIDTH 681 0
DWIDTH 22 0
BBX 19 31 1 -8
BITMAP
0000016ADEFDB6100000
00005DFFFFFFFFE50000
0006FFFEA889EFFF6000
003FFF91000008FFF300
00CFF9000000008FFB00
04FFD1000000001EFF10
09FF80000000000AFF50
0CFF4000000000000000
0EFF1000000000000000
0FFF0000000000000000
1FFE0000000000000000
1FFE0000000000000000
1FFE000000CFFFFFFF70
1FFF000000CFFFFFFF70
0EFF20000057777BFF70
0CFF500000000008FF70
08FFA00000000008FF70
02FFF20000000008FF70
00AFFC1000000008FF70
001DFFC20000004DFF60
0003EFFFB8789DFFFB10
00002BFFFFFFFFFF8100
00000039CEFEDA620000
00000000000000000000
00000000000000000000
000000000FFC00000000
000000000FFB00000000
000000002FF900000000
000000006FF400000000
00000000DFB000000000
000000005C2000000000
ENDCHAR
STARTCHAR uni0123
ENCODING 291
SWIDTH 561 0
DWIDTH 18 0
BBX 15 33 1 -7
BITMAP
00000002B2000000
0000000CFD000000
0000004FF8000000
0000009FF4000000
000000CFF1000000
000000DFF1000000
000000DFF1000000
0000000000000000
0000000000000000
00006CEFD920DFC0
001CFFFFFFF6EFC0
00CFFFA78BFFFFC0
07FFE300004EFFC0
0DFF50000005FFC0
3FFD00000002FFC0
5FF900000002FFC0
7FF700000002FFC0
7FF600000002FFC0
7FF700000002FFC0
5FF900000002FFC0
2FFD00000002FFC0
0CFF40000006FFC0
06FFE300004EFFC0
00BFFFA78BFFFFC0
001CFFFFFFF8FFC0
00006CEFD922FFC0
000000000003FFB0
000000000006FF90
00A60000000BFF50
06FF6000008FFE10
02EFFC767CFFF500
002CFFFFFFFE5000
00005ADFEC810000
ENDCHAR
STARTCHAR Hcircumflex
ENCODING 292
SWIDTH 712 0
DWIDTH 23 0
BBX 19 29 2 0
BITMAP
00000005FF8000000000
0000007FFDFA00000000
000009FF42DFC1000000
00004BE5002DC6000000
00000000000000000000
00000000000000000000
5FFA00000000000DFF20
5FFA00000000000DFF20
5FFA00000000000DFF20
5FFA00000000000DFF20
5FFA00000000000DFF20
5FFA00000000000DFF20
5FFA00000000000DFF20
5FFA00000000000DFF20
5FFA00000000000DFF20
5FFA00000000000DFF20
5FFFFFFFFFFFFFFFFF20
5FFFFFFFFFFFFFFFFF20
5FFC77777777777EFF20
5FFA00000000000DFF20
5FFA00000000000DFF20
5FFA00000000000DFF20
5FFA00000000000DFF20
5FFA00000000000DFF20
5FFA00000000000DFF20
5FFA00000000000DFF20
5FFA00000000000DFF20
5FFA00000000000DFF20
5FFA00000000000DFF20
ENDCHAR
STARTCHAR hcircumflex
ENCODING 293
SWIDTH 550 0
DWIDTH 18 0
BBX 14 29 2 0
BITMAP
00009FE4000000
001BFDFF600000
02CFD15FF80000
07CD2005EB3000
00000000000000
CFF10000000000
CFF10000000000
CFF10000000000
CFF10000000000
CFF10000000000
CFF10000000000
CFF10000000000
CFF117CEFD8100
CFF4DFFFFFFE20
CFFEFC88AFFFB0
CFFF600003FFF2
CFF7000000AFF5
CFF10000007FF7
CFF10000006FF7
CFF10000006FF7
CFF10000006FF7
CFF10000006FF7
CFF10000006FF7
CFF10000006FF7
CFF10000006FF7
CFF10000006FF7
CFF10000006FF7
CFF10000006FF7
CFF10000006FF7
ENDCHAR
STARTCHAR Hbar
ENCODING 294
SWIDTH 700 0
DWIDTH 22 0
BBX 23 23 0 0
BITMAP
007FF800000000000FFF0000
007FF800000000000FFF0000
007FF800000000000FFF0000
007FF800000000000FFF0000
007FF800000000000FFF0000
8FFFFFFFFFFFFFFFFFFFFF20
8FFFFFFFFFFFFFFFFFFFFF20
239FFA33333333333FFF4300
007FF800000000000FFF0000
007FF800000000000FFF0000
007FFFFFFFFFFFFFFFFF0000
007FFFFFFFFFFFFFFFFF0000
007FFB77777777777FFF0000
007FF800000000000FFF0000
007FF800000000000FFF0000
007FF800000000000FFF0000
007FF800000000000FFF0000
007FF800000000000FFF0000
007FF800000000000FFF0000
007FF800000000000FFF0000
007FF800000000000FFF0000
007FF800000000000FFF0000
007FF800000000000FFF0000
ENDCHAR
STARTCHAR hbar
ENCODING 295
SWIDTH 565 0
DWIDTH 18 0
BBX 17 24 -1 0
BITMAP
0005FF800000000000
0005FF800000000000
7FFFFFFFFF70000000
7FFFFFFFFF70000000
3559FFB55530000000
0005FF800000000000
0005FF800000000000
0005FF804ADFEB5000
0005FF89FFFFFFF800
0005FFEFFA79DFFF30
0005FFFC20000BFF90
0005FFD1000003FFC0
0005FF80000000FFE0
0005FF80000000EFE0
0005FF80000000EFE0
0005FF80000000EFE0
0005FF80000000EFE0
0005FF80000000EFE0
0005FF80000000EFE0
0005FF80000000EFE0
0005FF80000000EFE0
0005FF80000000EFE0
0005FF80000000EFE0
0005FF80000000EFE0
ENDCHAR
STARTCHAR Itilde
ENCODING 296
SWIDTH 271 0
DWIDTH 9 0
BBX 12 29 -2 0
BITMAP
000131000175
02BFFEA54AFB
0BFFFFFFFFF5
1EE3039DFC50
000000000000
000000000000
00002FFD0000
00002FFD0000
00002FFD0000
00002FFD0000
00002FFD0000
00002FFD0000
00002FFD0000
00002FFD0000
00002FFD0000
00002FFD0000
00002FFD0000
00002FFD0000
00002FFD0000
00002FFD0000
00002FFD0000
00002FFD0000
00002FFD0000
00002FFD0000
00002FFD0000
00002FFD0000
00002FFD0000
00002FFD0000
00002FFD0000
ENDCHAR
STARTCHAR itilde
ENCODING 297
SWIDTH 247 0
DWIDTH 8 0
BBX 12 23 -2 0
BITMAP
000220000362
05EFFD745DF5
3FFFFFFFFFD1
6EA115BEEA20
000000000000
000000000000
00009FF50000
00009FF50000
00009FF50000
00009FF50000
00009FF50000
00009FF50000
00009FF50000
00009FF50000
00009FF50000
00009FF50000
00009FF50000
00009FF50000
00009FF50000
00009FF50000
00009FF50000
00009FF50000
00009FF50000
ENDCHAR
STARTCHAR Imacron
ENCODING 298
SWIDTH 271 0
DWIDTH 9 0
BBX 11 29 -1 0
BITMAP
344444444420
CFFFFFFFFFA0
CFFFFFFFFFA0
000000000000
000000000000
000000000000
0002FFD00000
0002FFD00000
0002FFD00000
0002FFD00000
0002FFD00000
0002FFD00000
0002FFD00000
0002FFD00000
0002FFD00000
0002FFD00000
0002FFD00000
0002FFD00000
0002FFD00000
0002FFD00000
0002FFD00000
0002FFD00000
0002FFD00000
0002FFD00000
0002FFD00000
0002FFD00000
0002FFD00000
0002FFD00000
0002FFD00000
ENDCHAR
STARTCHAR imacron
ENCODING 299
SWIDTH 247 0
DWIDTH 8 0
BBX 12 24 -2 0
BITMAP
144444444441
3FFFFFFFFFF4
3FFFFFFFFFF4
000000000000
000000000000
000000000000
000000000000
00009FF50000
00009FF50000
00009FF50000
00009FF50000
00009FF50000
00009FF50000
00009FF50000
00009FF50000
00009FF50000
00009FF50000
00009FF50000
00009FF50000
00009FF50000
00009FF50000
00009FF50000
00009FF50000
00009FF50000
ENDCHAR
STARTCHAR Ibreve
ENCODING 300
SWIDTH 271 0
DWIDTH 9 0
BBX 10 28 -1 0
BITMAP
4FF20006FF
1EFA102DFB
06FFFDFFE3
004BEFD920
0000000000
0002FFD000
0002FFD000
0002FFD000
0002FFD000
0002FFD000
0002FFD000
0002FFD000
0002FFD000
0002FFD000
0002FFD000
0002FFD000
0002FFD000
0002FFD000
0002FFD000
0002FFD000
0002FFD000
0002FFD000
0002FFD000
0002FFD000
0002FFD000
0002FFD000
0002FFD000
0002FFD000
ENDCHAR
STARTCHAR ibreve
ENCODING 301
SWIDTH 247 0
DWIDTH 8 0
BBX 10 23 -1 0
BITMAP
AFB0000CF9
6FF4006FF5
0BFFEEFFB0
007CFFC700
0000000000
0000000000
0009FF5000
0009FF5000
0009FF5000
0009FF5000
0009FF5000
0009FF5000
0009FF5000
0009FF5000
0009FF5000
0009FF5000
0009FF5000
0009FF5000
0009FF5000
0009FF5000
0009FF5000
0009FF5000
0009FF5000
ENDCHAR
STARTCHAR Iogonek
ENCODING 302
SWIDTH 271 0
DWIDTH 9 0
BBX 6 30 0 -7
BITMAP
002FFD
002FFD
002FFD
002FFD
002FFD
002FFD
002FFD
002FFD
002FFD
002FFD
002FFD
002FFD
002FFD
002FFD
002FFD
002FFD
002FFD
002FFD
002FFD
002FFD
002FFD
002FFD
002FFF
01CFC1
0CFC10
5FF300
9FE000
8FF535
3FFFFC
05DED7
ENDCHAR
STARTCHAR iogonek
ENCODING 303
SWIDTH 242 0
DWIDTH 8 0
BBX 7 31 -1 -7
BITMAP
00004300
0008FF50
000BFF90
0005ED30
00000000
00000000
00000000
0008FF50
0008FF50
0008FF50
0008FF50
0008FF50
0008FF50
0008FF50
0008FF50
0008FF50
0008FF50
0008FF50
0008FF50
0008FF50
0008FF50
0008FF50
0008FF50
000BFF50
005FF700
04FF6000
0CFB0000
1FF70000
0FFB3520
0AFFFF50
01AEEB20
ENDCHAR
STARTCHAR Idotaccent
ENCODING 304
SWIDTH 271 0
DWIDTH 9 0
BBX 4 29 2 0
BITMAP
0241
2EFC
5FFF
1CE8
0000
0000
2FFD
2FFD
2FFD
2FFD
2FFD
2FFD
2FFD
2FFD
2FFD
2FFD
2FFD
2FFD
2FFD
2FFD
2FFD
2FFD
2FFD
2FFD
2FFD
2FFD
2FFD
2FFD
2FFD
ENDCHAR
STARTCHAR dotlessi
ENCODING 305
SWIDTH 247 0
DWIDTH 8 0
BBX 4 17 2 0
BITMAP
9FF5
9FF5
9FF5
9FF5
9FF5
9FF5
9FF5
9FF5
9FF5
9FF5
9FF5
9FF5
9FF5
9FF5
9FF5
9FF5
9FF5
ENDCHAR
STARTCHAR IJ
ENCODING 306
SWIDTH 823 0
DWIDTH 26 0
BBX 22 23 2 0
BITMAP
2FFD000000000000002FFD
2FFD000000000000002FFD
2FFD000000000000002FFD
2FFD000000000000002FFD
2FFD000000000000002FFD
2FFD000000000000002FFD
2FFD000000000000002FFD
2FFD000000000000002FFD
2FFD000000000000002FFD
2FFD000000000000002FFD
2FFD000000000000002FFD
2FFD000000000000002FFD
2FFD000000000000002FFD
2FFD000000000000002FFD
2FFD000000000000002FFD
2FFD000000000000002FFD
2FFD000499500000002FFD
2FFD0006FFA00000005FFB
2FFD0003FFE1000000AFF8
2FFD0000CFFA000007FFF2
2FFD00004FFFD978CFFF70
2FFD000005EFFFFFFFF700
2FFD00000017BEFEC82000
ENDCHAR
STARTCHAR ij
ENCODING 307
SWIDTH 481 0
DWIDTH 15 0
BBX 12 31 2 -7
BITMAP
043000001410
8FF50001EFD0
BFF90003FFF2
5ED30000BE90
000000000000
000000000000
000000000000
8FF50000EFE0
8FF50000EFE0
8FF50000EFE0
8FF50000EFE0
8FF50000EFE0
8FF50000EFE0
8FF50000EFE0
8FF50000EFE0
8FF50000EFE0
8FF50000EFE0
8FF50000EFE0
8FF50000EFE0
8FF50000EFE0
8FF50000EFE0
8FF50000EFE0
8FF50000EFE0
8FF50000EFE0
00000000EFE0
00000000EFE0
00000000FFE0
00000003FFC0
0000278EFF80
00004FFFFE10
00003DFEA200
ENDCHAR
STARTCHAR Jcircumflex
ENCODING 308
SWIDTH 551 0
DWIDTH 18 0
BBX 18 29 0 0
BITMAP
000000000003EFA100
00000000005FFDFC10
0000000007FF61CFD2
000000002AE7001CC8
000000000000000000
000000000000000000
000000000000CFF300
000000000000CFF300
000000000000CFF300
000000000000CFF300
000000000000CFF300
000000000000CFF300
000000000000CFF300
000000000000CFF300
000000000000CFF300
000000000000CFF300
000000000000CFF300
000000000000CFF300
000000000000CFF300
000000000000CFF300
000000000000CFF300
000000000000CFF300
199800000000DFF200
1FFE00000001FFF100
0DFF40000006FFC000
08FFD200004EFF6000
01DFFFA77BFFFB0000
002CFFFFFFFFB10000
00005ADFFDA4000000
ENDCHAR
STARTCHAR jcircumflex
ENCODING 309
SWIDTH 251 0
DWIDTH 8 0
BBX 11 30 -2 -7
BITMAP
00005FF90000
0007FFDFA100
009FF52DFC10
04BE5002DC70
000000000000
000000000000
00005FF90000
00005FF90000
00005FF90000
00005FF90000
00005FF90000
00005FF90000
00005FF90000
00005FF90000
00005FF90000
00005FF90000
00005FF90000
00005FF90000
00005FF90000
00005FF90000
00005FF90000
00005FF90000
00005FF90000
00005FF90000
00005FF90000
00006FF80000
0000BFF50000
076AFFE10000
1FFFFF500000
2DFEA3000000
ENDCHAR
STARTCHAR uni0136
ENCODING 310
SWIDTH 626 0
DWIDTH 20 0
BBX 18 29 2 -6
BITMAP
5FFA000000000AFFD1
5FFA000000009FFE20
5FFA00000007FFE300
5FFA0000005FFF5000
5FFA000004FFF60000
5FFA00003EFF800000
5FFA0002EFFA000000
5FFA001DFFB0000000
5FFA01CFFC10000000
5FFA0AFFD200000000
5FFA9FFFA000000000
5FFEFFFFF600000000
5FFFFF9FFF30000000
5FFFF50AFFD1000000
5FFF5001DFFA000000
5FFA00003FFF700000
5FFA000006FFF30000
5FFA000000AFFD1000
5FFA0000001DFFA000
5FFA00000003FFF700
5FFA000000006FFF30
5FFA000000000AFFD1
5FFA0000000001DFFA
0000001FFA00000000
0000002FF900000000
0000003FF700000000
0000008FF200000000
000001EFA000000000
0000006B1000000000
ENDCHAR
STARTCHAR uni0137
ENCODING 311
SWIDTH 506 0
DWIDTH 16 0
BBX 14 30 2 -6
BITMAP
CFF10000000000
CFF10000000000
CFF10000000000
CFF10000000000
CFF10000000000
CFF10000000000
CFF10000000000
CFF1000008FFD1
CFF100008FFE20
CFF10007FFE300
CFF1006FFE3000
CFF105FFF40000
CFF14FFF500000
CFF4EFF6000000
CFFEFFF3000000
CFFFFFFD100000
CFFF8CFF900000
CFF902EFF50000
CFF1005FFE2000
CFF10009FFC000
CFF10000CFF900
CFF100002EFF50
CFF1000005FFE2
CFF10000009FFC
00002FF9000000
00002FF9000000
00004FF7000000
00009FF2000000
0001EF90000000
00007B10000000
ENDCHAR
STARTCHAR kgreenlandic
ENCODING 312
SWIDTH 556 0
DWIDTH 18 0
BBX 15 17 2 0
BITMAP
9FF50000008FFD10
9FF5000006FFE300
9FF500004FFF4000
9FF50003EFF50000
9FF5002EFF700000
9FF501DFF9000000
9FF51CFFB0000000
9FFFFFFC10000000
9FFFFFFB00000000
9FFA8EFF90000000
9FF504FFF7000000
9FF5005FFF500000
9FF50007FFE30000
9FF50000AFFD2000
9FF500000BFFC100
9FF5000001DFFA00
9FF50000002EFF80
ENDCHAR
STARTCHAR Lacute
ENCODING 313
SWIDTH 538 0
DWIDTH 17 0
BBX 15 30 2 0
BITMAP
000CFF9000000000
007FFB0000000000
03FFD10000000000
0CFE200000000000
3BE4000000000000
0000000000000000
0000000000000000
5FFA000000000000
5FFA000000000000
5FFA000000000000
5FFA000000000000
5FFA000000000000
5FFA000000000000
5FFA000000000000
5FFA000000000000
5FFA000000000000
5FFA000000000000
5FFA000000000000
5FFA000000000000
5FFA000000000000
5FFA000000000000
5FFA000000000000
5FFA000000000000
5FFA000000000000
5FFA000000000000
5FFA000000000000
5FFA000000000000
5FFC777777777730
5FFFFFFFFFFFFF70
5FFFFFFFFFFFFF70
ENDCHAR
STARTCHAR lacute
ENCODING 314
SWIDTH 242 0
DWIDTH 8 0
BBX 7 31 2 0
BITMAP
001EFF60
00AFF800
05FFB000
2EFC1000
5BD20000
00000000
00000000
8FF50000
8FF50000
8FF50000
8FF50000
8FF50000
8FF50000
8FF50000
8FF50000
8FF50000
8FF50000
8FF50000
8FF50000
8FF50000
8FF50000
8FF50000
8FF50000
8FF50000
8FF50000
8FF50000
8FF50000
8FF50000
8FF50000
8FF50000
8FF50000
ENDCHAR
STARTCHAR uni013B
ENCODING 315
SWIDTH 538 0
DWIDTH 17 0
BBX 15 30 2 -7
BITMAP
5FFA000000000000
5FFA000000000000
5FFA000000000000
5FFA000000000000
5FFA000000000000
5FFA000000000000
5FFA000000000000
5FFA000000000000
5FFA000000000000
5FFA000000000000
5FFA000000000000
5FFA000000000000
5FFA000000000000
5FFA000000000000
5FFA000000000000
5FFA000000000000
5FFA000000000000
5FFA000000000000
5FFA000000000000
5FFA000000000000
5FFC777777777730
5FFFFFFFFFFFFF70
5FFFFFFFFFFFFF70
0000000000000000
000000BFF1000000
000000BFF0000000
000000DFD0000000
000002FF80000000
000009FE10000000
000003C400000000
ENDCHAR
STARTCHAR uni013C
ENCODING 316
SWIDTH 242 0
DWIDTH 8 0
BBX 5 31 1 -7
BITMAP
08FF50
08FF50
08FF50
08FF50
08FF50
08FF50
08FF50
08FF50
08FF50
08FF50
08FF50
08FF50
08FF50
08FF50
08FF50
08FF50
08FF50
08FF50
08FF50
08FF50
08FF50
08FF50
08FF50
08FF50
000000
07FF40
08FF40
09FF10
0DFC00
6FF400
1A7000
ENDCHAR
STARTCHAR Lcaron
ENCODING 317
SWIDTH 538 0
DWIDTH 17 0
BBX 15 23 2 0
BITMAP
5FFA0001FFA00000
5FFA0001FFA00000
5FFA0003FF800000
5FFA0008FF300000
5FFA001EFA000000
5FFA0006C1000000
5FFA000000000000
5FFA000000000000
5FFA000000000000
5FFA000000000000
5FFA000000000000
5FFA000000000000
5FFA000000000000
5FFA000000000000
5FFA000000000000
5FFA000000000000
5FFA000000000000
5FFA000000000000
5FFA000000000000
5FFA000000000000
5FFC777777777730
5FFFFFFFFFFFFF70
5FFFFFFFFFFFFF70
ENDCHAR
STARTCHAR lcaron
ENCODING 318
SWIDTH 315 0
DWIDTH 10 0
BBX 9 24 2 0
BITMAP
8FF501FFB0
8FF501FFA0
8FF503FF80
8FF507FF30
8FF51EFA00
8FF506C100
8FF5000000
8FF5000000
8FF5000000
8FF5000000
8FF5000000
8FF5000000
8FF5000000
8FF5000000
8FF5000000
8FF5000000
8FF5000000
8FF5000000
8FF5000000
8FF5000000
8FF5000000
8FF5000000
8FF5000000
8FF5000000
ENDCHAR
STARTCHAR Ldot
ENCODING 319
SWIDTH 538 0
DWIDTH 17 0
BBX 15 23 2 0
BITMAP
5FFA000000000000
5FFA000000000000
5FFA000000000000
5FFA000000000000
5FFA000000000000
5FFA000000000000
5FFA000000000000
5FFA000000000000
5FFA000042000000
5FFA0009FF400000
5FFA000CFF800000
5FFA0006ED200000
5FFA000000000000
5FFA000000000000
5FFA000000000000
5FFA000000000000
5FFA000000000000
5FFA000000000000
5FFA000000000000
5FFA000000000000
5FFC777777777730
5FFFFFFFFFFFFF70
5FFFFFFFFFFFFF70
ENDCHAR
STARTCHAR ldot
ENCODING 320
SWIDTH 350 0
DWIDTH 11 0
BBX 9 24 2 0
BITMAP
8FF5000000
8FF5000000
8FF5000000
8FF5000000
8FF5000000
8FF5000000
8FF5000000
8FF5000000
8FF5000000
8FF5004200
8FF50AFF40
8FF50DFF70
8FF506EC20
8FF5000000
8FF5000000
8FF5000000
8FF5000000
8FF5000000
8FF5000000
8FF5000000
8FF5000000
8FF5000000
8FF5000000
8FF5000000
ENDCHAR
STARTCHAR Lslash
ENCODING 321
SWIDTH 538 0
DWIDTH 17 0
BBX 17 23 0 0
BITMAP
006FFA000000000000
006FFA000000000000
006FFA000000000000
006FFA000000000000
006FFA000000000000
006FFA000000000000
006FFA000000000000
006FFA000000000000
006FFA049A00000000
006FFEEFFB00000000
16CFFFEA5100000000
7FFFFB100000000000
699FFA000000000000
006FFA000000000000
006FFA000000000000
006FFA000000000000
006FFA000000000000
006FFA000000000000
006FFA000000000000
006FFA000000000000
006FFC777777777730
006FFFFFFFFFFFFF60
006FFFFFFFFFFFFF60
ENDCHAR
STARTCHAR lslash
ENCODING 322
SWIDTH 270 0
DWIDTH 9 0
BBX 9 24 0 0
BITMAP
003FFA0000
003FFA0000
003FFA0000
003FFA0000
003FFA0000
003FFA0000
003FFA0000
003FFA0000
003FFA0000
003FFB5B20
003FFFFF20
17DFFE8300
7FFFFA0000
575FFA0000
003FFA0000
003FFA0000
003FFA0000
003FFA0000
003FFA0000
003FFA0000
003FFA0000
003FFA0000
003FFA0000
003FFA0000
ENDCHAR
STARTCHAR Nacute
ENCODING 323
SWIDTH 712 0
DWIDTH 23 0
BBX 19 30 2 0
BITMAP
00000000009FFC100000
0000000004FFE2000000
000000001DFE30000000
000000009FF500000000
00000001AD7000000000
00000000000000000000
00000000000000000000
5FFE10000000000DFF20
5FFF90000000000DFF20
5FFFF4000000000DFF20
5FFFFD100000000DFF20
5FFFFF800000000DFF20
5FFDFFF30000000DFF20
5FFA8FFC0000000DFF20
5FFA1DFF7000000DFF20
5FFA04FFF200000DFF20
5FFA009FFC00000DFF20
5FFA001EFF60000DFF20
5FFA0005FFE2000DFF20
5FFA0000AFFB000DFF20
5FFA00001EFF500DFF20
5FFA000006FFE10DFF20
5FFA000000BFFA0DFF20
5FFA0000002EFF5DFF20
5FFA00000007FFDEFF20
5FFA00000000CFFFFF20
5FFA000000003FFFFF20
5FFA0000000008FFFF20
5FFA0000000000DFFF20
5FFA00000000003FFF20
ENDCHAR
STARTCHAR nacute
ENCODING 324
SWIDTH 551 0
DWIDTH 18 0
BBX 14 24 2 0
BITMAP
00000001EFF700
0000000AFF9000
0000005FFB0000
000001EFD10000
000004BD200000
00000000000000
00000000000000
CFE017CEFD8100
CFF3DFFFFFFE20
CFFEFC88AFFFB0
CFFF600003FFF2
CFF7000000AFF5
CFF10000007FF7
CFF10000006FF7
CFF10000006FF7
CFF10000006FF7
CFF10000006FF7
CFF10000006FF7
CFF10000006FF7
CFF10000006FF7
CFF10000006FF7
CFF10000006FF7
CFF10000006FF7
CFF10000006FF7
ENDCHAR
STARTCHAR uni0145
ENCODING 325
SWIDTH 712 0
DWIDTH 23 0
BBX 19 30 2 -7
BITMAP
5FFE10000000000DFF20
5FFF90000000000DFF20
5FFFF4000000000DFF20
5FFFFD100000000DFF20
5FFFFF800000000DFF20
5FFDFFF30000000DFF20
5FFA8FFC0000000DFF20
5FFA1DFF7000000DFF20
5FFA04FFF200000DFF20
5FFA009FFC00000DFF20
5FFA001EFF60000DFF20
5FFA0005FFE2000DFF20
5FFA0000AFFB000DFF20
5FFA00001EFF500DFF20
5FFA000006FFE10DFF20
5FFA000000BFFA0DFF20
5FFA0000002EFF5DFF20
5FFA00000007FFDEFF20
5FFA00000000CFFFFF20
5FFA000000003FFFFF20
5FFA0000000008FFFF20
5FFA0000000000DFFF20
5FFA00000000003FFF20
00000000000000000000
00000002FF9000000000
00000003FF8000000000
00000004FF6000000000
00000009FF2000000000
0000002EF90000000000
00000007B10000000000
ENDCHAR
STARTCHAR uni0146
ENCODING 326
SWIDTH 551 0
DWIDTH 18 0
BBX 14 24 2 -7
BITMAP
CFE017CEFD8100
CFF3DFFFFFFE20
CFFEFC88AFFFB0
CFFF600003FFF2
CFF7000000AFF5
CFF10000007FF7
CFF10000006FF7
CFF10000006FF7
CFF10000006FF7
CFF10000006FF7
CFF10000006FF7
CFF10000006FF7
CFF10000006FF7
CFF10000006FF7
CFF10000006FF7
CFF10000006FF7
CFF10000006FF7
00000000000000
000009FF200000
000009FF200000
00000BFE000000
00001FFA000000
00008FF2000000
00002B60000000
ENDCHAR
STARTCHAR Ncaron
ENCODING 327
SWIDTH 712 0
DWIDTH 23 0
BBX 19 29 2 0
BITMAP
00003EF7001CFB100000
000003EF71BFB1000000
0000003EFDFB00000000
00000002EFA000000000
00000000000000000000
00000000000000000000
5FFE10000000000DFF20
5FFF90000000000DFF20
5FFFF4000000000DFF20
5FFFFD100000000DFF20
5FFFFF800000000DFF20
5FFDFFF30000000DFF20
5FFA8FFC0000000DFF20
5FFA1DFF7000000DFF20
5FFA04FFF200000DFF20
5FFA009FFC00000DFF20
5FFA001EFF60000DFF20
5FFA0005FFE2000DFF20
5FFA0000AFFB000DFF20
5FFA00001EFF500DFF20
5FFA000006FFE10DFF20
5FFA000000BFFA0DFF20
5FFA0000002EFF5DFF20
5FFA00000007FFDEFF20
5FFA00000000CFFFFF20
5FFA000000003FFFFF20
5FFA0000000008FFFF20
5FFA0000000000DFFF20
5FFA00000000003FFF20
ENDCHAR
STARTCHAR ncaron
ENCODING 328
SWIDTH 551 0
DWIDTH 18 0
BBX 14 23 2 0
BITMAP
008FE2004EF600
0008FD24EF6000
00007FDEF50000
000007FF500000
00000000000000
00000000000000
CFE017CEFD8100
CFF3DFFFFFFE20
CFFEFC88AFFFB0
CFFF600003FFF2
CFF7000000AFF5
CFF10000007FF7
CFF10000006FF7
CFF10000006FF7
CFF10000006FF7
CFF10000006FF7
CFF10000006FF7
CFF10000006FF7
CFF10000006FF7
CFF10000006FF7
CFF10000006FF7
CFF10000006FF7
CFF10000006FF7
ENDCHAR
STARTCHAR napostrophe
ENCODING 329
SWIDTH 551 0
DWIDTH 18 0
BBX 17 24 -1 0
BITMAP
0EFD00000000000000
0EFC00000000000000
1FFA00000000000000
5FF500000000000000
CFC000000000000000
4C2000000000000000
000000000000000000
000CFE017CEFD81000
000CFF3DFFFFFFE200
000CFFEFC88AFFFB00
000CFFF600003FFF20
000CFF7000000AFF50
000CFF10000007FF70
000CFF10000006FF70
000CFF10000006FF70
000CFF10000006FF70
000CFF10000006FF70
000CFF10000006FF70
000CFF10000006FF70
000CFF10000006FF70
000CFF10000006FF70
000CFF10000006FF70
000CFF10000006FF70
000CFF10000006FF70
ENDCHAR
STARTCHAR Eng
ENCODING 330
SWIDTH 692 0
DWIDTH 22 0
BBX 18 30 2 -7
BITMAP
7FFC00000000004FFC
7FFF70000000004FFC
7FFFE2000000004FFC
7FFFFB000000004FFC
7FFFFF500000004FFC
7FFCFFE10000004FFC
7FF8AFF90000004FFC
7FF81EFF4000004FFC
7FF806FFD000004FFC
7FF800BFF800004FFC
7FF8002FFF20004FFC
7FF80008FFB0004FFC
7FF80000DFF6004FFC
7FF800004FFE104FFC
7FF800000AFFA04FFC
7FF8000001EFF44FFC
7FF80000006FFD5FFC
7FF80000000BFFCFFC
7FF800000002FFFFFC
7FF8000000008FFFFC
7FF8000000000DFFFC
7FF80000000004FFFC
7FF80000000000AFFC
000000000000004FFC
000000000000004FFB
000000000000006FFA
00000000000000BFF7
0000000000087BFFF2
00000000000FFFFF60
00000000001DFEB400
ENDCHAR
STARTCHAR eng
ENCODING 331
SWIDTH 566 0
DWIDTH 18 0
BBX 14 24 2 -7
BITMAP
BFD006CEED8200
BFF1CFFFFFFE30
BFFCFB879EFFD0
BFFD300002EFF4
BFF40000007FF8
BFF30000003FFA
BFF30000002FFB
BFF30000002FFB
BFF30000002FFB
BFF30000002FFB
BFF30000002FFB
BFF30000002FFB
BFF30000002FFB
BFF30000002FFB
BFF30000002FFB
BFF30000002FFB
BFF30000002FFB
00000000002FFB
00000000002FFB
00000000004FFA
00000000009FF7
000000098BFFF2
0000000FFFFF70
0000000DFEB400
ENDCHAR
STARTCHAR Omacron
ENCODING 332
SWIDTH 687 0
DWIDTH 22 0
BBX 20 29 1 0
BITMAP
00000444444444410000
00002FFFFFFFFFF50000
00002FFFFFFFFFF50000
00000000000000000000
00000000000000000000
00000000000000000000
0000005ADFFDA5000000
00003CFFFFFFFFD30000
0004EFFFC99CFFFF4000
002EFFB200002BFFE200
00AFFA00000000AFFB00
03FFE1000000001EFF30
08FF800000000008FF80
0CFF300000000003FFC0
0FFF000000000001FFE0
1FFE000000000000EFF1
2FFD000000000000DFF2
2FFC000000000000DFF2
2FFD000000000000DFF2
1FFE000000000000EFF1
0FFF000000000000FFF0
0CFF300000000003FFC0
08FF800000000008FF80
03FFE1000000001EFF30
00BFFA000000009FFB00
002EFFB200001AFFE200
0004EFFFB99BFFFF5000
00003CFFFFFFFFD40000
0000005ADFFDA5000000
ENDCHAR
STARTCHAR omacron
ENCODING 333
SWIDTH 570 0
DWIDTH 18 0
BBX 16 24 1 0
BITMAP
0014444444444100
003FFFFFFFFFF500
003FFFFFFFFFF500
0000000000000000
0000000000000000
0000000000000000
0000000000000000
000029DEED940000
0007FFFFFFFFA100
008FFFA769EFFB00
04FFE400002DFF80
0CFF50000002EFE1
2FFD000000009FF6
6FF8000000004FF9
7FF6000000002FFB
8FF5000000001FFC
8FF6000000002FFB
6FF8000000005FF9
3FFC000000009FF6
0CFF40000002EFF1
05FFE300001CFF80
009FFFA669EFFC00
0008FFFFFFFFA100
000029DEFDA40000
ENDCHAR
STARTCHAR Obreve
ENCODING 334
SWIDTH 687 0
DWIDTH 22 0
BBX 20 28 1 0
BITMAP
000009FC0000BFA00000
000005FF5005FF600000
000000BFFEEFFB000000
00000007CFFC70000000
00000000000000000000
0000005ADFFDA5000000
00003CFFFFFFFFD30000
0004EFFFC99CFFFF4000
002EFFB200002BFFE200
00AFFA00000000AFFB00
03FFE1000000001EFF30
08FF800000000008FF80
0CFF300000000003FFC0
0FFF000000000001FFE0
1FFE000000000000EFF1
2FFD000000000000DFF2
2FFC000000000000DFF2
2FFD000000000000DFF2
1FFE000000000000EFF1
0FFF000000000000FFF0
0CFF300000000003FFC0
08FF800000000008FF80
03FFE1000000001EFF30
00BFFA000000009FFB00
002EFFB200001AFFE200
0004EFFFB99BFFFF5000
00003CFFFFFFFFD40000
0000005ADFFDA5000000
ENDCHAR
STARTCHAR obreve
ENCODING 335
SWIDTH 570 0
DWIDTH 18 0
BBX 16 23 1 0
BITMAP
000AFB0000BF9000
0006FF5005FF6000
0000BFFEEFFB0000
000007CFFC700000
0000000000000000
0000000000000000
000029DEED940000
0007FFFFFFFFA100
008FFFA769EFFB00
04FFE400002DFF80
0CFF50000002EFE1
2FFD000000009FF6
6FF8000000004FF9
7FF6000000002FFB
8FF5000000001FFC
8FF6000000002FFB
6FF8000000005FF9
3FFC000000009FF6
0CFF40000002EFF1
05FFE300001CFF80
009FFFA669EFFC00
0008FFFFFFFFA100
000029DEFDA40000
ENDCHAR
STARTCHAR Ohungarumlaut
ENCODING 336
SWIDTH 687 0
DWIDTH 22 0
BBX 20 30 1 0
BITMAP
000000007FF804FFD100
00000002EFD02EFE2000
0000000AFF31CFF40000
0000004FF80AFF600000
0000007CC02AD9000000
00000000000000000000
00000000000000000000
0000005ADFFDA5000000
00003CFFFFFFFFD30000
0004EFFFC99CFFFF4000
002EFFB200002BFFE200
00AFFA00000000AFFB00
03FFE1000000001EFF30
08FF800000000008FF80
0CFF300000000003FFC0
0FFF000000000001FFE0
1FFE000000000000EFF1
2FFD000000000000DFF2
2FFC000000000000DFF2
2FFD000000000000DFF2
1FFE000000000000EFF1
0FFF000000000000FFF0
0CFF300000000003FFC0
08FF800000000008FF80
03FFE1000000001EFF30
00BFFA000000009FFB00
002EFFB200001AFFE200
0004EFFFB99BFFFF5000
00003CFFFFFFFFD40000
0000005ADFFDA5000000
ENDCHAR
STARTCHAR ohungarumlaut
ENCODING 337
SWIDTH 570 0
DWIDTH 18 0
BBX 16 24 1 0
BITMAP
0000008FF805FFD1
000002FFC03EFE20
00000BFF31DFF400
00005FF70BFF6000
00007CB03AD80000
0000000000000000
0000000000000000
000029DEED940000
0007FFFFFFFFA100
008FFFA769EFFB00
04FFE400002DFF80
0CFF50000002EFE1
2FFD000000009FF6
6FF8000000004FF9
7FF6000000002FFB
8FF5000000001FFC
8FF6000000002FFB
6FF8000000005FF9
3FFC000000009FF6
0CFF40000002EFF1
05FFE300001CFF80
009FFFA669EFFC00
0008FFFFFFFFA100
000029DEFDA40000
ENDCHAR
STARTCHAR OE
ENCODING 338
SWIDTH 953 0
DWIDTH 31 0
BBX 28 23 1 0
BITMAP
0000039CEFFFFFFFFFFFFFFFFFF0
00009FFFFFFFFFFFFFFFFFFFFFF0
001CFFE96678BFFD777777777770
00AFFB1000005FFA000000000000
05FFC00000005FFA000000000000
0BFF300000005FFA000000000000
1FFD000000005FFA000000000000
4FFA000000005FFA000000000000
5FF9000000005FFA000000000000
6FF8000000005FFA000000000000
6FF8000000005FFFFFFFFFFFF800
6FF8000000005FFFFFFFFFFFF800
6FF8000000005FFC777777777400
6FF8000000005FFA000000000000
5FF9000000005FFA000000000000
4FFA000000005FFA000000000000
1FFD000000005FFA000000000000
0BFF400000005FFA000000000000
05FFC00000005FFA000000000000
00AFFB1000005FFA000000000000
001CFFE96677AFFC777777777771
00009FFFFFFFFFFFFFFFFFFFFFF2
0000039CEFFFFFFFFFFFFFFFFFF2
ENDCHAR
STARTCHAR oe
ENCODING 339
SWIDTH 908 0
DWIDTH 29 0
BBX 27 17 1 0
BITMAP
000029DFED93000016CEFDA40000
0007FFFFFFFF8003DFFFFFFF9000
008FFFA669FFFA2EFFC769EFF800
03FFE300002DFFEFF800002EFF20
0BFF50000004FFFFC0000005FF80
1FFD00000000BFFF50000001FFC0
4FF9000000007FFF10000000EFE0
6FF7000000005FFFFFFFFFFFFFF0
7FF6000000004FFFFFFFFFFFFFF0
6FF7000000005FFD666666666660
5FF9000000007FFE000000000000
1FFD00000000BFFF300000000000
0BFF50000003FFFFA00000000000
04FFE300002DFFEFF70000005800
008FFF9669EFFA3EFFC7569DFF30
0008FFFFFFFF9003DFFFFFFFFB10
000039DEED93000016BDFEC94000
ENDCHAR
STARTCHAR Racute
ENCODING 340
SWIDTH 615 0
DWIDTH 20 0
BBX 18 30 2 0
BITMAP
000000006FFE200000
00000002EFF3000000
0000000BFF50000000
0000006FF800000000
0000009DA000000000
000000000000000000
000000000000000000
6FFFFFFFFEC8300000
6FFFFFFFFFFFFA1000
6FFC777779DFFFB000
6FFA00000005FFF600
6FFA000000007FFC00
6FFA000000001FFF00
6FFA000000000EFF20
6FFA000000000EFF10
6FFA000000003FFE00
6FFA00000001CFF800
6FFA0000026DFFD100
6FFFFFFFFFFFFD2000
6FFFFFFFFFFE700000
6FFC77777EFF300000
6FFA000007FFA00000
6FFA000001EFF30000
6FFA0000007FFB0000
6FFA0000000DFF4000
6FFA00000006FFC000
6FFA00000000DFF600
6FFA000000006FFD00
6FFA000000000DFF70
6FFA0000000005FFE1
ENDCHAR
STARTCHAR racute
ENCODING 341
SWIDTH 338 0
DWIDTH 11 0
BBX 10 24 2 0
BITMAP
000008FFC1
00004FFE20
0001DFF300
0009FF5000
001AD80000
0000000000
0000000000
CFF04BEE40
CFF6FFFF50
CFFFFFDD50
CFFF710000
CFF7000000
CFF1000000
CFF1000000
CFF1000000
CFF1000000
CFF1000000
CFF1000000
CFF1000000
CFF1000000
CFF1000000
CFF1000000
CFF1000000
CFF1000000
ENDCHAR
STARTCHAR uni0156
ENCODING 342
SWIDTH 615 0
DWIDTH 20 0
BBX 18 30 2 -7
BITMAP
6FFFFFFFFEC8300000
6FFFFFFFFFFFFA1000
6FFC777779DFFFB000
6FFA00000005FFF600
6FFA000000007FFC00
6FFA000000001FFF00
6FFA000000000EFF20
6FFA000000000EFF10
6FFA000000003FFE00
6FFA00000001CFF800
6FFA0000026DFFD100
6FFFFFFFFFFFFD2000
6FFFFFFFFFFE700000
6FFC77777EFF300000
6FFA000007FFA00000
6FFA000001EFF30000
6FFA0000007FFB0000
6FFA0000000DFF4000
6FFA00000006FFC000
6FFA00000000DFF600
6FFA000000006FFD00
6FFA000000000DFF70
6FFA0000000005FFE1
000000000000000000
000000DFE000000000
000000DFD000000000
000000FFB000000000
000004FF6000000000
00000BFD0000000000
000004C30000000000
ENDCHAR
STARTCHAR uni0157
ENCODING 343
SWIDTH 338 0
DWIDTH 11 0
BBX 10 24 1 -7
BITMAP
0CFF04BEE4
0CFF6FFFF5
0CFFFFFDD5
0CFFF71000
0CFF700000
0CFF100000
0CFF100000
0CFF100000
0CFF100000
0CFF100000
0CFF100000
0CFF100000
0CFF100000
0CFF100000
0CFF100000
0CFF100000
0CFF100000
0000000000
08FF300000
08FF300000
0AFF100000
1EFB000000
7FF3000000
2B70000000
ENDCHAR
STARTCHAR Rcaron
ENCODING 344
SWIDTH 615 0
DWIDTH 20 0
BBX 18 29 2 0
BITMAP
001DF9000AFD200000
0001DF909FD2000000
00001CFDFC10000000
000001CFC100000000
000000000000000000
000000000000000000
6FFFFFFFFEC8300000
6FFFFFFFFFFFFA1000
6FFC777779DFFFB000
6FFA00000005FFF600
6FFA000000007FFC00
6FFA000000001FFF00
6FFA000000000EFF20
6FFA000000000EFF10
6FFA000000003FFE00
6FFA00000001CFF800
6FFA0000026DFFD100
6FFFFFFFFFFFFD2000
6FFFFFFFFFFE700000
6FFC77777EFF300000
6FFA000007FFA00000
6FFA000001EFF30000
6FFA0000007FFB0000
6FFA0000000DFF4000
6FFA00000006FFC000
6FFA00000000DFF600
6FFA000000006FFD00
6FFA000000000DFF70
6FFA0000000005FFE1
ENDCHAR
STARTCHAR rcaron
ENCODING 345
SWIDTH 338 0
DWIDTH 11 0
BBX 11 23 1 0
BITMAP
2EF7001BFC10
02EF70BFB100
002EFDFB1000
0002DFB00000
000000000000
000000000000
0CFF04BEE400
0CFF6FFFF500
0CFFFFFDD500
0CFFF7100000
0CFF70000000
0CFF10000000
0CFF10000000
0CFF10000000
0CFF10000000
0CFF10000000
0CFF10000000
0CFF10000000
0CFF10000000
0CFF10000000
0CFF10000000
0CFF10000000
0CFF10000000
ENDCHAR
STARTCHAR Sacute
ENCODING 346
SWIDTH 593 0
DWIDTH 19 0
BBX 17 30 1 0
BITMAP
0000000003FFF40000
000000000DFF600000
000000008FF8000000
00000003FFA0000000
00000007CC10000000
000000000000000000
000000000000000000
000028CEFEC9300000
0008FFFFFFFFFA1000
00AFFFC988AFFFD100
05FFE5000002BFFB00
0CFF600000001DFF40
0FFF1000000007FF90
0FFF1000000004DD90
0CFF60000000000000
07FFF6000000000000
00BFFFD72000000000
0019FFFFFC83000000
00003BFFFFFFC40000
00000027CFFFFF8000
00000000017DFFF900
0000000000007FFF30
00000000000009FF90
AEE40000000004FFB0
9FF80000000004FFB0
4FFE1000000009FF80
0BFFD30000007FFF30
01CFFFC8779DFFF700
0018FFFFFFFFFE6000
000026BDEEDB710000
ENDCHAR
STARTCHAR sacute
ENCODING 347
SWIDTH 515 0
DWIDTH 17 0
BBX 14 24 1 0
BITMAP
000000002FFF40
00000000CFF700
00000007FF9000
0000003FFB0000
0000006CC10000
00000000000000
00000000000000
00018CEFEB6000
005EFFFFFFFC20
03FFFB769EFFD0
0BFF700001DFF6
0EFF0000004FFA
0DFF3000001443
08FFE720000000
00BFFFFDA61000
0005CFFFFFE810
00000259DFFFD1
0000000003DFF8
48830000003FFD
5FFA0000001FFD
1EFF5000007FFA
06FFFB767CFFF3
006EFFFFFFFE50
00028CEFEC7100
ENDCHAR
STARTCHAR Scircumflex
ENCODING 348
SWIDTH 593 0
DWIDTH 19 0
BBX 17 29 1 0
BITMAP
0000001AFE40000000
000001CFDFF5000000
00002DFC16FF700000
00008CC1006EB30000
000000000000000000
000000000000000000
000028CEFEC9300000
0008FFFFFFFFFA1000
00AFFFC988AFFFD100
05FFE5000002BFFB00
0CFF600000001DFF40
0FFF1000000007FF90
0FFF1000000004DD90
0CFF60000000000000
07FFF6000000000000
00BFFFD72000000000
0019FFFFFC83000000
00003BFFFFFFC40000
00000027CFFFFF8000
00000000017DFFF900
0000000000007FFF30
00000000000009FF90
AEE40000000004FFB0
9FF80000000004FFB0
4FFE1000000009FF80
0BFFD30000007FFF30
01CFFFC8779DFFF700
0018FFFFFFFFFE6000
000026BDEEDB710000
ENDCHAR
STARTCHAR scircumflex
ENCODING 349
SWIDTH 515 0
DWIDTH 17 0
BBX 14 23 1 0
BITMAP
000000AFE40000
00001BFDFF6000
0002DFC15FF800
0007CC1006EB30
00000000000000
00000000000000
00018CEFEB6000
005EFFFFFFFC20
03FFFB769EFFD0
0BFF700001DFF6
0EFF0000004FFA
0DFF3000001443
08FFE720000000
00BFFFFDA61000
0005CFFFFFE810
00000259DFFFD1
0000000003DFF8
48830000003FFD
5FFA0000001FFD
1EFF5000007FFA
06FFFB767CFFF3
006EFFFFFFFE50
00028CEFEC7100
ENDCHAR
STARTCHAR Scedilla
ENCODING 350
SWIDTH 593 0
DWIDTH 19 0
BBX 17 30 1 -7
BITMAP
000028CEFEC9300000
0008FFFFFFFFFA1000
00AFFFC988AFFFD100
05FFE5000002BFFB00
0CFF600000001DFF40
0FFF1000000007FF90
0FFF1000000004DD90
0CFF60000000000000
07FFF6000000000000
00BFFFD72000000000
0019FFFFFC83000000
00003BFFFFFFC40000
00000027CFFFFF8000
00000000017DFFF900
0000000000007FFF30
00000000000009FF90
AEE40000000004FFB0
9FF80000000004FFB0
4FFE1000000009FF80
0BFFD30000007FFF30
01CFFFC8779DFFF700
0018FFFFFFFFFE6000
000026BDEEDB710000
00000004FD00000000
00000007FFD4000000
000000025BFE000000
0000000003FF200000
0000000007FE000000
00000007DFF7000000
00000009DB40000000
ENDCHAR
STARTCHAR scedilla
ENCODING 351
SWIDTH 515 0
DWIDTH 17 0
BBX 14 24 1 -7
BITMAP
00018CEFEB6000
005EFFFFFFFC20
03FFFB769EFFD0
0BFF700001DFF6
0EFF0000004FFA
0DFF3000001443
08FFE720000000
00BFFFFDA61000
0005CFFFFFE810
00000259DFFFD1
0000000003DFF8
48830000003FFD
5FFA0000001FFD
1EFF5000007FFA
06FFFB767CFFF3
006EFFFFFFFE50
00028CEFEC7100
0000004FC00000
0000008FFD4000
00000025CFD000
000000003FF100
000000007FE000
0000008DFF7000
000000ADA40000
ENDCHAR
STARTCHAR Scaron
ENCODING 352
SWIDTH 593 0
DWIDTH 19 0
BBX 17 29 1 0
BITMAP
0000BFC1007FE30000
00000BFC16FE300000
000000AFDFE3000000
0000000AFE30000000
000000000000000000
000000000000000000
000028CEFEC9300000
0008FFFFFFFFFA1000
00AFFFC988AFFFD100
05FFE5000002BFFB00
0CFF600000001DFF40
0FFF1000000007FF90
0FFF1000000004DD90
0CFF60000000000000
07FFF6000000000000
00BFFFD72000000000
0019FFFFFC83000000
00003BFFFFFFC40000
00000027CFFFFF8000
00000000017DFFF900
0000000000007FFF30
00000000000009FF90
AEE40000000004FFB0
9FF80000000004FFB0
4FFE1000000009FF80
0BFFD30000007FFF30
01CFFFC8779DFFF700
0018FFFFFFFFFE6000
000026BDEEDB710000
ENDCHAR
STARTCHAR scaron
ENCODING 353
SWIDTH 515 0
DWIDTH 17 0
BBX 14 23 1 0
BITMAP
000AFC1006FE40
0000AFC16FE400
00000AFDFE4000
0000009FE30000
00000000000000
00000000000000
00018CEFEB6000
005EFFFFFFFC20
03FFFB769EFFD0
0BFF700001DFF6
0EFF0000004FFA
0DFF3000001443
08FFE720000000
00BFFFFDA61000
0005CFFFFFE810
00000259DFFFD1
0000000003DFF8
48830000003FFD
5FFA0000001FFD
1EFF5000007FFA
06FFFB767CFFF3
006EFFFFFFFE50
00028CEFEC7100
ENDCHAR
STARTCHAR uni0162
ENCODING 354
SWIDTH 596 0
DWIDTH 19 0
BBX 19 30 0 -7
BITMAP
4FFFFFFFFFFFFFFFFF50
4FFFFFFFFFFFFFFFFF50
27777777FFF777777730
00000000EFF100000000
00000000EFF100000000
00000000EFF100000000
00000000EFF100000000
00000000EFF100000000
00000000EFF100000000
00000000EFF100000000
00000000EFF100000000
00000000EFF100000000
00000000EFF100000000
00000000EFF100000000
00000000EFF100000000
00000000EFF100000000
00000000EFF100000000
00000000EFF100000000
00000000EFF100000000
00000000EFF100000000
00000000EFF100000000
00000000EFF100000000
00000000EFF100000000
000000007F9000000000
00000000BFFC20000000
0000000026DFA0000000
00000000006FD0000000
0000000000AFB0000000
00000000AEFF40000000
00000000CD9200000000
ENDCHAR
STARTCHAR uni0163
ENCODING 355
SWIDTH 326 0
DWIDTH 10 0
BBX 11 28 0 -7
BITMAP
000CFF200000
000CFF200000
000CFF200000
000CFF200000
DFFFFFFFF400
DFFFFFFFF400
344DFF544100
000CFF200000
000CFF200000
000CFF200000
000CFF200000
000CFF200000
000CFF200000
000CFF200000
000CFF200000
000CFF200000
000CFF200000
000AFF400000
0007FFE88300
0001EFFFF500
00003BEFD400
000000FF2000
000004FFE700
00000149FF20
00000000EF50
00000003FF40
000004CFFB00
000006EC6000
ENDCHAR
STARTCHAR Tcaron
ENCODING 356
SWIDTH 596 0
DWIDTH 19 0
BBX 19 29 0 0
BITMAP
00001CFA0009FD200000
000001CFA09FD2000000
0000001CFDFD20000000
00000001CFC100000000
00000000000000000000
00000000000000000000
4FFFFFFFFFFFFFFFFF50
4FFFFFFFFFFFFFFFFF50
27777777FFF777777730
00000000EFF100000000
00000000EFF100000000
00000000EFF100000000
00000000EFF100000000
00000000EFF100000000
00000000EFF100000000
00000000EFF100000000
00000000EFF100000000
00000000EFF100000000
00000000EFF100000000
00000000EFF100000000
00000000EFF100000000
00000000EFF100000000
00000000EFF100000000
00000000EFF100000000
00000000EFF100000000
00000000EFF100000000
00000000EFF100000000
00000000EFF100000000
00000000EFF100000000
ENDCHAR
STARTCHAR tcaron
ENCODING 357
SWIDTH 346 0
DWIDTH 11 0
BBX 12 26 0 0
BITMAP
000000001FFA
000000001FFA
000000003FF8
000000008FF3
00000001EFA0
000CFF206C10
000CFF200000
000CFF200000
000CFF200000
DFFFFFFFF400
DFFFFFFFF400
344DFF544100
000CFF200000
000CFF200000
000CFF200000
000CFF200000
000CFF200000
000CFF200000
000CFF200000
000CFF200000
000CFF200000
000CFF200000
000AFF400000
0007FFE88300
0001EFFFF500
00003BEFD400
ENDCHAR
STARTCHAR Tbar
ENCODING 358
SWIDTH 596 0
DWIDTH 19 0
BBX 19 23 0 0
BITMAP
4FFFFFFFFFFFFFFFFF50
4FFFFFFFFFFFFFFFFF50
27777777FFF777777730
00000000EFF100000000
00000000EFF100000000
00000000EFF100000000
00000000EFF100000000
00000000EFF100000000
00004FFFFFFFFFA00000
00004FFFFFFFFFA00000
00001555EFF655400000
00000000EFF100000000
00000000EFF100000000
00000000EFF100000000
00000000EFF100000000
00000000EFF100000000
00000000EFF100000000
00000000EFF100000000
00000000EFF100000000
00000000EFF100000000
00000000EFF100000000
00000000EFF100000000
00000000EFF100000000
ENDCHAR
STARTCHAR tbar
ENCODING 359
SWIDTH 326 0
DWIDTH 10 0
BBX 11 21 -1 0
BITMAP
0000CFF20000
0000CFF20000
0000CFF20000
0000CFF20000
0DFFFFFFFF40
0DFFFFFFFF40
0344DFF54410
0000CFF20000
0000CFF20000
3FFFFFFFFFB0
3FFFFFFFFFB0
1555DFF65540
0000CFF20000
0000CFF20000
0000CFF20000
0000CFF20000
0000CFF20000
0000AFF40000
00007FFE8830
00001EFFFF50
000003BEFD40
ENDCHAR
STARTCHAR Utilde
ENCODING 360
SWIDTH 648 0
DWIDTH 21 0
BBX 17 29 2 0
BITMAP
000001310000750000
0001BFFFA549FC0000
000AFFFFFFFFF60000
000EE3038DFD600000
000000000000000000
000000000000000000
CFF20000000005FFA0
CFF20000000005FFA0
CFF20000000005FFA0
CFF20000000005FFA0
CFF20000000005FFA0
CFF20000000005FFA0
CFF20000000005FFA0
CFF20000000005FFA0
CFF20000000005FFA0
CFF20000000005FFA0
CFF20000000005FFA0
CFF20000000005FFA0
CFF20000000005FFA0
CFF20000000005FFA0
CFF20000000005FFA0
CFF30000000006FFA0
BFF40000000007FF80
8FF8000000000BFF60
4FFE100000003FFE10
0BFFC2000003DFF800
02DFFFB878CFFFB000
002BFFFFFFFFF90000
000049DEFEC8200000
ENDCHAR
STARTCHAR utilde
ENCODING 361
SWIDTH 551 0
DWIDTH 18 0
BBX 14 23 2 0
BITMAP
00003200004620
006EFFC745EF40
04FFFFFFFFFC00
08E9116CEEA100
00000000000000
00000000000000
DFF00000007FF7
DFF00000007FF7
DFF00000007FF7
DFF00000007FF7
DFF00000007FF7
DFF00000007FF7
DFF00000007FF7
DFF00000007FF7
DFF00000007FF7
DFF00000007FF7
DFF00000007FF7
DFF20000007FF7
BFF4000000BFF7
7FFC100008FFF7
2FFFD879EFFFF7
06FFFFFFFE9FF7
003AEFEC715FF7
ENDCHAR
STARTCHAR Umacron
ENCODING 362
SWIDTH 648 0
DWIDTH 21 0
BBX 17 29 2 0
BITMAP
000344444444430000
000BFFFFFFFFFB0000
000BFFFFFFFFFB0000
000000000000000000
000000000000000000
000000000000000000
CFF20000000005FFA0
CFF20000000005FFA0
CFF20000000005FFA0
CFF20000000005FFA0
CFF20000000005FFA0
CFF20000000005FFA0
CFF20000000005FFA0
CFF20000000005FFA0
CFF20000000005FFA0
CFF20000000005FFA0
CFF20000000005FFA0
CFF20000000005FFA0
CFF20000000005FFA0
CFF20000000005FFA0
CFF20000000005FFA0
CFF30000000006FFA0
BFF40000000007FF80
8FF8000000000BFF60
4FFE100000003FFE10
0BFFC2000003DFF800
02DFFFB878CFFFB000
002BFFFFFFFFF90000
000049DEFEC8200000
ENDCHAR
STARTCHAR umacron
ENCODING 363
SWIDTH 551 0
DWIDTH 18 0
BBX 14 24 2 0
BITMAP
01444444444410
05FFFFFFFFFF30
05FFFFFFFFFF30
00000000000000
00000000000000
00000000000000
00000000000000
DFF00000007FF7
DFF00000007FF7
DFF00000007FF7
DFF00000007FF7
DFF00000007FF7
DFF00000007FF7
DFF00000007FF7
DFF00000007FF7
DFF00000007FF7
DFF00000007FF7
DFF00000007FF7
DFF20000007FF7
BFF4000000BFF7
7FFC100008FFF7
2FFFD879EFFFF7
06FFFFFFFE9FF7
003AEFEC715FF7
ENDCHAR
STARTCHAR Ubreve
ENCODING 364
SWIDTH 648 0
DWIDTH 21 0
BBX 17 28 2 0
BITMAP
0003FF30005FF10000
0000EFA101CFC00000
00005FFFDFFE300000
000003AEFEA2000000
000000000000000000
CFF20000000005FFA0
CFF20000000005FFA0
CFF20000000005FFA0
CFF20000000005FFA0
CFF20000000005FFA0
CFF20000000005FFA0
CFF20000000005FFA0
CFF20000000005FFA0
CFF20000000005FFA0
CFF20000000005FFA0
CFF20000000005FFA0
CFF20000000005FFA0
CFF20000000005FFA0
CFF20000000005FFA0
CFF20000000005FFA0
CFF30000000006FFA0
BFF40000000007FF80
8FF8000000000BFF60
4FFE100000003FFE10
0BFFC2000003DFF800
02DFFFB878CFFFB000
002BFFFFFFFFF90000
000049DEFEC8200000
ENDCHAR
STARTCHAR ubreve
ENCODING 365
SWIDTH 551 0
DWIDTH 18 0
BBX 14 23 2 0
BITMAP
00BF90000DF700
008FE3007FF400
001CFFEEFF9000
00018DFEC60000
00000000000000
00000000000000
DFF00000007FF7
DFF00000007FF7
DFF00000007FF7
DFF00000007FF7
DFF00000007FF7
DFF00000007FF7
DFF00000007FF7
DFF00000007FF7
DFF00000007FF7
DFF00000007FF7
DFF00000007FF7
DFF20000007FF7
BFF4000000BFF7
7FFC100008FFF7
2FFFD879EFFFF7
06FFFFFFFE9FF7
003AEFEC715FF7
ENDCHAR
STARTCHAR Uring
ENCODING 366
SWIDTH 648 0
DWIDTH 21 0
BBX 17 31 2 0
BITMAP
0000006DEC40000000
000006FA7CF4000000
00000CB000DA000000
00000DB000DA000000
000007FA6BF5000000
0000006DEC50000000
000000000000000000
000000000000000000
CFF20000000005FFA0
CFF20000000005FFA0
CFF20000000005FFA0
CFF20000000005FFA0
CFF20000000005FFA0
CFF20000000005FFA0
CFF20000000005FFA0
CFF20000000005FFA0
CFF20000000005FFA0
CFF20000000005FFA0
CFF20000000005FFA0
CFF20000000005FFA0
CFF20000000005FFA0
CFF20000000005FFA0
CFF20000000005FFA0
CFF30000000006FFA0
BFF40000000007FF80
8FF8000000000BFF60
4FFE100000003FFE10
0BFFC2000003DFF800
02DFFFB878CFFFB000
002BFFFFFFFFF90000
000049DEFEC8200000
ENDCHAR
STARTCHAR uring
ENCODING 367
SWIDTH 551 0
DWIDTH 18 0
BBX 14 25 2 0
BITMAP
00002BED910000
0001ED78FA0000
0006F3007F2000
0006F3007F2000
0001ED78EB0000
00003BEE910000
00000000000000
00000000000000
DFF00000007FF7
DFF00000007FF7
DFF00000007FF7
DFF00000007FF7
DFF00000007FF7
DFF00000007FF7
DFF00000007FF7
DFF00000007FF7
DFF00000007FF7
DFF00000007FF7
DFF00000007FF7
DFF20000007FF7
BFF4000000BFF7
7FFC100008FFF7
2FFFD879EFFFF7
06FFFFFFFE9FF7
003AEFEC715FF7
ENDCHAR
STARTCHAR Uhungarumlaut
ENCODING 368
SWIDTH 648 0
DWIDTH 21 0
BBX 17 30 2 0
BITMAP
0000002FFD11DFF500
000000AFF40AFF7000
000004FF907FFA0000
00000DFD14FFC00000
00003BE308CD100000
000000000000000000
000000000000000000
CFF20000000005FFA0
CFF20000000005FFA0
CFF20000000005FFA0
CFF20000000005FFA0
CFF20000000005FFA0
CFF20000000005FFA0
CFF20000000005FFA0
CFF20000000005FFA0
CFF20000000005FFA0
CFF20000000005FFA0
CFF20000000005FFA0
CFF20000000005FFA0
CFF20000000005FFA0
CFF20000000005FFA0
CFF20000000005FFA0
CFF30000000006FFA0
BFF40000000007FF80
8FF8000000000BFF60
4FFE100000003FFE10
0BFFC2000003DFF800
02DFFFB878CFFFB000
002BFFFFFFFFF90000
000049DEFEC8200000
ENDCHAR
STARTCHAR uhungarumlaut
ENCODING 369
SWIDTH 551 0
DWIDTH 18 0
BBX 14 24 2 0
BITMAP
00000AFF607FFB
00004FFA04FFD1
0000CFE12EFE20
0007FF51CFF400
0008CA04BE6000
00000000000000
00000000000000
DFF00000007FF7
DFF00000007FF7
DFF00000007FF7
DFF00000007FF7
DFF00000007FF7
DFF00000007FF7
DFF00000007FF7
DFF00000007FF7
DFF00000007FF7
DFF00000007FF7
DFF00000007FF7
DFF20000007FF7
BFF4000000BFF7
7FFC100008FFF7
2FFFD879EFFFF7
06FFFFFFFE9FF7
003AEFEC715FF7
ENDCHAR
STARTCHAR Uogonek
ENCODING 370
SWIDTH 648 0
DWIDTH 21 0
BBX 17 30 2 -7
BITMAP
CFF20000000005FFA0
CFF20000000005FFA0
CFF20000000005FFA0
CFF20000000005FFA0
CFF20000000005FFA0
CFF20000000005FFA0
CFF20000000005FFA0
CFF20000000005FFA0
CFF20000000005FFA0
CFF20000000005FFA0
CFF20000000005FFA0
CFF20000000005FFA0
CFF20000000005FFA0
CFF20000000005FFA0
CFF20000000005FFA0
CFF30000000006FFA0
BFF40000000007FF90
8FF8000000000BFF60
4FFE100000003FFF10
0BFFC2000003DFF800
02DFFFB878CFFFB000
002BFFFFFFFFF80000
000049DEFFFE300000
000000009FF4000000
00000002FF90000000
00000006FF30000000
00000007FF10000000
00000005FF73500000
00000001EFFFE00000
000000003CED800000
ENDCHAR
STARTCHAR uogonek
ENCODING 371
SWIDTH 551 0
DWIDTH 18 0
BBX 14 24 2 -7
BITMAP
DFF00000007FF7
DFF00000007FF7
DFF00000007FF7
DFF00000007FF7
DFF00000007FF7
DFF00000007FF7
DFF00000007FF7
DFF00000007FF7
DFF00000007FF7
DFF00000007FF7
DFF00000007FF7
DFF20000007FF7
BFF4000000BFF7
7FFC100008FFF7
2FFFD879EFFFF7
06FFFFFFFE9FF7
003AEFEC715FF7
0000000002CFA0
000000001DF900
000000009FD000
00000000DFA000
00000000CFD443
000000008FFFF8
0000000008EEC4
ENDCHAR
STARTCHAR Wcircumflex
ENCODING 372
SWIDTH 887 0
DWIDTH 28 0
BBX 27 29 1 0
BITMAP
000000000002DFC1000000000000
00000000003EFDFD200000000000
0000000005FF90AFE40000000000
000000001AD9000AD91000000000
0000000000000000000000000000
0000000000000000000000000000
EFF100000001FFC000000006FF90
AFF400000004FFF10000000AFF50
7FF800000009FFF50000000DFF20
3FFB0000000DFFF90000001FFD00
0EFE0000002FFEFD0000005FF900
0BFF3000006FF9FF2000008FF600
07FF700000BFE3FF700000CFF200
04FFA00000EFA0DFB00000FFE000
01FFD00004FF609FE00003FFA000
00CFF20008FF205FF40007FF6000
008FF5000CFC001FF8000AFF3000
004FF9002FF8000BFC000DFE0000
001FFC006FF30007FF102FFB0000
000CFF10AFE00003FF505FF70000
0009FF40EFA00000EF909FF30000
0005FF73FF500000AFD0CFE00000
0002FFA7FF1000006FF2EFB00000
0000DFCBFC0000001FF7FF800000
00009FEEF70000000CFDFF400000
00006FFFF300000008FFFF100000
00002FFFE000000004FFFC000000
00000EFF9000000000EFF8000000
00000AFF5000000000AFF5000000
ENDCHAR
STARTCHAR wcircumflex
ENCODING 373
SWIDTH 751 0
DWIDTH 24 0
BBX 24 23 0 0
BITMAP
00000000008FF60000000000
000000000AFDEF8000000000
00000001BFE24EF900000000
00000006CD2004EB40000000
000000000000000000000000
000000000000000000000000
3FFA0000005FF4000000BFF2
0DFE000000AFF9000000EFD0
09FF300000EFFE000003FF90
05FF700004FFFF300007FF40
01FFB00009FCEF80000BFE00
00BFE0000DF7AFD0000EFB00
007FF4003FF35FF2003FF600
002FF8008FD01EF7007FF200
000DFC00CF800AFB00BFD000
0009FF12FF4005FF10EF8000
0005FF47FE0001FF63FF4000
0001FF8BF90000BFA7FE0000
0000BFDFF500006FEBFA0000
00007FFFE100001FFFF60000
00002FFFA000000CFFF20000
00000DFF60000007FFC00000
000009FF10000002FF800000
ENDCHAR
STARTCHAR Ycircumflex
ENCODING 374
SWIDTH 600 0
DWIDTH 19 0
BBX 19 29 0 0
BITMAP
00000001BFD300000000
0000002CFDFE40000000
000003EFB07FF6000000
000009DB1008DA200000
00000000000000000000
00000000000000000000
7FFD00000000000BFFA0
1EFF70000000004FFF20
06FFE100000000CFF800
00DFF700000004FFE100
005FFE1000000CFF7000
000CFF7000005FFD1000
0003FFE10000CFF60000
0000AFF80005FFC00000
00002FFE100DFF400000
000009FF806FFB000000
000001EFE2DFF3000000
0000008FFDFFA0000000
0000001EFFFF20000000
00000006FFF900000000
00000000EFF200000000
00000000EFF100000000
00000000EFF100000000
00000000EFF100000000
00000000EFF100000000
00000000EFF100000000
00000000EFF100000000
00000000EFF100000000
00000000EFF100000000
ENDCHAR
STARTCHAR ycircumflex
ENCODING 375
SWIDTH 473 0
DWIDTH 15 0
BBX 15 30 0 -7
BITMAP
0000008FF6000000
000009FEEF800000
0001BFE24EFA0000
0006CD3004EB5000
0000000000000000
0000000000000000
7FFA00000007FF90
2FFE1000000CFF30
0BFF5000002FFD00
06FFA000006FF800
01FFE00000BFF300
00AFF50001FFD000
005FFA0005FF8000
000EFE000AFF2000
0009FF400EFC0000
0004FF904FF70000
0000DFE09FF20000
00008FF4DFC00000
00003FFCFF700000
00000CFFFF200000
000007FFFB000000
000002FFF6000000
000000BFF1000000
000000DFB0000000
000003FF60000000
000009FF10000000
00005FF900000000
069BFFE200000000
0AFFFF5000000000
08EEB30000000000
ENDCHAR
STARTCHAR Ydieresis
ENCODING 376
SWIDTH 600 0
DWIDTH 19 0
BBX 19 29 0 0
BITMAP
00000240000033000000
00002FFB0006FF700000
00005FFF0009FFB00000
00001CE80004EE400000
00000000000000000000
00000000000000000000
7FFD00000000000BFFA0
1EFF70000000004FFF20
06FFE100000000CFF800
00DFF700000004FFE100
005FFE1000000CFF7000
000CFF7000005FFD1000
0003FFE10000CFF60000
0000AFF80005FFC00000
00002FFE100DFF400000
000009FF806FFB000000
000001EFE2DFF3000000
0000008FFDFFA0000000
0000001EFFFF20000000
00000006FFF900000000
00000000EFF200000000
00000000EFF100000000
00000000EFF100000000
00000000EFF100000000
00000000EFF100000000
00000000EFF100000000
00000000EFF100000000
00000000EFF100000000
00000000EFF100000000
ENDCHAR
STARTCHAR Zacute
ENCODING 377
SWIDTH 598 0
DWIDTH 19 0
BBX 17 30 1 0
BITMAP
0000000004FFE30000
000000001DFF400000
000000009FF7000000
00000005FF90000000
00000008CB00000000
000000000000000000
000000000000000000
7FFFFFFFFFFFFFFF60
7FFFFFFFFFFFFFFF60
377777777777AFFF30
000000000001DFF800
000000000009FFC000
00000000004FFF3000
0000000001DFF70000
0000000009FFC00000
000000005FFE200000
00000001EFF6000000
0000000AFFB0000000
0000005FFE20000000
000001EFF600000000
00000BFFA000000000
00006FFE1000000000
0002EFF50000000000
000BFFA00000000000
007FFD100000000000
02FFF4000000000000
0CFF90000000000000
7FFF87777777777760
AFFFFFFFFFFFFFFFE0
AFFFFFFFFFFFFFFFE0
ENDCHAR
STARTCHAR zacute
ENCODING 378
SWIDTH 495 0
DWIDTH 16 0
BBX 14 24 1 0
BITMAP
00000001DFF800
00000008FFA000
0000003FFC1000
000001DFE20000
000003BE300000
00000000000000
00000000000000
7FFFFFFFFFFFF5
7FFFFFFFFFFFF5
366666666BFFE1
000000002EFF40
00000001DFF700
00000009FFB000
0000006FFE1000
000002EFF40000
00001CFF700000
00009FFB000000
0005FFE1000000
002EFF40000000
00CFF800000000
09FFB000000000
5FFF7555555554
9FFFFFFFFFFFFC
9FFFFFFFFFFFFC
ENDCHAR
STARTCHAR Zdotaccent
ENCODING 379
SWIDTH 598 0
DWIDTH 19 0
BBX 17 29 1 0
BITMAP
000000014200000000
0000000CFE20000000
0000001FFF40000000
00000009EB10000000
000000000000000000
000000000000000000
7FFFFFFFFFFFFFFF60
7FFFFFFFFFFFFFFF60
377777777777AFFF30
000000000001DFF800
000000000009FFC000
00000000004FFF3000
0000000001DFF70000
0000000009FFC00000
000000005FFE200000
00000001EFF6000000
0000000AFFB0000000
0000005FFE20000000
000001EFF600000000
00000BFFA000000000
00006FFE1000000000
0002EFF50000000000
000BFFA00000000000
007FFD100000000000
02FFF4000000000000
0CFF90000000000000
7FFF87777777777760
AFFFFFFFFFFFFFFFE0
AFFFFFFFFFFFFFFFE0
ENDCHAR
STARTCHAR zdotaccent
ENCODING 380
SWIDTH 495 0
DWIDTH 16 0
BBX 14 23 1 0
BITMAP
00000033000000
000006FF700000
000009FFB00000
000004DE400000
00000000000000
00000000000000
7FFFFFFFFFFFF5
7FFFFFFFFFFFF5
366666666BFFE1
000000002EFF40
00000001DFF700
00000009FFB000
0000006FFE1000
000002EFF40000
00001CFF700000
00009FFB000000
0005FFE1000000
002EFF40000000
00CFF800000000
09FFB000000000
5FFF7555555554
9FFFFFFFFFFFFC
9FFFFFFFFFFFFC
ENDCHAR
STARTCHAR Zcaron
ENCODING 381
SWIDTH 598 0
DWIDTH 19 0
BBX 17 29 1 0
BITMAP
0001CFB0008FE20000
00001CFB08FD200000
000001BFDFD2000000
0000001BFD20000000
000000000000000000
000000000000000000
7FFFFFFFFFFFFFFF60
7FFFFFFFFFFFFFFF60
377777777777AFFF30
000000000001DFF800
000000000009FFC000
00000000004FFF3000
0000000001DFF70000
0000000009FFC00000
000000005FFE200000
00000001EFF6000000
0000000AFFB0000000
0000005FFE20000000
000001EFF600000000
00000BFFA000000000
00006FFE1000000000
0002EFF50000000000
000BFFA00000000000
007FFD100000000000
02FFF4000000000000
0CFF90000000000000
7FFF87777777777760
AFFFFFFFFFFFFFFFE0
AFFFFFFFFFFFFFFFE0
ENDCHAR
STARTCHAR zcaron
ENCODING 382
SWIDTH 495 0
DWIDTH 16 0
BBX 14 23 1 0
BITMAP
006FE3003EF700
0006FE33EF7000
00006FEEF70000
000006FF600000
00000000000000
00000000000000
7FFFFFFFFFFFF5
7FFFFFFFFFFFF5
366666666BFFE1
000000002EFF40
00000001DFF700
00000009FFB000
0000006FFE1000
000002EFF40000
00001CFF700000
00009FFB000000
0005FFE1000000
002EFF40000000
00CFF800000000
09FFB000000000
5FFF7555555554
9FFFFFFFFFFFFC
9FFFFFFFFFFFFC
ENDCHAR
STARTCHAR longs
ENCODING 383
SWIDTH 248 0
DWIDTH 8 0
BBX 8 24 2 0
BITMAP
0029DFEB
03EFFFFD
0CFFD865
3FFE1000
6FF80000
7FF60000
8FF60000
8FF60000
8FF60000
8FF60000
8FF60000
8FF60000
8FF60000
8FF60000
8FF60000
8FF60000
8FF60000
8FF60000
8FF60000
8FF60000
8FF60000
8FF60000
8FF60000
8FF60000
ENDCHAR
STARTCHAR uni018F
ENCODING 399
SWIDTH 690 0
DWIDTH 22 0
BBX 20 23 1 0
BITMAP
000059CEFEDB72000000
003DFFFFFFFFFF910000
002FFFBA88ADFFFD2000
0009510000004DFFD100
00000000000001CFFA00
000000000000002EFF30
0000000000000008FF90
0000000000000003FFD0
0000000000000000EFF1
0000000000000000CFF3
0000000000000000BFF4
8FFFFFFFFFFFFFFFFFF4
8FFFFFFFFFFFFFFFFFF4
8FFA555555555555DFF3
7FF8000000000000EFF1
5FF9000000000002FFD0
1FFD000000000007FF80
0CFF30000000001EFF20
05FFC100000000AFF900
00BFFC3000002BFFD100
001CFFFC978BFFFD2000
00019FFFFFFFFFA10000
0000027BDFED93000000
ENDCHAR
STARTCHAR florin
ENCODING 402
SWIDTH 340 0
DWIDTH 11 0
BBX 12 31 -1 -7
BITMAP
00000029DFEA
000004EFFFFB
00001EFFD876
00005FFC0000
00008FF70000
00009FF50000
00009FF50000
04FFFFFFFF80
04FFFFFFFF80
0144AFF74420
00009FF50000
00009FF50000
00009FF50000
00009FF50000
00009FF50000
00009FF50000
00009FF50000
00009FF50000
00009FF50000
00009FF50000
00009FF50000
00009FF50000
00009FF50000
00009FF50000
00009FF50000
00009FF50000
0000AFF40000
0001EFF10000
276CFFA00000
5FFFFD200000
5EFD91000000
ENDCHAR
STARTCHAR Ohorn
ENCODING 416
SWIDTH 686 0
DWIDTH 22 0
BBX 22 25 1 0
BITMAP
0000000000000000002CC5
0000000000000000004FF5
0000016BEFEC9300008FF3
00005EFFFFFFFFA104EFD0
0007FFFEB9ADFFFDCFFF40
005FFF8100003DFFFFD400
01EFF700000001DFF90000
06FFB0000000004FFD0000
0CFF40000000000CFF4000
1FFE000000000007FF8000
4FFB000000000004FFB000
5FFA000000000002FFC000
6FF9000000000002FFD000
6FF8000000000001FFD000
6FF9000000000002FFD000
5FFA000000000003FFC000
4FFB000000000004FFB000
1FFE000000000007FF8000
0CFF40000000000CFF4000
07FFB0000000003FFE0000
01EFF700000001CFF70000
005FFF8100003CFFC00000
0007FFFEA99CFFFD200000
00005EFFFFFFFFB2000000
0000016BEFED9400000000
ENDCHAR
STARTCHAR ohorn
ENCODING 417
SWIDTH 571 0
DWIDTH 18 0
BBX 18 19 1 0
BITMAP
000000000000000498
0000000000000007FC
000029DEED94000AFA
0007FFFFFFFFA15FF4
008FFFA769EFFFFFA0
04FFE300002DFFE600
0CFF50000002EFE100
2FFC000000009FF600
6FF8000000005FF900
7FF6000000002FFB00
8FF5000000002FFC00
8FF5000000002FFB00
6FF8000000005FF900
3FFC000000009FF600
0CFF40000002EFF100
05FFE300001CFF8000
009FFFA669EFFC0000
0008FFFFFFFFA10000
000029DEFDA4000000
ENDCHAR
STARTCHAR Uhorn
ENCODING 431
SWIDTH 695 0
DWIDTH 22 0
BBX 23 25 2 0
BITMAP
000000000000000000004420
00000000000000000001FF60
CFF20000000005FFA003FF50
CFF20000000005FFA008FF20
CFF20000000005FFA04EFB00
CFF20000000005FFEDFFE300
CFF20000000005FFFFFB3000
CFF20000000005FFC5200000
CFF20000000005FFA0000000
CFF20000000005FFA0000000
CFF20000000005FFA0000000
CFF20000000005FFA0000000
CFF20000000005FFA0000000
CFF20000000005FFA0000000
CFF20000000005FFA0000000
CFF20000000005FFA0000000
CFF20000000005FFA0000000
CFF30000000006FFA0000000
BFF40000000007FF80000000
8FF8000000000BFF60000000
4FFE100000003FFE10000000
0BFFC2000003DFF800000000
02DFFFB878CFFFB000000000
002BFFFFFFFFF90000000000
000049DEFEC8200000000000
ENDCHAR
STARTCHAR uhorn
ENCODING 432
SWIDTH 618 0
DWIDTH 20 0
BBX 19 19 2 0
BITMAP
00000000000000006610
0000000000000000FF30
DFF00000007FF702FF10
DFF00000007FF72AFB00
DFF00000007FFFFFE300
DFF00000007FFDA71000
DFF00000007FF7000000
DFF00000007FF7000000
DFF00000007FF7000000
DFF00000007FF7000000
DFF00000007FF7000000
DFF00000007FF7000000
DFF00000007FF7000000
DFF20000007FF7000000
BFF4000000BFF7000000
7FFC100008FFF7000000
2FFFD879EFFFF7000000
06FFFFFFFE9FF7000000
003AEFEC715FF7000000
ENDCHAR
STARTCHAR uni01F0
ENCODING 496
SWIDTH 251 0
DWIDTH 8 0
BBX 11 30 -2 -7
BITMAP
05FF4002DF90
005FF42DF900
0005FFDF8000
00004FF80000
000000000000
000000000000
00005FF90000
00005FF90000
00005FF90000
00005FF90000
00005FF90000
00005FF90000
00005FF90000
00005FF90000
00005FF90000
00005FF90000
00005FF90000
00005FF90000
00005FF90000
00005FF90000
00005FF90000
00005FF90000
00005FF90000
00005FF90000
00005FF90000
00006FF80000
0000BFF50000
076AFFE10000
1FFFFF500000
2DFEA3000000
ENDCHAR
STARTCHAR Aringacute
ENCODING 506
SWIDTH 652 0
DWIDTH 21 0
BBX 21 31 0 0
BITMAP
000000000004FF80000000
00000000003EF600000000
00000000009D5000000000
0000000000000000000000
000000002BEC3000000000
00000000DB4AD000000000
00000001F403F200000000
00000000DB4AE000000000
000000004FFF3000000000
000000007FFF5000000000
00000000CFFFA000000000
00000003FFFFF100000000
00000009FF7FF700000000
0000000EFC0DFC00000000
0000005FF608FF30000000
000000BFE102FF90000000
000001FFA000CFE0000000
000007FF40006FF5000000
00000DFD00001EFB000000
00003FF800000AFF200000
00009FF2000004FF700000
0001EFC0000000DFD00000
0005FFFFFFFFFFFFF40000
000BFFFFFFFFFFFFF90000
002FFC777777777DFE1000
007FF50000000007FF6000
00DFE10000000002FFB000
04FFA00000000000CFF200
09FF5000000000007FF800
1EFF1000000000002FFD00
6FFA0000000000000CFF40
ENDCHAR
STARTCHAR aringacute
ENCODING 507
SWIDTH 543 0
DWIDTH 17 0
BBX 15 26 1 0
BITMAP
000000000AFE3000
000000009FD20000
00000003CB100000
0000000000000000
0000006DE9000000
000004F75E700000
000007C009B00000
000004F65E700000
0000007DE9000000
00005ADFEC820000
002CFFFFFFFF5000
01DFFD757CFFF300
09FF9000009FFB00
0DFF1000001FFE00
00000000000DFF10
00000000000CFF10
00017BDEFFFFFF10
006EFFFFFFFFFF10
06FFE842111DFF10
0EFE2000000CFF10
3FFA0000000CFF10
4FFB0000002EFF10
2FFF400004DFFF10
0AFFFB89CFFFFF20
01CFFFFFFF9BFF50
0006BEFDA308FF90
ENDCHAR
STARTCHAR AEacute
ENCODING 508
SWIDTH 934 0
DWIDTH 30 0
BBX 31 30 -1 0
BITMAP
00000000000000004FFE300000000000
0000000000000001DFF5000000000000
0000000000000009FF70000000000000
000000000000004FFA00000000000000
000000000000007CB000000000000000
00000000000000000000000000000000
00000000000000000000000000000000
00000000000000BFFFFFFFFFFFFFF600
00000000000006FFFFFFFFFFFFFFF600
0000000000001EFFFFB6666666666200
0000000000008FFBFFA0000000000000
000000000003FFE4FFA0000000000000
00000000000BFF63FFB0000000000000
00000000005FFC02FFB0000000000000
0000000001EFF401FFC0000000000000
0000000008FFB001FFD0000000000000
000000003FFF3000FFD0000000000000
00000000BFF90000FFFFFFFFFFFF2000
00000005FFE10000EFFFFFFFFFFF2000
0000001DFF700000DFF5555555551000
0000008FFD100000DFF1000000000000
000002FFF6000000CFF1000000000000
00000BFFFFFFFFFFFFF2000000000000
00005FFFFFFFFFFFFFF3000000000000
0001DFFDBBBBBBBBEFF3000000000000
0008FFE100000000AFF4000000000000
002FFF70000000009FF4000000000000
00BFFC00000000008FF9555555555520
05FFF300000000008FFFFFFFFFFFFF50
1DFF9000000000007FFFFFFFFFFFFF50
ENDCHAR
STARTCHAR aeacute
ENCODING 509
SWIDTH 844 0
DWIDTH 27 0
BBX 25 24 1 0
BITMAP
00000000000007FFD100000000
0000000000003FFE2000000000
000000000000CFF40000000000
000000000008FF600000000000
000000000009D9000000000000
00000000000000000000000000
00000000000000000000000000
00039CEFDA500018CEED930000
009FFFFFFFFB14EFFFFFFF8000
09FFFB768EFFCFFFA669EFF800
2FFF500002EFFFF400002DFF20
4EFA0000008FFF80000005FF80
00110000005FFF10000001FFB0
00000000004FFC00000000EFD0
0016BDEFFFFFFFFFFFFFFFFFE0
04EFFFFFFFFFFFFFFFFFFFFFE0
2EFFD743336FFA444444444430
8FFB0000004FFB000000000000
BFF30000004FFE100000000000
BFF30000005FFF700000000000
9FF9000005EFFFF50000003A00
3FFFB768DFFF8FFFC7568CFF50
07FFFFFFFFD404DFFFFFFFFD40
004ADFEDA5000016BDFEDA5000
ENDCHAR
STARTCHAR Oslashacute
ENCODING 510
SWIDTH 687 0
DWIDTH 22 0
BBX 20 32 1 -2
BITMAP
00000000000BFFA00000
00000000006FFC000000
0000000002EFD1000000
000000000BFE30000000
000000002BE500000000
00000000000000000000
00000000000000000992
0000005ADFEDA5007FB0
00003CFFFFFFFFC5EF20
0004EFFFC99CFFFFF700
002EFFB200002AFFF200
00AFFA00000001EFFA00
03FFE10000000AFFFF20
08FF800000004FD9FF80
0CFF30000001DF54FFC0
0FFF00000008FA01FFE0
1FFE0000003FE200EFF1
2FFD000000CF6000DFF2
2FFC000007FC0000DFF2
2FFD00002EF30000DFF2
1FFD0000BF800000EFF1
0FFF0005FD000000FFF0
0CFF301EF4000003FFC0
08FF809F90000008FF80
03FFE5FE1000001EFF30
00AFFFF50000009FFB00
002EFFE200001AFFE200
0006FFFFB99BFFFF5000
000BFEFFFFFFFFD40000
006FC05ADFFDA5000000
01EF3000000000000000
01220000000000000000
ENDCHAR
STARTCHAR oslashacute
ENCODING 511
SWIDTH 566 0
DWIDTH 18 0
BBX 16 26 1 -2
BITMAP
000000008FFC1000
00000003FFE20000
0000000DFF300000
0000008FF5000000
000001AD80000000
0000000000007A20
000000000002FC00
000029DEED9BF400
0007FFFFFFFFE100
008FFFA769FFFB00
04FFE30002FFFF70
0CFF50000AF7FFE1
2FFC00003FC09FF5
6FF80000BF405FF9
7FF60003FB002FFB
8FF5000BF3002FFC
7FF6004FB0002FFB
6FF800CF30004FF9
2FFC04FA00009FF6
0CFF5CF20002EFF1
04FFFF90001CFF80
009FFFB669EFFC00
000AFFFFFFFFA100
000CF9CEFDA40000
004FA00000000000
009C200000000000
ENDCHAR
STARTCHAR uni0218
ENCODING 536
SWIDTH 593 0
DWIDTH 19 0
BBX 17 30 1 -7
BITMAP
000028CEFEC9300000
0008FFFFFFFFFA1000
00AFFFC988AFFFD100
05FFE5000002BFFB00
0CFF600000001DFF40
0FFF1000000007FF90
0FFF1000000004DD90
0CFF60000000000000
07FFF6000000000000
00BFFFD72000000000
0019FFFFFC83000000
00003BFFFFFFC40000
00000027CFFFFF8000
00000000017DFFF900
0000000000007FFF30
00000000000009FF90
AEE40000000004FFB0
9FF80000000004FFB0
4FFE1000000009FF80
0BFFD30000007FFF30
01CFFFC8779DFFF700
0018FFFFFFFFFE6000
000026BDEEDB710000
000000000000000000
00000009FF30000000
00000009FF20000000
0000000BFF00000000
0000001EFA00000000
0000007FF300000000
0000002B6000000000
ENDCHAR
STARTCHAR uni0219
ENCODING 537
SWIDTH 515 0
DWIDTH 17 0
BBX 14 25 1 -8
BITMAP
00018CEFEB6000
005EFFFFFFFC20
03FFFB769EFFD0
0BFF700001DFF6
0EFF0000004FFA
0DFF3000001443
08FFE720000000
00BFFFFDA61000
0005CFFFFFE810
00000259DFFFD1
0000000003DFF8
48830000003FFD
5FFA0000001FFD
1EFF5000007FFA
06FFFB767CFFF3
006EFFFFFFFE50
00028CEFEC7100
00000000000000
00000000000000
0000009FF20000
0000009FF20000
000000BFE00000
000001FFA00000
000008FF200000
000002B6000000
ENDCHAR
STARTCHAR uni021A
ENCODING 538
SWIDTH 596 0
DWIDTH 19 0
BBX 19 30 0 -7
BITMAP
4FFFFFFFFFFFFFFFFF50
4FFFFFFFFFFFFFFFFF50
27777777FFF777777730
00000000EFF100000000
00000000EFF100000000
00000000EFF100000000
00000000EFF100000000
00000000EFF100000000
00000000EFF100000000
00000000EFF100000000
00000000EFF100000000
00000000EFF100000000
00000000EFF100000000
00000000EFF100000000
00000000EFF100000000
00000000EFF100000000
00000000EFF100000000
00000000EFF100000000
00000000EFF100000000
00000000EFF100000000
00000000EFF100000000
00000000EFF100000000
00000000EFF100000000
00000000000000000000
00000000CFE000000000
00000000CFE000000000
00000000EFC000000000
00000004FF7000000000
0000000BFD1000000000
00000004C30000000000
ENDCHAR
STARTCHAR uni021B
ENCODING 539
SWIDTH 326 0
DWIDTH 10 0
BBX 10 28 0 -7
BITMAP
000CFF2000
000CFF2000
000CFF2000
000CFF2000
DFFFFFFFF4
DFFFFFFFF4
344DFF5441
000CFF2000
000CFF2000
000CFF2000
000CFF2000
000CFF2000
000CFF2000
000CFF2000
000CFF2000
000CFF2000
000CFF2000
000AFF4000
0007FFE883
0001EFFFF5
00003BEFD4
0000000000
000005FF70
000005FF60
000007FF40
00000BFE00
00003FF600
000019A000
ENDCHAR
STARTCHAR uni0237
ENCODING 567
SWIDTH 251 0
DWIDTH 8 0
BBX 8 24 -2 -7
BITMAP
00005FF9
00005FF9
00005FF9
00005FF9
00005FF9
00005FF9
00005FF9
00005FF9
00005FF9
00005FF9
00005FF9
00005FF9
00005FF9
00005FF9
00005FF9
00005FF9
00005FF9
00005FF9
00005FF9
00006FF8
0000BFF5
076AFFE1
1FFFFF50
2DFEA300
ENDCHAR
STARTCHAR uni0259
ENCODING 601
SWIDTH 526 0
DWIDTH 17 0
BBX 15 17 1 0
BITMAP
0016BDEED9300000
05EFFFFFFFF90000
0BFFB7669FFFA000
02A2000002DFF600
00000000004FFD00
00000000000BFF40
000000000007FF70
000000000005FF90
7FFFFFFFFFFFFFA0
7FFFFFFFFFFFFF90
6FFA5555555AFF70
5FF80000000BFF30
1FFC0000003FFD00
0BFF700001DFF500
02EFFB768EFF9000
004EFFFFFFF80000
00017CEFEA300000
ENDCHAR
STARTCHAR uni02BC
ENCODING 700
SWIDTH 199 0
DWIDTH 6 0
BBX 6 8 0 16
BITMAP
00BFF2
00BFF2
00CFF1
00DFE0
02FFA0
08FF40
1EFA00
06B100
ENDCHAR
STARTCHAR circumflex
ENCODING 710
SWIDTH 470 0
DWIDTH 15 0
BBX 10 4 2 20
BITMAP
0003DFB100
004EFDFC20
06FF70BFE3
2AD8001BD9
ENDCHAR
STARTCHAR caron
ENCODING 711
SWIDTH 443 0
DWIDTH 14 0
BBX 10 4 2 20
BITMAP
6FE3003EF7
06FE33EF70
006FEEF700
0006FF6000
ENDCHAR
STARTCHAR uni02C9
ENCODING 713
SWIDTH 458 0
DWIDTH 15 0
BBX 11 2 2 21
BITMAP
CFFFFFFFFFB0
CFFFFFFFFFB0
ENDCHAR
STARTCHAR breve
ENCODING 728
SWIDTH 426 0
DWIDTH 14 0
BBX 10 4 2 19
BITMAP
EF70001FF5
AFD2009FF1
2EFFEFFF70
029DFEB400
ENDCHAR
STARTCHAR dotaccent
ENCODING 729
SWIDTH 242 0
DWIDTH 8 0
BBX 4 4 2 20
BITMAP
0430
8FF5
BFF9
5ED3
ENDCHAR
STARTCHAR ring
ENCODING 730
SWIDTH 334 0
DWIDTH 11 0
BBX 7 6 2 19
BITMAP
08DEB300
9F97DE20
F9002F70
F9001F80
9F97CE20
18DEB300
ENDCHAR
STARTCHAR ogonek
ENCODING 731
SWIDTH 270 0
DWIDTH 9 0
BBX 7 8 0 -7
BITMAP
0004C600
007FF500
06FF4000
0EF90000
3FF50000
2FFA3510
0CFFFF30
02BEEA10
ENDCHAR
STARTCHAR tilde
ENCODING 732
SWIDTH 471 0
DWIDTH 15 0
BBX 11 4 2 20
BITMAP
001310000750
1BFFFA549FC0
AFFFFFFFFF60
EE3038DFD600
ENDCHAR
STARTCHAR hungarumlaut
ENCODING 733
SWIDTH 373 0
DWIDTH 12 0
BBX 12 5 1 19
BITMAP
003FFD01DFF4
00BFF30BFF60
05FF808FF900
1DFC05FFB000
3BE309CC1000
ENDCHAR
STARTCHAR uni02F3
ENCODING 755
SWIDTH 293 0
DWIDTH 9 0
BBX 6 5 2 -6
BITMAP
2BED40
BD59E1
F601F4
CC59F2
2BED50
ENDCHAR
STARTCHAR gravecomb
ENCODING 768
SWIDTH 0 0
DWIDTH 0 0
BBX 7 5 -14 19
BITMAP
1DFF7000
03FFE200
006FFC00
0009FF70
0000BC90
ENDCHAR
STARTCHAR acutecomb
ENCODING 769
SWIDTH 0 0
DWIDTH 0 0
BBX 8 5 -11 19
BITMAP
0009FFC1
004FFD10
01DFE300
09FF5000
1AD70000
ENDCHAR
STARTCHAR tildecomb
ENCODING 771
SWIDTH 0 0
DWIDTH 0 0
BBX 12 4 -14 20
BITMAP
001310000561
08FFFB646FF1
7FFFFFFFFFA0
AF6027CFD810
ENDCHAR
STARTCHAR hookabovecomb
ENCODING 777
SWIDTH 0 0
DWIDTH 0 0
BBX 6 6 -11 19
BITMAP
7EC810
5BEFD0
002FF4
148FF2
3FFC50
3FD000
ENDCHAR
STARTCHAR uni030F
ENCODING 783
SWIDTH 0 0
DWIDTH 0 0
BBX 12 4 -16 20
BITMAP
1BFFA09FF800
009FFB19FF60
0006FFC2AFF4
00004EC70AD9
ENDCHAR
STARTCHAR dotbelowcomb
ENCODING 803
SWIDTH 0 0
DWIDTH 0 0
BBX 5 4 -12 -6
BITMAP
09EB00
1FFF40
0DFE10
014100
ENDCHAR
STARTCHAR tonos
ENCODING 900
SWIDTH 256 0
DWIDTH 8 0
BBX 5 5 2 20
BITMAP
06FF40
09FD00
0CF800
0EF200
1AB000
ENDCHAR
STARTCHAR dieresistonos
ENCODING 901
SWIDTH 505 0
DWIDTH 16 0
BBX 13 6 1 20
BITMAP
0000009FF40000
000000CFD00000
014101FF701300
1EFD01AD12EFB0
3FFF200005FFF0
0BEA000001CE80
ENDCHAR
STARTCHAR Alphatonos
ENCODING 902
SWIDTH 652 0
DWIDTH 21 0
BBX 21 25 0 0
BITMAP
0005FF5000000000000000
0008FE0000000000000000
000BF9001FFE0000000000
000DF3007FFF5000000000
000AC000CFFFA000000000
00000003FFFFF100000000
00000009FF7FF700000000
0000000EFC0DFC00000000
0000005FF608FF30000000
000000BFE102FF90000000
000001FFA000CFE0000000
000007FF40006FF5000000
00000DFD00001EFB000000
00003FF800000AFF200000
00009FF2000004FF700000
0001EFC0000000DFD00000
0005FFFFFFFFFFFFF40000
000BFFFFFFFFFFFFF90000
002FFC777777777DFE1000
007FF50000000007FF6000
00DFE10000000002FFB000
04FFA00000000000CFF200
09FF5000000000007FF800
1EFF1000000000002FFD00
6FFA0000000000000CFF40
ENDCHAR
STARTCHAR anoteleia
ENCODING 903
SWIDTH 261 0
DWIDTH 8 0
BBX 4 4 2 9
BITMAP
3DE5
AFFD
8FFA
0561
ENDCHAR
STARTCHAR Epsilontonos
ENCODING 904
SWIDTH 568 0
DWIDTH 18 0
BBX 22 25 -4 0
BITMAP
09FF100000000000000000
0CFA000000000000000000
0FF4005FFFFFFFFFFFFFE0
3FE0005FFFFFFFFFFFFFE0
3B80005FFC777777777770
0000005FFA000000000000
0000005FFA000000000000
0000005FFA000000000000
0000005FFA000000000000
0000005FFA000000000000
0000005FFA000000000000
0000005FFA000000000000
0000005FFFFFFFFFFFF800
0000005FFFFFFFFFFFF800
0000005FFC777777777300
0000005FFA000000000000
0000005FFA000000000000
0000005FFA000000000000
0000005FFA000000000000
0000005FFA000000000000
0000005FFA000000000000
0000005FFA000000000000
0000005FFC777777777771
0000005FFFFFFFFFFFFFF1
0000005FFFFFFFFFFFFFF1
ENDCHAR
STARTCHAR Etatonos
ENCODING 905
SWIDTH 712 0
DWIDTH 23 0
BBX 25 25 -4 0
BITMAP
06FF4000000000000000000000
09FD0000000000000000000000
0CF8005FFA00000000000DFF20
0EF2005FFA00000000000DFF20
1AB0005FFA00000000000DFF20
0000005FFA00000000000DFF20
0000005FFA00000000000DFF20
0000005FFA00000000000DFF20
0000005FFA00000000000DFF20
0000005FFA00000000000DFF20
0000005FFA00000000000DFF20
0000005FFA00000000000DFF20
0000005FFFFFFFFFFFFFFFFF20
0000005FFFFFFFFFFFFFFFFF20
0000005FFC77777777777EFF20
0000005FFA00000000000DFF20
0000005FFA00000000000DFF20
0000005FFA00000000000DFF20
0000005FFA00000000000DFF20
0000005FFA00000000000DFF20
0000005FFA00000000000DFF20
0000005FFA00000000000DFF20
0000005FFA00000000000DFF20
0000005FFA00000000000DFF20
0000005FFA00000000000DFF20
ENDCHAR
STARTCHAR Iotatonos
ENCODING 906
SWIDTH 271 0
DWIDTH 9 0
BBX 9 25 -3 0
BITMAP
4FF5000000
7FE0000000
AF9002FFD0
DF4002FFD0
AC0002FFD0
000002FFD0
000002FFD0
000002FFD0
000002FFD0
000002FFD0
000002FFD0
000002FFD0
000002FFD0
000002FFD0
000002FFD0
000002FFD0
000002FFD0
000002FFD0
000002FFD0
000002FFD0
000002FFD0
000002FFD0
000002FFD0
000002FFD0
000002FFD0
ENDCHAR
STARTCHAR Omicrontonos
ENCODING 908
SWIDTH 697 0
DWIDTH 22 0
BBX 22 25 -1 0
BITMAP
0AFE000000000000000000
0DF9000000000000000000
1FF4000039CEFEB7100000
3FD0001AFFFFFFFFE60000
3B8001CFFFDA9BEFFF9000
00000BFFD4000007FFF600
00006FFE200000006FFE10
0000DFF5000000000AFF70
0003FFD00000000003FFD0
0007FF800000000000EFF2
000AFF500000000000BFF4
000CFF3000000000009FF6
000CFF2000000000008FF7
000DFF2000000000008FF7
000DFF2000000000008FF7
000CFF3000000000009FF6
000AFF500000000000BFF4
0008FF800000000000DFF2
0004FFD00000000003FFD0
0000DFF5000000000AFF80
00006FFD200000005FFE10
00000BFFD4000006FFF600
000001CFFFD99AEFFF9000
0000001AFFFFFFFFE70000
0000000039CEFEB7100000
ENDCHAR
STARTCHAR Upsilontonos
ENCODING 910
SWIDTH 649 0
DWIDTH 21 0
BBX 25 25 -4 0
BITMAP
0EFA0000000000000000000000
2FF50000000000000000000000
5FE001DFF700000000003FFF30
8F90006FFE1000000000AFFA00
6D40000DFF8000000003FFF200
00000005FFE10000000BFF9000
00000000BFF80000004FFE1000
000000003FFE100000BFF70000
000000000AFF800004FFE10000
0000000002FFF2000CFF600000
00000000009FF9004FFD000000
00000000001EFF20CFF5000000
000000000007FF95FFC0000000
000000000001EFFDFF30000000
0000000000006FFFFA00000000
0000000000000DFFF200000000
00000000000006FFA000000000
00000000000005FFA000000000
00000000000005FFA000000000
00000000000005FFA000000000
00000000000005FFA000000000
00000000000005FFA000000000
00000000000005FFA000000000
00000000000005FFA000000000
00000000000005FFA000000000
ENDCHAR
STARTCHAR Omegatonos
ENCODING 911
SWIDTH 674 0
DWIDTH 22 0
BBX 21 25 -1 0
BITMAP
09FF100000000000000000
0CFA000000000000000000
0FF400005BEFEC83000000
3FE0003DFFFFFFFF800000
3B8004FFFE988BFFFB0000
00002EFF9100003DFF8000
0000AFF900000002EFF300
0002FFE1000000006FFA00
0007FF90000000001FFF10
000AFF50000000000CFF40
000DFF30000000000AFF60
000EFF200000000009FF70
000EFF200000000008FF70
000EFF200000000008FF70
000DFF200000000009FF60
000BFF30000000000AFF50
0009FF50000000000CFF20
0004FF80000000000EFD00
0001EFC0000000004FF800
00008FF400000000AFF100
00001EFC00000004FF8000
000004FFB100004EFC0000
000677CFFE801BFFF87730
000DFFFFFFD03FFFFFFF60
000DFFFFFFD03FFFFFFF60
ENDCHAR
STARTCHAR iotadieresistonos
ENCODING 912
SWIDTH 323 0
DWIDTH 10 0
BBX 13 25 -2 0
BITMAP
000000EFD00000
000002FF800000
023005FF203300
5FF905BA07FF60
8FFC00000AFFA0
3DE5000004EE40
00000000000000
00000000000000
00000EFE000000
00000EFE000000
00000EFE000000
00000EFE000000
00000EFE000000
00000EFE000000
00000EFE000000
00000EFE000000
00000EFE000000
00000EFE000000
00000EFE000000
00000EFE000000
00000EFE000000
00000DFF200000
00000AFFD88200
000003FFFFF200
0000004CFFD200
ENDCHAR
STARTCHAR Alpha
ENCODING 913
SWIDTH 652 0
DWIDTH 21 0
BBX 21 23 0 0
BITMAP
000000001FFE0000000000
000000007FFF5000000000
00000000CFFFA000000000
00000003FFFFF100000000
00000009FF7FF700000000
0000000EFC0DFC00000000
0000005FF608FF30000000
000000BFE102FF90000000
000001FFA000CFE0000000
000007FF40006FF5000000
00000DFD00001EFB000000
00003FF800000AFF200000
00009FF2000004FF700000
0001EFC0000000DFD00000
0005FFFFFFFFFFFFF40000
000BFFFFFFFFFFFFF90000
002FFC777777777DFE1000
007FF50000000007FF6000
00DFE10000000002FFB000
04FFA00000000000CFF200
09FF5000000000007FF800
1EFF1000000000002FFD00
6FFA0000000000000CFF40
ENDCHAR
STARTCHAR Beta
ENCODING 914
SWIDTH 622 0
DWIDTH 20 0
BBX 17 23 2 0
BITMAP
5FFFFFFFFEB8200000
5FFFFFFFFFFFF70000
5FFC777779DFFF7000
5FFA00000008FFE100
5FFA00000000CFF500
5FFA000000008FF700
5FFA000000008FF700
5FFA00000000BFF500
5FFA00000004FFD000
5FFA0000028FFF4000
5FFFFFFFFFFFD40000
5FFFFFFFFFFFC40000
5FFC666667AFFF7000
5FFA00000002DFF500
5FFA000000004FFC00
5FFA000000000FFF10
5FFA000000000EFF20
5FFA000000001FFF10
5FFA000000006FFC00
5FFA00000004EFF700
5FFC777778BFFFC000
5FFFFFFFFFFFFB1000
5FFFFFFFFED9400000
ENDCHAR
STARTCHAR Gamma
ENCODING 915
SWIDTH 556 0
DWIDTH 18 0
BBX 15 23 2 0
BITMAP
4FFFFFFFFFFFFFB0
4FFFFFFFFFFFFFB0
4FFD777777777750
4FFC000000000000
4FFC000000000000
4FFC000000000000
4FFC000000000000
4FFC000000000000
4FFC000000000000
4FFC000000000000
4FFC000000000000
4FFC000000000000
4FFC000000000000
4FFC000000000000
4FFC000000000000
4FFC000000000000
4FFC000000000000
4FFC000000000000
4FFC000000000000
4FFC000000000000
4FFC000000000000
4FFC000000000000
4FFC000000000000
ENDCHAR
STARTCHAR uni0394
ENCODING 916
SWIDTH 705 0
DWIDTH 23 0
BBX 22 23 0 0
BITMAP
0000000002FFE000000000
0000000008FFF500000000
000000000EFFFB00000000
000000006FFFFF20000000
00000000CFF6FF80000000
00000003FFA0EFD0000000
00000009FF409FF5000000
0000001FFD003FFA000000
0000007FF7000CFF200000
000000DFF10006FF700000
000004FFA00001FFD00000
00000BFF300000AFF40000
00002FFC0000004FFA0000
00008FF60000000EFF1000
0001EFE100000008FF7000
0006FF9000000002FFD000
000CFF3000000000CFF400
003FFC00000000006FF900
00AFF600000000001EFE10
01FFE100000000000AFF60
07FFC777777777777AFFC0
0DFFFFFFFFFFFFFFFFFFF3
5FFFFFFFFFFFFFFFFFFFF9
ENDCHAR
STARTCHAR Epsilon
ENCODING 917
SWIDTH 568 0
DWIDTH 18 0
BBX 16 23 2 0
BITMAP
5FFFFFFFFFFFFFE0
5FFFFFFFFFFFFFE0
5FFC777777777770
5FFA000000000000
5FFA000000000000
5FFA000000000000
5FFA000000000000
5FFA000000000000
5FFA000000000000
5FFA000000000000
5FFFFFFFFFFFF800
5FFFFFFFFFFFF800
5FFC777777777300
5FFA000000000000
5FFA000000000000
5FFA000000000000
5FFA000000000000
5FFA000000000000
5FFA000000000000
5FFA000000000000
5FFC777777777771
5FFFFFFFFFFFFFF1
5FFFFFFFFFFFFFF1
ENDCHAR
STARTCHAR Zeta
ENCODING 918
SWIDTH 598 0
DWIDTH 19 0
BBX 17 23 1 0
BITMAP
7FFFFFFFFFFFFFFF60
7FFFFFFFFFFFFFFF60
377777777777AFFF30
000000000001DFF800
000000000009FFC000
00000000004FFF3000
0000000001DFF70000
0000000009FFC00000
000000005FFE200000
00000001EFF6000000
0000000AFFB0000000
0000005FFE20000000
000001EFF600000000
00000BFFA000000000
00006FFE1000000000
0002EFF50000000000
000BFFA00000000000
007FFD100000000000
02FFF4000000000000
0CFF90000000000000
7FFF87777777777760
AFFFFFFFFFFFFFFFE0
AFFFFFFFFFFFFFFFE0
ENDCHAR
STARTCHAR Eta
ENCODING 919
SWIDTH 712 0
DWIDTH 23 0
BBX 19 23 2 0
BITMAP
5FFA00000000000DFF20
5FFA00000000000DFF20
5FFA00000000000DFF20
5FFA00000000000DFF20
5FFA00000000000DFF20
5FFA00000000000DFF20
5FFA00000000000DFF20
5FFA00000000000DFF20
5FFA00000000000DFF20
5FFA00000000000DFF20
5FFFFFFFFFFFFFFFFF20
5FFFFFFFFFFFFFFFFF20
5FFC77777777777EFF20
5FFA00000000000DFF20
5FFA00000000000DFF20
5FFA00000000000DFF20
5FFA00000000000DFF20
5FFA00000000000DFF20
5FFA00000000000DFF20
5FFA00000000000DFF20
5FFA00000000000DFF20
5FFA00000000000DFF20
5FFA00000000000DFF20
ENDCHAR
STARTCHAR Theta
ENCODING 920
SWIDTH 680 0
DWIDTH 22 0
BBX 19 23 1 0
BITMAP
0000016BEFED94000000
00005EFFFFFFFFB10000
0007FFFEB9ADFFFD2000
005FFF8100003DFFC000
00DFF700000001DFF700
06FFC0000000003FFE00
0CFF50000000000CFF40
1FFE000000000007FF80
3FFC000000000004FFB0
5FFA000000000002FFD0
6FF901FFFFFFFF01FFD0
6FF901FFFFFFFF01FFE0
6FF9006666666601FFD0
5FFA000000000002FFD0
3FFC000000000004FFB0
1FFE000000000007FF80
0CFF50000000000BFF50
06FFC0000000003FFE00
01DFF700000001CFF700
005FFF8100003CFFD100
0007FFFEA99CFFFE2000
00005EFFFFFFFFB20000
0000016BEFED94000000
ENDCHAR
STARTCHAR Iota
ENCODING 921
SWIDTH 271 0
DWIDTH 9 0
BBX 4 23 2 0
BITMAP
2FFD
2FFD
2FFD
2FFD
2FFD
2FFD
2FFD
2FFD
2FFD
2FFD
2FFD
2FFD
2FFD
2FFD
2FFD
2FFD
2FFD
2FFD
2FFD
2FFD
2FFD
2FFD
2FFD
ENDCHAR
STARTCHAR Kappa
ENCODING 922
SWIDTH 626 0
DWIDTH 20 0
BBX 18 23 2 0
BITMAP
5FFA000000000AFFD1
5FFA000000009FFE20
5FFA00000007FFE300
5FFA0000005FFF5000
5FFA000004FFF60000
5FFA00003EFF800000
5FFA0002EFFA000000
5FFA001DFFB0000000
5FFA01CFFC10000000
5FFA0AFFD200000000
5FFA9FFFA000000000
5FFEFFFFF600000000
5FFFFF9FFF30000000
5FFFF50AFFD1000000
5FFF5001DFFA000000
5FFA00003FFF700000
5FFA000006FFF30000
5FFA000000AFFD1000
5FFA0000001DFFA000
5FFA00000003FFF700
5FFA000000006FFF30
5FFA000000000AFFD1
5FFA0000000001DFFA
ENDCHAR
STARTCHAR Lambda
ENCODING 923
SWIDTH 655 0
DWIDTH 21 0
BBX 20 23 0 0
BITMAP
000000002FFE00000000
000000007FFF40000000
00000000DFFFA0000000
00000003FFFFE1000000
00000008FFEFF6000000
0000000EFF6FFB000000
0000004FFB0EFF200000
000000AFF609FF700000
000001EFF104FFC00000
000005FFB000DFF30000
00000BFF50008FF80000
00001FFE10003FFD0000
00007FFA00000DFF4000
0000CFF5000008FF9000
0002FFE0000002FFE000
0008FF90000000CFF500
000DFF400000007FFB00
004FFE000000002FFF10
009FF9000000000BFF60
00EFF30000000006FFC0
05FFD00000000001FFF2
0AFF800000000000BFF8
1FFF3000000000005FFD
ENDCHAR
STARTCHAR Mu
ENCODING 924
SWIDTH 873 0
DWIDTH 28 0
BBX 24 23 2 0
BITMAP
5FFFB00000000000000CFFF4
5FFFF20000000000003FFFF4
5FFFF80000000000009FFFF4
5FFFFD000000000001EFFFF4
5FFEFF400000000006FFEFF4
5FF9FFA0000000000CFF9FF4
5FF6CFF2000000003FFB8FF4
5FF76FF7000000009FF58FF4
5FF71EFD00000001EFD08FF4
5FF809FF40000006FF809FF4
5FF803FFA000000CFF209FF4
5FF800CFF100003FFB00AFF4
5FF9006FF700009FF500AFF4
5FF9001EFD0000EFD000BFF4
5FFA0009FF4005FF8000BFF4
5FFA0003FFA00BFF2000BFF4
5FFA0000CFF12FFA0000BFF4
5FFA00006FF78FF40000BFF4
5FFA00001EFDEFD00000BFF4
5FFA000009FFFF700000BFF4
5FFA000003FFFF200000BFF4
5FFA000000CFFA000000BFF4
5FFA0000006FF4000000BFF4
ENDCHAR
STARTCHAR Nu
ENCODING 925
SWIDTH 712 0
DWIDTH 23 0
BBX 19 23 2 0
BITMAP
5FFE10000000000DFF20
5FFF90000000000DFF20
5FFFF4000000000DFF20
5FFFFD100000000DFF20
5FFFFF800000000DFF20
5FFDFFF30000000DFF20
5FFA8FFC0000000DFF20
5FFA1DFF7000000DFF20
5FFA04FFF200000DFF20
5FFA009FFC00000DFF20
5FFA001EFF60000DFF20
5FFA0005FFE2000DFF20
5FFA0000AFFB000DFF20
5FFA00001EFF500DFF20
5FFA000006FFE10DFF20
5FFA000000BFFA0DFF20
5FFA0000002EFF5DFF20
5FFA00000007FFDEFF20
5FFA00000000CFFFFF20
5FFA000000003FFFFF20
5FFA0000000008FFFF20
5FFA0000000000DFFF20
5FFA00000000003FFF20
ENDCHAR
STARTCHAR Xi
ENCODING 926
SWIDTH 570 0
DWIDTH 18 0
BBX 16 23 1 0
BITMAP
1FFFFFFFFFFFFFF4
1FFFFFFFFFFFFFF4
0777777777777772
0000000000000000
0000000000000000
0000000000000000
0000000000000000
0000000000000000
0000000000000000
0000000000000000
00CFFFFFFFFFFF00
00CFFFFFFFFFFF00
0057777777777700
0000000000000000
0000000000000000
0000000000000000
0000000000000000
0000000000000000
0000000000000000
0000000000000000
1777777777777773
2FFFFFFFFFFFFFF8
2FFFFFFFFFFFFFF8
ENDCHAR
STARTCHAR Omicron
ENCODING 927
SWIDTH 687 0
DWIDTH 22 0
BBX 20 23 1 0
BITMAP
0000005ADFFDA5000000
00003CFFFFFFFFD30000
0004EFFFC99CFFFF4000
002EFFB200002BFFE200
00AFFA00000000AFFB00
03FFE1000000001EFF30
08FF800000000008FF80
0CFF300000000003FFC0
0FFF000000000001FFE0
1FFE000000000000EFF1
2FFD000000000000DFF2
2FFC000000000000DFF2
2FFD000000000000DFF2
1FFE000000000000EFF1
0FFF000000000000FFF0
0CFF300000000003FFC0
08FF800000000008FF80
03FFE1000000001EFF30
00BFFA000000009FFB00
002EFFB200001AFFE200
0004EFFFB99BFFFF5000
00003CFFFFFFFFD40000
0000005ADFFDA5000000
ENDCHAR
STARTCHAR Pi
ENCODING 928
SWIDTH 713 0
DWIDTH 23 0
BBX 18 23 2 0
BITMAP
3FFFFFFFFFFFFFFFFF
3FFFFFFFFFFFFFFFFF
3FFD77777777777FFF
3FFC00000000000FFF
3FFC00000000000FFF
3FFC00000000000FFF
3FFC00000000000FFF
3FFC00000000000FFF
3FFC00000000000FFF
3FFC00000000000FFF
3FFC00000000000FFF
3FFC00000000000FFF
3FFC00000000000FFF
3FFC00000000000FFF
3FFC00000000000FFF
3FFC00000000000FFF
3FFC00000000000FFF
3FFC00000000000FFF
3FFC00000000000FFF
3FFC00000000000FFF
3FFC00000000000FFF
3FFC00000000000FFF
3FFC00000000000FFF
ENDCHAR
STARTCHAR Rho
ENCODING 929
SWIDTH 630 0
DWIDTH 20 0
BBX 17 23 2 0
BITMAP
5FFFFFFFFFDB610000
5FFFFFFFFFFFFE4000
5FFC777778AEFFF500
5FFA00000001AFFE10
5FFA000000000CFF80
5FFA0000000004FFC0
5FFA0000000001FFE0
5FFA0000000000FFF0
5FFA0000000002FFD0
5FFA0000000006FFB0
5FFA000000002EFF60
5FFA00000027EFFC00
5FFFFFFFFFFFFFD200
5FFFFFFFFFFFE81000
5FFC77777653000000
5FFA00000000000000
5FFA00000000000000
5FFA00000000000000
5FFA00000000000000
5FFA00000000000000
5FFA00000000000000
5FFA00000000000000
5FFA00000000000000
ENDCHAR
STARTCHAR Sigma
ENCODING 931
SWIDTH 570 0
DWIDTH 18 0
BBX 17 23 1 0
BITMAP
EFFFFFFFFFFFFFF400
EFFFFFFFFFFFFFF400
AFFF87777777777200
1DFFA0000000000000
02EFF7000000000000
004FFF400000000000
0007FFE20000000000
0000AFFC0000000000
00001CFF9000000000
000002EFF600000000
0000003FFF30000000
00000009FFB0000000
0000004FFE20000000
000002EFF500000000
00001CFF8000000000
0000AFFB0000000000
0007FFE10000000000
004FFF300000000000
02EFF6000000000000
1DFFA0000000000000
AFFF77777777777700
EFFFFFFFFFFFFFFF10
EFFFFFFFFFFFFFFF10
ENDCHAR
STARTCHAR Tau
ENCODING 932
SWIDTH 596 0
DWIDTH 19 0
BBX 19 23 0 0
BITMAP
4FFFFFFFFFFFFFFFFF50
4FFFFFFFFFFFFFFFFF50
27777777FFF777777730
00000000EFF100000000
00000000EFF100000000
00000000EFF100000000
00000000EFF100000000
00000000EFF100000000
00000000EFF100000000
00000000EFF100000000
00000000EFF100000000
00000000EFF100000000
00000000EFF100000000
00000000EFF100000000
00000000EFF100000000
00000000EFF100000000
00000000EFF100000000
00000000EFF100000000
00000000EFF100000000
00000000EFF100000000
00000000EFF100000000
00000000EFF100000000
00000000EFF100000000
ENDCHAR
STARTCHAR Upsilon
ENCODING 933
SWIDTH 600 0
DWIDTH 19 0
BBX 19 23 0 0
BITMAP
7FFD00000000000BFFA0
1EFF70000000004FFF20
06FFE100000000CFF800
00DFF700000004FFE100
005FFE1000000CFF7000
000CFF7000005FFD1000
0003FFE10000CFF60000
0000AFF80005FFC00000
00002FFE100DFF400000
000009FF806FFB000000
000001EFE2DFF3000000
0000008FFDFFA0000000
0000001EFFFF20000000
00000006FFF900000000
00000000EFF200000000
00000000EFF100000000
00000000EFF100000000
00000000EFF100000000
00000000EFF100000000
00000000EFF100000000
00000000EFF100000000
00000000EFF100000000
00000000EFF100000000
ENDCHAR
STARTCHAR Phi
ENCODING 934
SWIDTH 716 0
DWIDTH 23 0
BBX 21 23 1 0
BITMAP
000000000FFF0000000000
000000000FFF0000000000
000000000FFF0000000000
000005ADEFFFEDA5000000
0004DFFFFFFFFFFFD30000
006FFFEA8FFF8AEFFF6000
03FFF7100FFF0017FFF300
0DFF60000FFF00006FFD00
4FFC00000FFF00000CFF50
8FF700000FFF000006FF90
AFF400000FFF000004FFB0
CFF300000FFF000003FFC0
BFF400000FFF000004FFB0
9FF700000FFF000006FF90
4FFC00000FFF00000CFF40
0DFF60000FFF00006FFD00
04FFF7000FFF0007FFF300
006FFFEA8FFF8AEFFF6000
0004DFFFFFFFFFFFD30000
000005ADEFFFECA4000000
000000000FFF0000000000
000000000FFF0000000000
000000000FFF0000000000
ENDCHAR
STARTCHAR Chi
ENCODING 935
SWIDTH 626 0
DWIDTH 20 0
BBX 19 23 1 0
BITMAP
9FFD0000000000CFFB00
1EFF8000000006FFE200
05FFF20000001EFF7000
00BFFB000000AFFC0000
002EFF600004FFF30000
0007FFE1000DFF900000
0000CFF9008FFD100000
00003FFF42FFF5000000
000009FFDBFFA0000000
000001DFFFFE20000000
0000005FFFF600000000
0000000DFFF100000000
0000006FFFF800000000
000002EFFFFF30000000
00000BFFBAFFC0000000
00005FFF21EFF7000000
0001EFF8006FFE200000
0009FFD0000CFFB00000
004FFF400003FFF50000
00DFF90000008FFE1000
08FFE10000001DFF9000
3FFF6000000004FFF400
CFFB0000000000AFFD10
ENDCHAR
STARTCHAR Psi
ENCODING 936
SWIDTH 691 0
DWIDTH 22 0
BBX 20 23 1 0
BITMAP
9FF60000AFF500008FF8
9FF60000AFF500008FF8
9FF60000AFF500008FF8
9FF60000AFF500008FF8
9FF60000AFF500008FF8
9FF60000AFF500008FF8
9FF60000AFF500008FF8
9FF60000AFF500008FF8
9FF60000AFF500008FF8
8FF70000AFF500009FF6
6FFA0000AFF50000BFF5
2FFE0000AFF50001FFF1
0CFF7000AFF50009FFA0
05FFF500AFF5007FFF30
009FFF93AFF64BFFF700
0009FFFFFFFFFFFF6000
00005CFFFFFFFFA30000
00000026DFFA51000000
00000000AFF500000000
00000000AFF500000000
00000000AFF500000000
00000000AFF500000000
00000000AFF500000000
ENDCHAR
STARTCHAR uni03A9
ENCODING 937
SWIDTH 665 0
DWIDTH 21 0
BBX 19 23 1 0
BITMAP
0000017CEFEB71000000
00006EFFFFFFFE500000
0008FFFC979DFFF70000
006FFE5000006FFF4000
01EFF400000005FFD000
07FFA000000000BFF600
0CFF40000000005FFB00
0FFF10000000002FFE00
2FFD00000000000EFF10
3FFD00000000000EFF20
4FFC00000000000DFF30
3FFC00000000000DFF20
2FFD00000000000EFF10
1FFE00000000000EFF00
0DFF10000000001FFC00
09FF30000000004FF800
04FF80000000009FF300
00CFE000000001EFB000
005FF800000009FF4000
0009FF7000007FF80000
1777EFFD504DFFE77710
2FFFFFFF807FFFFFFF10
2FFFFFFF807FFFFFFF10
ENDCHAR
STARTCHAR Iotadieresis
ENCODING 938
SWIDTH 271 0
DWIDTH 9 0
BBX 11 29 -1 0
BITMAP
033000003200
6FF7000AFF30
9FFB000EFF60
4DE40007EC20
000000000000
000000000000
0002FFD00000
0002FFD00000
0002FFD00000
0002FFD00000
0002FFD00000
0002FFD00000
0002FFD00000
0002FFD00000
0002FFD00000
0002FFD00000
0002FFD00000
0002FFD00000
0002FFD00000
0002FFD00000
0002FFD00000
0002FFD00000
0002FFD00000
0002FFD00000
0002FFD00000
0002FFD00000
0002FFD00000
0002FFD00000
0002FFD00000
ENDCHAR
STARTCHAR Upsilondieresis
ENCODING 939
SWIDTH 600 0
DWIDTH 19 0
BBX 19 29 0 0
BITMAP
00000240000033000000
00002FFB0006FF700000
00005FFF0009FFB00000
00001CE80004EE400000
00000000000000000000
00000000000000000000
7FFD00000000000BFFA0
1EFF70000000004FFF20
06FFE100000000CFF800
00DFF700000004FFE100
005FFE1000000CFF7000
000CFF7000005FFD1000
0003FFE10000CFF60000
0000AFF80005FFC00000
00002FFE100DFF400000
000009FF806FFB000000
000001EFE2DFF3000000
0000008FFDFFA0000000
0000001EFFFF20000000
00000006FFF900000000
00000000EFF200000000
00000000EFF100000000
00000000EFF100000000
00000000EFF100000000
00000000EFF100000000
00000000EFF100000000
00000000EFF100000000
00000000EFF100000000
00000000EFF100000000
ENDCHAR
STARTCHAR alphatonos
ENCODING 940
SWIDTH 564 0
DWIDTH 18 0
BBX 17 24 1 0
BITMAP
000000008FF1000000
00000000BFB0000000
00000000EF50000000
00000002FE10000000
00000002B900000000
000000000000000000
000000000000000000
00006BEED810CFB000
001BFFFFFFE3EFB000
00BFFF967BFEFFB000
05FFE300006FFFB000
0BFF60000009FFB000
1FFE00000003FFB000
4FFA00000003FFB000
5FF800000003FFB000
6FF700000003FFB000
6FF700000003FFB000
5FF800000003FFB000
3FFC00000003FFB000
0EFF30000008FFB000
08FFC100005FFFE000
01DFFE867BFEEFFC50
002DFFFFFFE38FFFA0
00017CEED81009EE80
ENDCHAR
STARTCHAR epsilontonos
ENCODING 941
SWIDTH 539 0
DWIDTH 17 0
BBX 15 24 1 0
BITMAP
0000000BFE000000
0000000EF8000000
0000001FF3000000
0000004FC0000000
0000004C70000000
0000000000000000
0000000000000000
00039CEFEC930000
009FFFFFFFFF9000
08FFFB767AFFFA00
0EFF4000003EFF30
2FFC00000006BB40
0EFE100000000000
07FFC41000000000
006EFFFFFF900000
005CFFFFFF900000
08FFE86555300000
2FFD100000000000
6FF8000000015530
6FF800000006FF90
3FFE3000003EFF50
0AFFFB757AFFFB00
009FFFFFFFFFA100
00039CEFEC930000
ENDCHAR
STARTCHAR etatonos
ENCODING 942
SWIDTH 566 0
DWIDTH 18 0
BBX 14 31 2 -7
BITMAP
0000004FF50000
0000007FE00000
000000AF900000
000000DF400000
000000AC000000
00000000000000
00000000000000
BFE017CEFD9200
BFF2DFFFFFFF40
BFFEFB768DFFE1
BFFE400001DFF5
BFF60000006FF9
BFF30000003FFA
BFF30000002FFB
BFF30000002FFB
BFF30000002FFB
BFF30000002FFB
BFF30000002FFB
BFF30000002FFB
BFF30000002FFB
BFF30000002FFB
BFF30000002FFB
BFF30000002FFB
BFF30000002FFB
00000000002FFB
00000000002FFB
00000000002FFB
00000000002FFB
00000000002FFB
00000000002FFB
00000000002FFB
ENDCHAR
STARTCHAR iotatonos
ENCODING 943
SWIDTH 323 0
DWIDTH 10 0
BBX 7 24 3 0
BITMAP
0BFD0000
0EF80000
2FF30000
4FC00000
4C700000
00000000
00000000
EFE00000
EFE00000
EFE00000
EFE00000
EFE00000
EFE00000
EFE00000
EFE00000
EFE00000
EFE00000
EFE00000
EFE00000
EFE00000
DFF20000
AFFD8820
3FFFFF20
04CFFD20
ENDCHAR
STARTCHAR upsilondieresistonos
ENCODING 944
SWIDTH 545 0
DWIDTH 17 0
BBX 14 25 2 0
BITMAP
000001FFC00000
000004FF600000
033008FE103200
7FF606C909FF40
AFFA00000CFF80
4EE4000006ED20
00000000000000
00000000000000
CFF200000CFF40
CFF2000006FFA0
CFF2000001FFF1
CFF2000000CFF4
CFF20000008FF8
CFF20000005FFA
CFF20000003FFB
CFF20000001FFC
CFF20000001FFC
CFF20000003FFB
BFF20000006FF9
AFF4000000BFF6
8FF7000004FFE1
3FFE10002EFF80
0BFFD769EFFC00
01CFFFFFFFB100
0006CEFEB50000
ENDCHAR
STARTCHAR alpha
ENCODING 945
SWIDTH 564 0
DWIDTH 18 0
BBX 17 17 1 0
BITMAP
00006BEED810CFB000
001BFFFFFFE3EFB000
00BFFF967BFEFFB000
05FFE300006FFFB000
0BFF60000009FFB000
1FFE00000003FFB000
4FFA00000003FFB000
5FF800000003FFB000
6FF700000003FFB000
6FF700000003FFB000
5FF800000003FFB000
3FFC00000003FFB000
0EFF30000008FFB000
08FFC100005FFFE000
01DFFE867BFEEFFC50
002DFFFFFFE38FFFA0
00017CEED81009EE80
ENDCHAR
STARTCHAR beta
ENCODING 946
SWIDTH 592 0
DWIDTH 19 0
BBX 16 29 2 -6
BITMAP
00005BDFEB710000
002CFFFFFFFD3000
02DFFD768DFFE200
0BFF900001AFFA00
3FFC0000001EFE00
6FF70000000CFF20
7FF60000000DFF10
8FF60000004FFB00
8FF6000027EFE300
8FF600EFFFFC3000
8FF600EFFFFD5000
8FF6005669EFF700
8FF60000002EFF40
8FF600000005FFC0
8FF600000000DFF1
8FF600000000BFF3
8FF600000000BFF2
8FF600000000DFF1
8FF600000005FFC0
8FFE4000003EFF60
8FFFFB766AFFFB00
8FFDFFFFFFFFA100
8FF639DEFDA40000
8FF6000000000000
8FF6000000000000
8FF6000000000000
8FF6000000000000
8FF6000000000000
8FF6000000000000
ENDCHAR
STARTCHAR gamma
ENCODING 947
SWIDTH 500 0
DWIDTH 16 0
BBX 16 24 0 -7
BITMAP
2FFD00000000AFF5
0BFF30000000EFE0
06FF80000005FF90
01EFD000000AFF30
00AFF300001EFD00
004FF900005FF800
000EFE0000AFF200
0008FF4001EFC000
0003FF9005FF6000
0000CFE00AFF1000
00007FF51FFA0000
00002FFA6FF50000
00000BFEBFE00000
000006FFFF900000
000001EFFF400000
000000AFFD000000
0000005FF9000000
0000005FF8000000
0000005FF8000000
0000005FF8000000
0000005FF8000000
0000005FF8000000
0000005FF8000000
0000005FF8000000
ENDCHAR
STARTCHAR delta
ENCODING 948
SWIDTH 566 0
DWIDTH 18 0
BBX 16 24 1 0
BITMAP
000018CEFDB72000
0004EFFFFFFF9000
001EFFD879BF9000
006FFB0000012000
008FF60000000000
006FFB0000000000
002FFFA200000000
0006FFFFA4000000
00004CFFFFD50000
00019EFFFFFFA100
003EFF966CFFFB00
02EFD200007FFF70
0AFF40000007FFE1
2FFC00000000DFF5
5FF8000000007FF8
7FF7000000005FF9
7FF7000000005FF8
6FF8000000007FF7
3FFC00000000AFF4
0DFF30000002FFE0
06FFD200001CFF70
00AFFE9668EFFB00
0009FFFFFFFFA100
000039DEED940000
ENDCHAR
STARTCHAR epsilon
ENCODING 949
SWIDTH 539 0
DWIDTH 17 0
BBX 15 17 1 0
BITMAP
00039CEFEC930000
009FFFFFFFFF9000
08FFFB767AFFFA00
0EFF4000003EFF30
2FFC00000006BB40
0EFE100000000000
07FFC41000000000
006EFFFFFF900000
005CFFFFFF900000
08FFE86555300000
2FFD100000000000
6FF8000000015530
6FF800000006FF90
3FFE3000003EFF50
0AFFFB757AFFFB00
009FFFFFFFFFA100
00039CEFEC930000
ENDCHAR
STARTCHAR zeta
ENCODING 950
SWIDTH 518 0
DWIDTH 17 0
BBX 15 29 1 -6
BITMAP
4FFFFFFFFFFFFF10
4FFFFFFFFFFFFF10
2666666666BFF800
0000000005FFB000
000000003FFD1000
00000002EFE20000
0000001DFF500000
000000BFF7000000
000008FFA0000000
00004FFD10000000
0000DFE200000000
0006FF7000000000
000EFD0000000000
005FF70000000000
00AFF20000000000
00EFF00000000000
00FFD00000000000
00FFD00000000000
00EFF20000000000
00AFFB1000000000
003EFFE951000000
0003DFFFFFB60000
000005AEFFFFB000
0000000039FFF400
00000000008FF500
00000000008FF200
0000000001EFA000
000000000AFE1000
0000000002C30000
ENDCHAR
STARTCHAR eta
ENCODING 951
SWIDTH 566 0
DWIDTH 18 0
BBX 14 24 2 -7
BITMAP
BFE017CEFD9200
BFF2DFFFFFFF40
BFFEFB768DFFE1
BFFE400001DFF5
BFF60000006FF9
BFF30000003FFA
BFF30000002FFB
BFF30000002FFB
BFF30000002FFB
BFF30000002FFB
BFF30000002FFB
BFF30000002FFB
BFF30000002FFB
BFF30000002FFB
BFF30000002FFB
BFF30000002FFB
BFF30000002FFB
00000000002FFB
00000000002FFB
00000000002FFB
00000000002FFB
00000000002FFB
00000000002FFB
00000000002FFB
ENDCHAR
STARTCHAR theta
ENCODING 952
SWIDTH 569 0
DWIDTH 18 0
BBX 16 23 1 0
BITMAP
000018CEED920000
0004EFFFFFFF6000
003EFFB76AFFF500
00CFF600004FFE10
03FFB0000008FF60
08FF40000002FFB0
0CFF10000000DFE0
0EFD00000000BFF2
0FFC00000000AFF3
1FFC000000009FF4
1FFFFFFFFFFFFFF4
1FFFFFFFFFFFFFF4
1FFD66666666CFF4
1FFC00000000AFF4
0FFD00000000AFF3
0EFF00000000CFF2
0BFF20000000EFE0
08FF70000004FFB0
03FFD000000AFF60
00BFF900006FFD10
002EFFC76AFFF500
0004EFFFFFFF6000
000018CEED920000
ENDCHAR
STARTCHAR iota
ENCODING 953
SWIDTH 323 0
DWIDTH 10 0
BBX 7 17 3 0
BITMAP
EFE00000
EFE00000
EFE00000
EFE00000
EFE00000
EFE00000
EFE00000
EFE00000
EFE00000
EFE00000
EFE00000
EFE00000
EFE00000
DFF20000
AFFD8820
3FFFFF20
04CFFD20
ENDCHAR
STARTCHAR kappa
ENCODING 954
SWIDTH 556 0
DWIDTH 18 0
BBX 15 17 2 0
BITMAP
9FF50000008FFD10
9FF5000006FFE300
9FF500004FFF4000
9FF50003EFF50000
9FF5002EFF700000
9FF501DFF9000000
9FF51CFFB0000000
9FFFFFFC10000000
9FFFFFFB00000000
9FFA8EFF90000000
9FF504FFF7000000
9FF5005FFF500000
9FF50007FFE30000
9FF50000AFFD2000
9FF500000BFFC100
9FF5000001DFFA00
9FF50000002EFF80
ENDCHAR
STARTCHAR lambda
ENCODING 955
SWIDTH 553 0
DWIDTH 18 0
BBX 17 24 0 0
BITMAP
005EEC500000000000
006FFFF50000000000
0026CFFD0000000000
00001EFF4000000000
000008FFA000000000
000002FFF100000000
000000BFF700000000
0000006FFC00000000
0000009FFF30000000
000000EFFF90000000
000005FFFFE1000000
00000BFFEFF6000000
00002FFE6FFB000000
00007FF81EFF200000
0000DFF309FF800000
0003FFD003FFD00000
0009FF7000CFF40000
001EFF20006FFA0000
005FFC00001FFF1000
00BFF600000AFF7000
02FFF1000004FFD000
07FFA0000000DFFB70
0DFF500000005FFFD0
4FFE0000000006DFC0
ENDCHAR
STARTCHAR uni03BC
ENCODING 956
SWIDTH 566 0
DWIDTH 18 0
BBX 14 24 2 -7
BITMAP
9FF40000003FFB
9FF40000003FFB
9FF40000003FFB
9FF40000003FFB
9FF40000003FFB
9FF40000003FFB
9FF40000003FFB
9FF40000003FFB
9FF40000003FFB
9FF40000003FFB
9FF50000003FFB
9FF70000003FFB
9FFA0000005FFB
9FFF300002DFFB
9FFFE8669EFFFB
9FFFFFFFFF7FFB
9FF69DFEB40AB8
9FF40000000000
9FF40000000000
9FF40000000000
9FF40000000000
9FF40000000000
9FF40000000000
9FF40000000000
ENDCHAR
STARTCHAR nu
ENCODING 957
SWIDTH 484 0
DWIDTH 16 0
BBX 15 17 0 0
BITMAP
5FFA00000003FFB0
0EFE00000008FF60
09FF4000000DFE10
03FF9000003FFA00
00DFE000007FF400
008FF40000CFE000
002FF90002FF9000
000CFE0007FF3000
0006FF400CFD0000
0001FF901FF80000
0000BFE06FF20000
00005FF4BFC00000
00001EFAFF700000
000009FFFF100000
000004FFFB000000
000000DFF6000000
0000008FF1000000
ENDCHAR
STARTCHAR xi
ENCODING 958
SWIDTH 490 0
DWIDTH 16 0
BBX 14 29 1 -6
BITMAP
000017BDEFEC81
0006EFFFFFFFF1
006FFFD9767AB0
01EFF700000000
04FFB000000000
06FF8000000000
04FFA000000000
00DFF300000000
003EFE83100000
0002AFFFFFFC00
00017EFFFFFC00
004DFFD9766400
03EFE400000000
0CFF3000000000
3FFB0000000000
6FF80000000000
6FF80000000000
5FFA0000000000
1FFF3000000000
0AFFE400000000
01DFFFB5100000
001AFFFFFC9400
000038DFFFFFB1
0000000159EFF7
00000000004FF9
00000000004FF6
0000000000BFE1
0000000007FF40
0000000001A600
ENDCHAR
STARTCHAR omicron
ENCODING 959
SWIDTH 570 0
DWIDTH 18 0
BBX 16 17 1 0
BITMAP
000029DEED940000
0007FFFFFFFFA100
008FFFA769EFFB00
04FFE400002DFF80
0CFF50000002EFE1
2FFD000000009FF6
6FF8000000004FF9
7FF6000000002FFB
8FF5000000001FFC
8FF6000000002FFB
6FF8000000005FF9
3FFC000000009FF6
0CFF40000002EFF1
05FFE300001CFF80
009FFFA669EFFC00
0008FFFFFFFFA100
000029DEFDA40000
ENDCHAR
STARTCHAR pi
ENCODING 960
SWIDTH 595 0
DWIDTH 19 0
BBX 19 17 0 0
BITMAP
5FFFFFFFFFFFFFFFFC00
5FFFFFFFFFFFFFFFFC00
266CFF766666BFF96400
000BFF3000008FF50000
000BFF3000008FF50000
000BFF3000008FF50000
000BFF3000008FF50000
000BFF3000008FF50000
000BFF3000008FF50000
000BFF3000008FF50000
000BFF3000008FF50000
000BFF3000008FF50000
000BFF3000008FF50000
000BFF3000007FF80000
000BFF3000004FFF9850
000BFF3000000CFFFF80
000BFF300000019EFE60
ENDCHAR
STARTCHAR rho
ENCODING 961
SWIDTH 566 0
DWIDTH 18 0
BBX 15 24 2 -7
BITMAP
00006CEFDA400000
002CFFFFFFFA0000
01DFFD769EFFA000
09FFB00002EFF500
1FFE1000005FFB00
6FF90000000DFF10
9FF500000009FF40
AFF300000007FF60
BFF300000006FF70
BFF300000007FF70
BFF300000008FF60
BFF30000000BFF30
BFF40000003FFE00
BFFD300001CFF900
BFFFFA668EFFE100
BFF9FFFFFFFE3000
BFF329DEEC810000
BFF3000000000000
BFF3000000000000
BFF3000000000000
BFF3000000000000
BFF3000000000000
BFF3000000000000
BFF3000000000000
ENDCHAR
STARTCHAR sigma1
ENCODING 962
SWIDTH 537 0
DWIDTH 17 0
BBX 15 23 1 -6
BITMAP
000029DFED930000
0006FFFFFFFF7000
007FFFA66AFFF600
03FFE400004FFE10
0AFF60000008FF50
1EFE00000004FF70
4FFA000000002210
5FF8000000000000
6FF7000000000000
6FF8000000000000
4FFB000000000000
1FFF200000000000
0AFFC10000000000
02EFFD5000000000
003EFFFD83000000
0002AFFFFFE81000
0000028CFFFFC000
0000000026EFF300
00000000007FF400
00000000009FF100
0000000001EF9000
000000000AFD1000
0000000002B30000
ENDCHAR
ENDFONT
